{
.appVersion = "1231";
DisplayStrings = (
Boot
);
copyright = "Copyright © 2019 by Red Hat. All rights reserved.";
customParameters = (
{
name = description;
value = "Copyright (c) 2019 by Red Hat. All rights reserved.";
},
{
name = license;
value = "This Font Software is licensed under the SIL Open Font License, Version 1.1. This license is available with a FAQ at: http://scripts.sil.org/OFL";
},
{
name = licenseURL;
value = "http://scripts.sil.org/OFL";
}
);
date = "2019-04-22 16:19:15 +0000";
designer = "Liz Wetzel, Aaron Williamson, Russ McMullin";
designerURL = "https://www.redhat.com/en/open-source-stories/because-we-had-to";
disablesAutomaticAlignment = 1;
familyName = "Because We Create";
featurePrefixes = (
{
automatic = 1;
code = "languagesystem DFLT dflt;\012";
name = Languagesystems;
}
);
features = (
{
code = "sub a a' by A.ss01;\012sub b b' by B.ss01;\012sub c c' by C.ss01;\012sub d d' by D.ss01;\012sub e e' by E.ss01;\012sub f f' by F.ss01;\012sub g g' by G.ss01;\012sub h h' by H.ss01;\012sub i i' by I.ss01;\012sub j j' by J.ss01;\012sub k k' by K.ss01;\012sub l l' by L.ss01;\012sub m m' by M.ss01;\012sub n n' by N.ss01;\012sub o o' by O.ss01;\012sub p p' by P.ss01;\012sub q q' by Q.ss01;\012sub r r' by R.ss01;\012sub s s' by S.ss01;\012sub t t' by T.ss01;\012sub u u' by U.ss01;\012sub v v' by V.ss01;\012sub w w' by W.ss01;\012sub x x' by X.ss01;\012sub z z' by Z.ss01;\012sub A A' by A.ss01;\012sub B B' by B.ss01;\012sub C C' by C.ss01;\012sub D D' by D.ss01;\012sub E E' by E.ss01;\012sub F F' by F.ss01;\012sub G G' by G.ss01;\012sub H H' by H.ss01;\012sub I I' by I.ss01;\012sub J J' by J.ss01;\012sub K K' by K.ss01;\012sub L L' by L.ss01;\012sub M M' by M.ss01;\012sub N N' by N.ss01;\012sub O O' by O.ss01;\012sub P P' by P.ss01;\012sub Q Q' by Q.ss01;\012sub R R' by R.ss01;\012sub S S' by S.ss01;\012sub T T' by T.ss01;\012sub U U' by U.ss01;\012sub V V' by V.ss01;\012sub W W' by W.ss01;\012sub X X' by X.ss01;\012sub Z Z' by Z.ss01;";
name = calt;
}

glyphs = (
{
glyphname = A;
lastChange = "2019-03-20 22:30:11 +0000";
layers = (
{
hints = (
{
place = "{57, 68}";
type = Stem;
},
{
place = "{96, 19}";
type = Stem;
},
{
place = "{120, 15}";
type = Stem;
},
{
place = "{176, 68}";
type = Stem;
},
{
place = "{381, 22}";
type = Stem;
},
{
horizontal = 1;
place = "{-25, 21}";
target = up;
type = BottomGhost;
},
{
horizontal = 1;
place = "{-21, 21}";
target = up;
type = BottomGhost;
}
);
layerId = UUID0;
paths = (
{
closed = 1;
nodes = (
"170 659 OFFCURVE",
"165 647 OFFCURVE",
"161 633 CURVE SMOOTH",
"136 549 OFFCURVE",
"115 463 OFFCURVE",
"96 373 CURVE",
"63 366 OFFCURVE",
"9 360 OFFCURVE",
"9 329 CURVE SMOOTH",
"9 316 OFFCURVE",
"29 310 OFFCURVE",
"39 310 CURVE SMOOTH",
"52 310 OFFCURVE",
"71 315 OFFCURVE",
"88 317 CURVE",
"88 286 OFFCURVE",
"78 229 OFFCURVE",
"75 199 CURVE SMOOTH",
"67 136 OFFCURVE",
"57 74 OFFCURVE",
"57 11 CURVE SMOOTH",
"57 0 OFFCURVE",
"57 -22 OFFCURVE",
"71 -25 CURVE",
"75 -25 OFFCURVE",
"77 -20 OFFCURVE",
"81 -18 CURVE",
"84 -19 OFFCURVE",
"87 -21 OFFCURVE",
"90 -21 CURVE SMOOTH",
"98 -21 OFFCURVE",
"104 1 OFFCURVE",
"107 10 CURVE",
"114 2 LINE",
"122 25 OFFCURVE",
"122 78 OFFCURVE",
"125 109 CURVE",
"122 109 OFFCURVE",
"119 110 OFFCURVE",
"117 110 CURVE",
"120 113 OFFCURVE",
"124 116 OFFCURVE",
"127 120 CURVE",
"123 127 LINE",
"116 122 LINE",
"118 130 OFFCURVE",
"119 138 OFFCURVE",
"120 145 CURVE",
"125 144 OFFCURVE",
"130 142 OFFCURVE",
"135 140 CURVE",
"135 147 OFFCURVE",
"134 153 OFFCURVE",
"132 160 CURVE",
"152 200 OFFCURVE",
"149 298 OFFCURVE",
"165 321 CURVE SMOOTH",
"171 331 OFFCURVE",
"219 332 OFFCURVE",
"245 340 CURVE",
"262 296 OFFCURVE",
"270 253 OFFCURVE",
"287 213 CURVE SMOOTH",
"301 179 OFFCURVE",
"316 115 OFFCURVE",
"342 89 CURVE",
"344 96 OFFCURVE",
"345 104 OFFCURVE",
"346 112 CURVE",
"351 112 OFFCURVE",
"356 92 OFFCURVE",
"363 83 CURVE",
"374 94 OFFCURVE",
"368 105 OFFCURVE",
"373 118 CURVE",
"376 113 OFFCURVE",
"379 108 OFFCURVE",
"381 102 CURVE",
"386 106 OFFCURVE",
"392 107 OFFCURVE",
"392 113 CURVE SMOOTH",
"392 129 OFFCURVE",
"381 149 OFFCURVE",
"377 167 CURVE",
"390 147 OFFCURVE",
"393 118 OFFCURVE",
"403 95 CURVE",
"403 105 LINE SMOOTH",
"403 133 OFFCURVE",
"392 158 OFFCURVE",
"388 185 CURVE",
"397 173 LINE",
"390 237 OFFCURVE",
"350 301 OFFCURVE",
"340 364 CURVE",
"372 370 OFFCURVE",
"435 384 OFFCURVE",
"435 412 CURVE",
"431 424 OFFCURVE",
"411 425 OFFCURVE",
"398 425 CURVE SMOOTH",
"390 425 LINE SMOOTH",
"363 425 OFFCURVE",
"338 420 OFFCURVE",
"313 416 CURVE",
"300 456 OFFCURVE",
"285 502 OFFCURVE",
"268 548 CURVE SMOOTH",
"259 571 OFFCURVE",
"257 594 OFFCURVE",
"244 617 CURVE",
"244 622 LINE SMOOTH",
"244 644 OFFCURVE",
"233 652 OFFCURVE",
"216 664 CURVE",
"208 658 LINE",
"206 662 OFFCURVE",
"203 665 OFFCURVE",
"200 669 CURVE",
"194 662 OFFCURVE",
"191 656 OFFCURVE",
"188 648 CURVE",
"186 655 OFFCURVE",
"183 662 OFFCURVE",
"180 669 CURVE",
"180 669 LINE"
);
},
{
closed = 1;
nodes = (
"176 622 OFFCURVE",
"176 620 OFFCURVE",
"176 617 CURVE SMOOTH",
"176 612 OFFCURVE",
"175 607 OFFCURVE",
"174 603 CURVE SMOOTH",
"164 566 OFFCURVE",
"151 528 OFFCURVE",
"144 491 CURVE SMOOTH",
"139 467 OFFCURVE",
"126 383 OFFCURVE",
"115 377 CURVE",
"120 407 OFFCURVE",
"126 437 OFFCURVE",
"132 466 CURVE SMOOTH",
"142 511 OFFCURVE",
"153 575 OFFCURVE",
"175 625 CURVE",
"175 625 LINE"
);
},
{
closed = 1;
nodes = (
"194 518 OFFCURVE",
"192 505 OFFCURVE",
"188 491 CURVE SMOOTH",
"179 456 OFFCURVE",
"175 413 OFFCURVE",
"164 386 CURVE",
"166 421 OFFCURVE",
"178 494 OFFCURVE",
"195 533 CURVE",
"195 533 LINE"
);
},
{
closed = 1;
nodes = (
"196 494 OFFCURVE",
"184 419 OFFCURVE",
"175 388 CURVE",
"175 415 OFFCURVE",
"187 482 OFFCURVE",
"201 514 CURVE",
"201 514 LINE"
);
},
{
closed = 1;
nodes = (
"213 463 OFFCURVE",
"217 426 OFFCURVE",
"231 402 CURVE",
"216 395 OFFCURVE",
"200 394 OFFCURVE",
"183 391 CURVE",
"186 423 OFFCURVE",
"192 465 OFFCURVE",
"204 492 CURVE",
"204 492 LINE"
);
},
{
closed = 1;
nodes = (
"120 172 OFFCURVE",
"121 171 OFFCURVE",
"121 169 CURVE SMOOTH",
"121 168 OFFCURVE",
"120 167 OFFCURVE",
"118 167 CURVE SMOOTH",
"116 167 OFFCURVE",
"115 168 OFFCURVE",
"115 169 CURVE SMOOTH",
"115 171 OFFCURVE",
"116 172 OFFCURVE",
"118 173 CURVE",
"118 173 LINE"
);
}
);
width = 447;
}
);
unicode = 0041;
},
{
glyphname = B;
lastChange = "2019-03-20 22:30:11 +0000";
layers = (
{
hints = (
{
place = "{11, 7}";
type = Stem;
},
{
place = "{40, 77}";
type = Stem;
},
{
place = "{88, 18}";
type = Stem;
},
{
place = "{107, 16}";
type = Stem;
},
{
place = "{111, 18}";
type = Stem;
},
{
place = "{123, 7}";
type = Stem;
},
{
place = "{133, 15}";
type = Stem;
},
{
place = "{241, 7}";
type = Stem;
},
{
place = "{329, 27}";
type = Stem;
},
{
place = "{332, 7}";
type = Stem;
},
{
place = "{432, 11}";
type = Stem;
},
{
place = "{449, 9}";
type = Stem;
},
{
horizontal = 1;
place = "{8, 64}";
type = Stem;
},
{
horizontal = 1;
place = "{643, 47}";
type = Stem;
}
);
layerId = UUID0;
paths = (
{
closed = 1;
nodes = (
"97 687 OFFCURVE",
"73 676 OFFCURVE",
"53 663 CURVE",
"43 669 LINE",
"35 661 OFFCURVE",
"34 652 OFFCURVE",
"30 642 CURVE",
"23 630 OFFCURVE",
"11 621 OFFCURVE",
"11 605 CURVE SMOOTH",
"11 599 OFFCURVE",
"14 594 OFFCURVE",
"18 590 CURVE",
"22 601 OFFCURVE",
"25 612 OFFCURVE",
"32 622 CURVE",
"32 616 LINE SMOOTH",
"32 608 OFFCURVE",
"29 601 OFFCURVE",
"26 594 CURVE",
"39 572 OFFCURVE",
"40 535 OFFCURVE",
"40 500 CURVE SMOOTH",
"40 486 LINE SMOOTH",
"40 474 OFFCURVE",
"40 464 OFFCURVE",
"41 454 CURVE SMOOTH",
"48 354 OFFCURVE",
"56 255 OFFCURVE",
"60 155 CURVE SMOOTH",
"61 123 OFFCURVE",
"69 90 OFFCURVE",
"69 59 CURVE SMOOTH",
"69 51 OFFCURVE",
"68 42 OFFCURVE",
"68 33 CURVE SMOOTH",
"68 13 OFFCURVE",
"110 8 OFFCURVE",
"133 8 CURVE SMOOTH",
"175 8 OFFCURVE",
"216 13 OFFCURVE",
"257 27 CURVE SMOOTH",
"372 68 OFFCURVE",
"458 131 OFFCURVE",
"458 240 CURVE SMOOTH",
"458 352 OFFCURVE",
"356 410 OFFCURVE",
"271 441 CURVE",
"274 444 LINE SMOOTH",
"303 476 OFFCURVE",
"339 516 OFFCURVE",
"339 566 CURVE SMOOTH",
"339 658 OFFCURVE",
"218 690 OFFCURVE",
"145 690 CURVE SMOOTH",
"137 690 OFFCURVE",
"129 689 OFFCURVE",
"122 689 CURVE SMOOTH",
"122 689 LINE"
);
},
{
closed = 1;
nodes = (
"212 643 OFFCURVE",
"241 611 OFFCURVE",
"241 568 CURVE SMOOTH",
"241 499 OFFCURVE",
"174 446 OFFCURVE",
"117 416 CURVE",
"110 480 OFFCURVE",
"111 555 OFFCURVE",
"95 615 CURVE",
"111 633 OFFCURVE",
"135 642 OFFCURVE",
"159 643 CURVE",
"159 643 LINE"
);
},
{
closed = 1;
nodes = (
"332 549 OFFCURVE",
"332 548 OFFCURVE",
"332 546 CURVE SMOOTH",
"332 536 OFFCURVE",
"318 515 OFFCURVE",
"317 515 CURVE SMOOTH",
"315 515 OFFCURVE",
"310 514 OFFCURVE",
"309 514 CURVE",
"312 526 OFFCURVE",
"325 544 OFFCURVE",
"331 555 CURVE",
"331 551 LINE"
);
},
{
closed = 1;
nodes = (
"262 532 OFFCURVE",
"258 520 OFFCURVE",
"248 510 CURVE",
"251 524 OFFCURVE",
"256 537 OFFCURVE",
"262 550 CURVE",
"262 545 LINE"
);
},
{
closed = 1;
nodes = (
"69 312 OFFCURVE",
"88 187 OFFCURVE",
"88 68 CURVE SMOOTH",
"88 61 LINE",
"74 91 OFFCURVE",
"73 156 OFFCURVE",
"73 200 CURVE SMOOTH",
"73 214 LINE SMOOTH",
"73 226 OFFCURVE",
"71 238 OFFCURVE",
"71 251 CURVE SMOOTH",
"71 256 LINE SMOOTH",
"71 312 OFFCURVE",
"61 367 OFFCURVE",
"61 423 CURVE",
"61 423 LINE"
);
},
{
closed = 1;
nodes = (
"291 378 OFFCURVE",
"329 271 OFFCURVE",
"329 212 CURVE SMOOTH",
"329 138 OFFCURVE",
"225 80 OFFCURVE",
"149 69 CURVE",
"148 81 OFFCURVE",
"148 94 OFFCURVE",
"148 106 CURVE SMOOTH",
"148 182 OFFCURVE",
"139 267 OFFCURVE",
"130 347 CURVE SMOOTH",
"130 351 LINE SMOOTH",
"130 366 OFFCURVE",
"139 368 OFFCURVE",
"149 368 CURVE SMOOTH",
"167 368 LINE",
"186 370 OFFCURVE",
"200 388 OFFCURVE",
"222 388 CURVE SMOOTH",
"225 388 OFFCURVE",
"228 388 OFFCURVE",
"231 387 CURVE SMOOTH",
"231 387 LINE"
);
},
{
closed = 1;
nodes = (
"120 280 OFFCURVE",
"133 186 OFFCURVE",
"133 91 CURVE SMOOTH",
"133 84 OFFCURVE",
"132 78 OFFCURVE",
"132 72 CURVE",
"129 83 OFFCURVE",
"129 94 OFFCURVE",
"129 105 CURVE SMOOTH",
"129 122 LINE",
"120 184 OFFCURVE",
"118 255 OFFCURVE",
"113 320 CURVE SMOOTH",
"112 336 OFFCURVE",
"111 352 OFFCURVE",
"111 368 CURVE SMOOTH",
"111 373 LINE"
);
},
{
closed = 1;
nodes = (
"127 350 OFFCURVE",
"128 337 OFFCURVE",
"129 324 CURVE SMOOTH",
"135 244 OFFCURVE",
"144 163 OFFCURVE",
"144 88 CURVE SMOOTH",
"144 82 OFFCURVE",
"144 75 OFFCURVE",
"143 69 CURVE",
"140 82 OFFCURVE",
"139 95 OFFCURVE",
"139 108 CURVE SMOOTH",
"136 190 OFFCURVE",
"123 274 OFFCURVE",
"123 355 CURVE SMOOTH",
"123 362 LINE"
);
},
{
closed = 1;
nodes = (
"448 257 OFFCURVE",
"449 245 OFFCURVE",
"449 233 CURVE SMOOTH",
"449 219 OFFCURVE",
"448 207 OFFCURVE",
"444 194 CURVE",
"444 211 OFFCURVE",
"443 227 OFFCURVE",
"443 244 CURVE SMOOTH",
"443 252 OFFCURVE",
"443 260 OFFCURVE",
"444 268 CURVE",
"444 268 LINE"
);
},
{
closed = 1;
nodes = (
"431 244 OFFCURVE",
"432 240 OFFCURVE",
"432 235 CURVE SMOOTH",
"432 230 OFFCURVE",
"431 225 OFFCURVE",
"429 220 CURVE",
"428 225 OFFCURVE",
"428 230 OFFCURVE",
"428 235 CURVE SMOOTH",
"428 240 OFFCURVE",
"428 245 OFFCURVE",
"429 250 CURVE",
"429 250 LINE"
);
},
{
closed = 1;
nodes = (
"107 222 OFFCURVE",
"107 206 OFFCURVE",
"107 190 CURVE SMOOTH",
"107 143 LINE SMOOTH",
"107 137 OFFCURVE",
"107 131 OFFCURVE",
"106 126 CURVE",
"102 162 OFFCURVE",
"100 199 OFFCURVE",
"99 235 CURVE",
"106 238 LINE"
);
},
{
closed = 1;
nodes = (
"359 226 OFFCURVE",
"362 216 OFFCURVE",
"362 207 CURVE SMOOTH",
"362 201 OFFCURVE",
"359 197 OFFCURVE",
"356 192 CURVE",
"356 206 OFFCURVE",
"357 221 OFFCURVE",
"357 235 CURVE",
"357 235 LINE"
);
},
{
closed = 1;
nodes = (
"109 119 OFFCURVE",
"110 113 OFFCURVE",
"110 107 CURVE SMOOTH",
"110 102 OFFCURVE",
"109 97 OFFCURVE",
"109 93 CURVE",
"107 99 OFFCURVE",
"106 105 OFFCURVE",
"106 111 CURVE SMOOTH",
"106 116 OFFCURVE",
"107 121 OFFCURVE",
"108 126 CURVE",
"108 126 LINE"
);
},
{
closed = 1;
nodes = (
"111 83 OFFCURVE",
"111 75 OFFCURVE",
"111 66 CURVE",
"110 71 OFFCURVE",
"109 77 OFFCURVE",
"109 82 CURVE SMOOTH",
"109 86 OFFCURVE",
"109 89 OFFCURVE",
"110 93 CURVE",
"110 93 LINE"
);
}
);
width = 471;
}
);
unicode = 0042;
},
{
glyphname = C;
lastChange = "2019-03-20 22:30:11 +0000";
layers = (
{
hints = (
{
place = "{12, 19}";
type = Stem;
},
{
place = "{35, 22}";
type = Stem;
},
{
place = "{60, 20}";
type = Stem;
},
{
place = "{66, 26}";
type = Stem;
},
{
place = "{81, 9}";
type = Stem;
},
{
place = "{94, 129}";
type = Stem;
},
{
place = "{98, 8}";
type = Stem;
},
{
place = "{188, 15}";
type = Stem;
},
{
place = "{226, 16}";
type = Stem;
},
{
place = "{247, 8}";
type = Stem;
},
{
place = "{284, 7}";
type = Stem;
},
{
horizontal = 1;
place = "{17, 127}";
type = Stem;
},
{
horizontal = 1;
place = "{616, 64}";
type = Stem;
}
);
layerId = UUID0;
paths = (
{
closed = 1;
nodes = (
"69 680 OFFCURVE",
"12 493 OFFCURVE",
"12 254 CURVE SMOOTH",
"12 233 LINE SMOOTH",
"12 204 OFFCURVE",
"18 17 OFFCURVE",
"144 17 CURVE SMOOTH",
"146 17 OFFCURVE",
"149 17 OFFCURVE",
"151 18 CURVE",
"279 40 OFFCURVE",
"281 163 OFFCURVE",
"294 230 CURVE",
"294 231 OFFCURVE",
"295 232 OFFCURVE",
"295 233 CURVE SMOOTH",
"299 254 OFFCURVE",
"302 274 OFFCURVE",
"302 295 CURVE SMOOTH",
"302 303 OFFCURVE",
"301 310 OFFCURVE",
"299 317 CURVE",
"297 272 OFFCURVE",
"291 220 OFFCURVE",
"279 178 CURVE",
"279 218 OFFCURVE",
"292 257 OFFCURVE",
"292 297 CURVE SMOOTH",
"292 310 OFFCURVE",
"290 320 OFFCURVE",
"287 331 CURVE",
"283 318 OFFCURVE",
"285 305 OFFCURVE",
"282 292 CURVE",
"280 307 OFFCURVE",
"286 324 OFFCURVE",
"265 332 CURVE",
"257 309 LINE",
"256 318 OFFCURVE",
"255 326 OFFCURVE",
"250 333 CURVE",
"221 293 OFFCURVE",
"228 204 OFFCURVE",
"204 145 CURVE",
"204 187 OFFCURVE",
"223 233 OFFCURVE",
"223 272 CURVE SMOOTH",
"223 277 OFFCURVE",
"222 282 OFFCURVE",
"221 288 CURVE",
"227 294 OFFCURVE",
"230 295 OFFCURVE",
"230 305 CURVE SMOOTH",
"230 312 OFFCURVE",
"228 320 OFFCURVE",
"227 326 CURVE",
"200 294 OFFCURVE",
"198 236 OFFCURVE",
"189 192 CURVE SMOOTH",
"189 190 OFFCURVE",
"188 187 OFFCURVE",
"188 185 CURVE SMOOTH",
"181 150 OFFCURVE",
"169 93 OFFCURVE",
"152 85 CURVE",
"98 122 OFFCURVE",
"90 205 OFFCURVE",
"90 272 CURVE SMOOTH",
"90 287 LINE SMOOTH",
"90 318 OFFCURVE",
"92 349 OFFCURVE",
"92 380 CURVE SMOOTH",
"92 447 OFFCURVE",
"117 523 OFFCURVE",
"117 577 CURVE",
"114 583 LINE",
"101 554 OFFCURVE",
"104 523 OFFCURVE",
"95 493 CURVE",
"95 519 OFFCURVE",
"102 584 OFFCURVE",
"130 621 CURVE",
"126 609 OFFCURVE",
"121 597 OFFCURVE",
"117 584 CURVE",
"122 590 OFFCURVE",
"127 595 OFFCURVE",
"131 601 CURVE",
"128 583 OFFCURVE",
"120 569 OFFCURVE",
"119 551 CURVE",
"130 581 OFFCURVE",
"135 607 OFFCURVE",
"155 632 CURVE",
"172 599 OFFCURVE",
"173 568 OFFCURVE",
"177 534 CURVE SMOOTH",
"180 508 OFFCURVE",
"179 473 OFFCURVE",
"194 454 CURVE",
"195 466 OFFCURVE",
"197 477 OFFCURVE",
"200 488 CURVE",
"203 472 OFFCURVE",
"196 461 OFFCURVE",
"215 447 CURVE",
"223 469 OFFCURVE",
"217 490 OFFCURVE",
"224 511 CURVE",
"225 504 OFFCURVE",
"226 496 OFFCURVE",
"226 489 CURVE SMOOTH",
"226 475 LINE SMOOTH",
"226 468 OFFCURVE",
"226 462 OFFCURVE",
"227 456 CURVE",
"233 460 OFFCURVE",
"237 463 OFFCURVE",
"240 469 CURVE",
"241 469 OFFCURVE",
"242 468 OFFCURVE",
"242 467 CURVE SMOOTH",
"243 478 OFFCURVE",
"244 489 OFFCURVE",
"247 500 CURVE",
"247 496 OFFCURVE",
"248 492 OFFCURVE",
"248 487 CURVE SMOOTH",
"248 478 OFFCURVE",
"247 469 OFFCURVE",
"247 459 CURVE SMOOTH",
"247 452 LINE",
"255 468 OFFCURVE",
"255 489 OFFCURVE",
"255 508 CURVE SMOOTH",
"255 513 LINE SMOOTH",
"255 550 OFFCURVE",
"250 600 OFFCURVE",
"233 639 CURVE SMOOTH",
"219 671 OFFCURVE",
"173 680 OFFCURVE",
"138 680 CURVE SMOOTH",
"138 680 LINE"
);
},
{
closed = 1;
nodes = (
"95 621 OFFCURVE",
"87 609 OFFCURVE",
"82 595 CURVE SMOOTH",
"53 521 OFFCURVE",
"35 382 OFFCURVE",
"35 258 CURVE SMOOTH",
"35 254 LINE SMOOTH",
"35 248 OFFCURVE",
"34 242 OFFCURVE",
"34 236 CURVE SMOOTH",
"34 226 OFFCURVE",
"39 218 OFFCURVE",
"39 207 CURVE SMOOTH",
"39 200 OFFCURVE",
"38 193 OFFCURVE",
"38 185 CURVE SMOOTH",
"38 169 OFFCURVE",
"41 152 OFFCURVE",
"47 136 CURVE",
"35 142 OFFCURVE",
"30 181 OFFCURVE",
"30 198 CURVE SMOOTH",
"30 206 OFFCURVE",
"31 214 OFFCURVE",
"31 222 CURVE SMOOTH",
"31 265 LINE SMOOTH",
"31 288 OFFCURVE",
"34 312 OFFCURVE",
"34 336 CURVE SMOOTH",
"34 346 OFFCURVE",
"33 355 OFFCURVE",
"33 365 CURVE SMOOTH",
"34 412 OFFCURVE",
"44 463 OFFCURVE",
"51 511 CURVE SMOOTH",
"56 548 OFFCURVE",
"67 605 OFFCURVE",
"98 636 CURVE",
"98 636 LINE"
);
},
{
closed = 1;
nodes = (
"84 554 OFFCURVE",
"74 489 OFFCURVE",
"66 424 CURVE SMOOTH",
"64 403 OFFCURVE",
"65 383 OFFCURVE",
"60 363 CURVE",
"59 368 OFFCURVE",
"59 374 OFFCURVE",
"59 380 CURVE SMOOTH",
"59 416 OFFCURVE",
"66 456 OFFCURVE",
"73 495 CURVE SMOOTH",
"73 498 OFFCURVE",
"74 500 OFFCURVE",
"74 503 CURVE SMOOTH",
"80 540 OFFCURVE",
"86 596 OFFCURVE",
"106 616 CURVE",
"106 616 LINE"
);
},
{
closed = 1;
nodes = (
"95 485 OFFCURVE",
"94 372 OFFCURVE",
"94 315 CURVE SMOOTH",
"94 256 OFFCURVE",
"97 185 OFFCURVE",
"113 156 CURVE",
"109 201 OFFCURVE",
"99 244 OFFCURVE",
"99 288 CURVE SMOOTH",
"99 352 OFFCURVE",
"103 414 OFFCURVE",
"108 478 CURVE SMOOTH",
"110 502 OFFCURVE",
"116 525 OFFCURVE",
"118 549 CURVE",
"118 549 LINE"
);
},
{
closed = 1;
nodes = (
"94 444 OFFCURVE",
"86 398 OFFCURVE",
"83 354 CURVE",
"83 327 OFFCURVE",
"81 299 OFFCURVE",
"81 269 CURVE SMOOTH",
"81 229 OFFCURVE",
"84 187 OFFCURVE",
"100 144 CURVE",
"93 144 OFFCURVE",
"83 177 OFFCURVE",
"83 187 CURVE SMOOTH",
"83 191 OFFCURVE",
"84 195 OFFCURVE",
"85 199 CURVE",
"85 231 OFFCURVE",
"80 265 OFFCURVE",
"80 297 CURVE SMOOTH",
"80 358 OFFCURVE",
"92 426 OFFCURVE",
"92 488 CURVE SMOOTH",
"92 490 OFFCURVE",
"93 491 OFFCURVE",
"94 493 CURVE",
"94 487 LINE"
);
},
{
closed = 1;
nodes = (
"59 314 OFFCURVE",
"60 298 OFFCURVE",
"60 281 CURVE SMOOTH",
"60 264 OFFCURVE",
"59 247 OFFCURVE",
"59 231 CURVE",
"57 241 OFFCURVE",
"57 251 OFFCURVE",
"57 261 CURVE SMOOTH",
"57 301 LINE SMOOTH",
"57 311 OFFCURVE",
"57 321 OFFCURVE",
"59 331 CURVE",
"59 331 LINE"
);
},
{
closed = 1;
nodes = (
"220 276 OFFCURVE",
"219 275 OFFCURVE",
"217 275 CURVE SMOOTH",
"215 275 OFFCURVE",
"214 276 OFFCURVE",
"214 277 CURVE SMOOTH",
"214 279 OFFCURVE",
"214 281 OFFCURVE",
"217 281 CURVE",
"220 278 LINE"
);
},
{
closed = 1;
nodes = (
"69 209 OFFCURVE",
"62 181 OFFCURVE",
"76 153 CURVE",
"73 141 LINE",
"65 162 OFFCURVE",
"57 186 OFFCURVE",
"57 209 CURVE SMOOTH",
"57 216 OFFCURVE",
"58 223 OFFCURVE",
"60 230 CURVE",
"60 230 LINE"
);
},
{
closed = 1;
nodes = (
"75 195 LINE",
"73 204 LINE",
"79 201 LINE"
);
}
);
width = 311;
}
);
unicode = 0043;
},
{
glyphname = D;
lastChange = "2019-03-20 22:30:11 +0000";
layers = (
{
hints = (
{
place = "{10, 70}";
type = Stem;
},
{
place = "{81, 11}";
type = Stem;
},
{
place = "{194, 18}";
type = Stem;
},
{
place = "{214, 50}";
type = Stem;
},
{
place = "{266, 11}";
type = Stem;
},
{
horizontal = 1;
place = "{22, 664}";
type = Stem;
}
);
layerId = UUID0;
paths = (
{
closed = 1;
nodes = (
"22 686 OFFCURVE",
"14 681 OFFCURVE",
"11 674 CURVE",
"11 664 OFFCURVE",
"13 655 OFFCURVE",
"13 645 CURVE SMOOTH",
"13 635 LINE SMOOTH",
"13 615 OFFCURVE",
"11 594 OFFCURVE",
"11 575 CURVE SMOOTH",
"11 518 LINE SMOOTH",
"11 499 OFFCURVE",
"10 480 OFFCURVE",
"10 462 CURVE SMOOTH",
"10 424 LINE SMOOTH",
"10 351 OFFCURVE",
"5 278 OFFCURVE",
"5 207 CURVE SMOOTH",
"5 183 LINE SMOOTH",
"5 152 OFFCURVE",
"6 123 OFFCURVE",
"12 89 CURVE SMOOTH",
"16 68 OFFCURVE",
"12 43 OFFCURVE",
"28 28 CURVE",
"33 42 LINE",
"40 22 LINE",
"67 25 OFFCURVE",
"95 33 OFFCURVE",
"121 41 CURVE SMOOTH",
"247 81 OFFCURVE",
"285 202 OFFCURVE",
"285 299 CURVE SMOOTH",
"285 308 OFFCURVE",
"285 316 OFFCURVE",
"284 325 CURVE",
"281 321 OFFCURVE",
"280 315 OFFCURVE",
"280 310 CURVE SMOOTH",
"280 287 LINE SMOOTH",
"280 250 OFFCURVE",
"274 195 OFFCURVE",
"249 157 CURVE",
"264 207 OFFCURVE",
"277 257 OFFCURVE",
"277 309 CURVE SMOOTH",
"277 323 OFFCURVE",
"275 338 OFFCURVE",
"275 352 CURVE SMOOTH",
"275 360 OFFCURVE",
"276 368 OFFCURVE",
"276 376 CURVE SMOOTH",
"276 380 LINE SMOOTH",
"276 413 OFFCURVE",
"263 450 OFFCURVE",
"256 483 CURVE SMOOTH",
"232 594 OFFCURVE",
"145 677 OFFCURVE",
"30 686 CURVE",
"30 686 LINE"
);
},
{
closed = 1;
nodes = (
"103 616 OFFCURVE",
"121 590 OFFCURVE",
"135 569 CURVE SMOOTH",
"138 565 LINE SMOOTH",
"177 505 OFFCURVE",
"194 386 OFFCURVE",
"194 303 CURVE SMOOTH",
"194 211 OFFCURVE",
"172 137 OFFCURVE",
"99 95 CURVE",
"100 119 OFFCURVE",
"101 144 OFFCURVE",
"101 168 CURVE SMOOTH",
"101 200 OFFCURVE",
"100 232 OFFCURVE",
"100 265 CURVE SMOOTH",
"100 271 OFFCURVE",
"100 277 OFFCURVE",
"98 283 CURVE",
"96 277 OFFCURVE",
"95 271 OFFCURVE",
"95 265 CURVE SMOOTH",
"95 250 OFFCURVE",
"98 206 OFFCURVE",
"98 165 CURVE SMOOTH",
"98 134 OFFCURVE",
"96 104 OFFCURVE",
"90 88 CURVE",
"89 91 OFFCURVE",
"89 95 OFFCURVE",
"89 99 CURVE SMOOTH",
"89 113 OFFCURVE",
"92 126 OFFCURVE",
"92 141 CURVE SMOOTH",
"92 150 OFFCURVE",
"91 159 OFFCURVE",
"91 167 CURVE SMOOTH",
"91 221 OFFCURVE",
"92 274 OFFCURVE",
"92 328 CURVE SMOOTH",
"92 355 OFFCURVE",
"90 381 OFFCURVE",
"90 408 CURVE SMOOTH",
"90 431 LINE SMOOTH",
"90 452 OFFCURVE",
"86 541 OFFCURVE",
"82 628 CURVE",
"82 628 LINE"
);
},
{
closed = 1;
nodes = (
"94 378 OFFCURVE",
"94 365 OFFCURVE",
"94 352 CURVE SMOOTH",
"94 334 OFFCURVE",
"95 314 OFFCURVE",
"95 305 CURVE SMOOTH",
"95 298 OFFCURVE",
"95 291 OFFCURVE",
"98 284 CURVE",
"100 292 OFFCURVE",
"100 301 OFFCURVE",
"100 310 CURVE SMOOTH",
"100 328 LINE SMOOTH",
"100 346 OFFCURVE",
"100 366 OFFCURVE",
"97 384 CURVE",
"97 384 LINE"
);
},
{
closed = 1;
nodes = (
"281 338 OFFCURVE",
"280 332 OFFCURVE",
"280 326 CURVE",
"286 327 LINE",
"285 333 OFFCURVE",
"283 338 OFFCURVE",
"281 344 CURVE",
"281 344 LINE"
);
},
{
closed = 1;
nodes = (
"266 290 OFFCURVE",
"266 282 OFFCURVE",
"266 274 CURVE SMOOTH",
"266 244 OFFCURVE",
"262 206 OFFCURVE",
"244 175 CURVE",
"254 208 OFFCURVE",
"264 243 OFFCURVE",
"264 279 CURVE SMOOTH",
"264 298 LINE"
);
},
{
closed = 1;
nodes = (
"212 272 OFFCURVE",
"214 260 OFFCURVE",
"214 247 CURVE SMOOTH",
"214 220 OFFCURVE",
"208 183 OFFCURVE",
"187 161 CURVE",
"189 173 OFFCURVE",
"194 184 OFFCURVE",
"199 195 CURVE SMOOTH",
"208 216 OFFCURVE",
"209 255 OFFCURVE",
"212 284 CURVE",
"212 284 LINE"
);
},
{
closed = 1;
nodes = (
"81 101 OFFCURVE",
"81 93 OFFCURVE",
"80 86 CURVE",
"79 91 OFFCURVE",
"79 96 OFFCURVE",
"79 101 CURVE SMOOTH",
"79 108 OFFCURVE",
"79 115 OFFCURVE",
"80 122 CURVE",
"80 192 LINE SMOOTH",
"80 216 OFFCURVE",
"80 239 OFFCURVE",
"81 263 CURVE",
"81 108 LINE"
);
},
{
closed = 1;
nodes = (
"239 242 OFFCURVE",
"240 240 OFFCURVE",
"240 238 CURVE SMOOTH",
"240 236 OFFCURVE",
"239 234 OFFCURVE",
"237 234 CURVE SMOOTH",
"236 234 OFFCURVE",
"235 237 OFFCURVE",
"235 238 CURVE SMOOTH",
"235 239 OFFCURVE",
"236 241 OFFCURVE",
"237 242 CURVE",
"237 242 LINE"
);
},
{
closed = 1;
nodes = (
"237 228 OFFCURVE",
"238 227 OFFCURVE",
"238 225 CURVE SMOOTH",
"238 224 OFFCURVE",
"237 223 OFFCURVE",
"236 222 CURVE",
"234 222 OFFCURVE",
"233 223 OFFCURVE",
"233 225 CURVE SMOOTH",
"233 226 OFFCURVE",
"233 228 OFFCURVE",
"234 228 CURVE",
"234 228 LINE"
);
},
{
closed = 1;
nodes = (
"234 216 OFFCURVE",
"235 216 OFFCURVE",
"235 214 CURVE SMOOTH",
"235 212 OFFCURVE",
"234 211 OFFCURVE",
"233 211 CURVE SMOOTH",
"231 211 OFFCURVE",
"231 212 OFFCURVE",
"231 213 CURVE SMOOTH",
"231 214 OFFCURVE",
"231 215 OFFCURVE",
"233 216 CURVE",
"233 216 LINE"
);
}
);
width = 296;
}
);
unicode = 0044;
},
{
glyphname = E;
lastChange = "2019-03-20 22:30:11 +0000";
layers = (
{
hints = (
{
place = "{43, 10}";
type = Stem;
},
{
place = "{120, 8}";
type = Stem;
},
{
place = "{257, 15}";
type = Stem;
},
{
place = "{267, 21}";
type = Stem;
},
{
place = "{289, 9}";
type = Stem;
},
{
horizontal = 1;
place = "{39, 66}";
type = Stem;
},
{
horizontal = 1;
place = "{286, 65}";
type = Stem;
},
{
horizontal = 1;
place = "{606, 56}";
type = Stem;
},
{
horizontal = 1;
place = "{614, 25}";
type = Stem;
},
{
horizontal = 1;
place = "{618, 31}";
type = Stem;
},
{
horizontal = 1;
place = "{623, 18}";
type = Stem;
},
{
horizontal = 1;
place = "{641, 12}";
type = Stem;
},
{
horizontal = 1;
place = "{653, 7}";
type = Stem;
}
);
layerId = UUID0;
paths = (
{
closed = 1;
nodes = (
"154 661 OFFCURVE",
"147 662 OFFCURVE",
"140 662 CURVE SMOOTH",
"111 662 OFFCURVE",
"74 659 OFFCURVE",
"42 653 CURVE SMOOTH",
"18 649 OFFCURVE",
"14 629 OFFCURVE",
"14 604 CURVE SMOOTH",
"14 598 OFFCURVE",
"14 593 OFFCURVE",
"15 587 CURVE",
"21 451 OFFCURVE",
"23 327 OFFCURVE",
"37 209 CURVE",
"42 190 OFFCURVE",
"43 160 OFFCURVE",
"43 133 CURVE SMOOTH",
"43 97 LINE SMOOTH",
"43 71 OFFCURVE",
"48 39 OFFCURVE",
"110 39 CURVE SMOOTH",
"134 39 OFFCURVE",
"158 40 OFFCURVE",
"183 43 CURVE SMOOTH",
"235 49 OFFCURVE",
"295 47 OFFCURVE",
"344 64 CURVE SMOOTH",
"362 70 OFFCURVE",
"377 59 OFFCURVE",
"377 92 CURVE",
"374 92 OFFCURVE",
"371 93 OFFCURVE",
"368 93 CURVE",
"363 116 OFFCURVE",
"325 116 OFFCURVE",
"303 116 CURVE SMOOTH",
"243 116 OFFCURVE",
"192 110 OFFCURVE",
"138 106 CURVE",
"138 116 OFFCURVE",
"137 125 OFFCURVE",
"137 135 CURVE",
"136 135 OFFCURVE",
"134 134 OFFCURVE",
"132 134 CURVE",
"134 128 OFFCURVE",
"135 123 OFFCURVE",
"135 118 CURVE SMOOTH",
"135 113 OFFCURVE",
"134 109 OFFCURVE",
"132 105 CURVE",
"129 111 OFFCURVE",
"128 116 OFFCURVE",
"128 122 CURVE SMOOTH",
"128 175 OFFCURVE",
"119 229 OFFCURVE",
"119 283 CURVE",
"129 286 OFFCURVE",
"137 286 OFFCURVE",
"148 286 CURVE SMOOTH",
"182 286 OFFCURVE",
"219 293 OFFCURVE",
"253 300 CURVE SMOOTH",
"274 304 OFFCURVE",
"272 315 OFFCURVE",
"274 332 CURVE",
"234 350 OFFCURVE",
"208 351 OFFCURVE",
"169 351 CURVE SMOOTH",
"156 351 OFFCURVE",
"143 350 OFFCURVE",
"131 350 CURVE SMOOTH",
"125 350 OFFCURVE",
"119 350 OFFCURVE",
"113 351 CURVE",
"111 373 OFFCURVE",
"104 453 OFFCURVE",
"101 475 CURVE SMOOTH",
"100 480 OFFCURVE",
"100 485 OFFCURVE",
"100 491 CURVE SMOOTH",
"100 494 OFFCURVE",
"101 503 OFFCURVE",
"101 512 CURVE SMOOTH",
"101 526 OFFCURVE",
"99 542 OFFCURVE",
"87 546 CURVE",
"97 552 LINE",
"95 567 OFFCURVE",
"93 581 OFFCURVE",
"90 596 CURVE",
"97 598 OFFCURVE",
"105 600 OFFCURVE",
"112 601 CURVE",
"101 606 LINE",
"123 610 OFFCURVE",
"123 613 OFFCURVE",
"131 623 CURVE",
"129 618 OFFCURVE",
"126 613 OFFCURVE",
"123 608 CURVE",
"126 610 OFFCURVE",
"130 612 OFFCURVE",
"134 613 CURVE",
"139 611 OFFCURVE",
"143 607 OFFCURVE",
"147 605 CURVE",
"150 606 OFFCURVE",
"153 606 OFFCURVE",
"157 606 CURVE SMOOTH",
"163 606 OFFCURVE",
"169 605 OFFCURVE",
"176 602 CURVE",
"173 610 LINE",
"188 608 LINE",
"185 615 LINE",
"191 615 OFFCURVE",
"195 607 OFFCURVE",
"203 607 CURVE SMOOTH",
"206 607 OFFCURVE",
"209 611 OFFCURVE",
"212 612 CURVE",
"202 616 LINE",
"235 612 LINE",
"235 614 OFFCURVE",
"235 617 OFFCURVE",
"234 620 CURVE",
"242 616 LINE",
"250 620 OFFCURVE",
"256 619 OFFCURVE",
"264 620 CURVE",
"263 624 OFFCURVE",
"262 628 OFFCURVE",
"260 632 CURVE",
"263 633 OFFCURVE",
"265 635 OFFCURVE",
"267 637 CURVE",
"267 627 LINE",
"271 627 OFFCURVE",
"272 628 OFFCURVE",
"272 634 CURVE",
"277 630 OFFCURVE",
"282 623 OFFCURVE",
"288 623 CURVE SMOOTH",
"299 623 OFFCURVE",
"296 631 OFFCURVE",
"298 639 CURVE",
"288 627 LINE",
"288 632 OFFCURVE",
"288 636 OFFCURVE",
"287 641 CURVE",
"291 641 OFFCURVE",
"295 642 OFFCURVE",
"299 642 CURVE",
"289 654 LINE",
"273 646 LINE",
"267 664 LINE",
"255 659 LINE",
"256 661 OFFCURVE",
"257 663 OFFCURVE",
"257 665 CURVE",
"242 658 LINE",
"242 660 OFFCURVE",
"241 662 OFFCURVE",
"241 663 CURVE",
"234 661 OFFCURVE",
"226 657 OFFCURVE",
"218 657 CURVE SMOOTH",
"215 657 OFFCURVE",
"211 659 OFFCURVE",
"209 660 CURVE",
"199 655 LINE",
"195 663 LINE",
"187 657 OFFCURVE",
"181 656 OFFCURVE",
"172 656 CURVE",
"176 662 LINE",
"171 661 OFFCURVE",
"166 661 OFFCURVE",
"161 661 CURVE SMOOTH",
"161 661 LINE"
);
},
{
closed = 1;
nodes = (
"246 651 LINE",
"257 655 LINE",
"257 648 LINE"
);
},
{
closed = 1;
nodes = (
"214 650 LINE",
"213 653 LINE",
"219 653 LINE"
);
},
{
closed = 1;
nodes = (
"199 643 OFFCURVE",
"201 642 OFFCURVE",
"201 641 CURVE SMOOTH",
"201 640 OFFCURVE",
"200 639 OFFCURVE",
"198 639 CURVE SMOOTH",
"196 639 OFFCURVE",
"195 639 OFFCURVE",
"195 640 CURVE SMOOTH",
"195 641 OFFCURVE",
"196 642 OFFCURVE",
"197 643 CURVE",
"197 643 LINE"
);
},
{
closed = 1;
nodes = (
"62 250 OFFCURVE",
"64 247 OFFCURVE",
"64 245 CURVE SMOOTH",
"64 242 OFFCURVE",
"63 240 OFFCURVE",
"61 237 CURVE",
"60 239 OFFCURVE",
"60 242 OFFCURVE",
"60 245 CURVE SMOOTH",
"60 248 OFFCURVE",
"60 251 OFFCURVE",
"61 254 CURVE",
"61 254 LINE"
);
},
{
closed = 1;
nodes = (
"62 218 OFFCURVE",
"65 214 OFFCURVE",
"68 211 CURVE",
"55 208 LINE",
"55 212 OFFCURVE",
"56 215 OFFCURVE",
"57 219 CURVE",
"57 219 LINE"
);
},
{
closed = 1;
nodes = (
"65 201 OFFCURVE",
"68 197 OFFCURVE",
"69 194 CURVE",
"67 184 OFFCURVE",
"66 177 OFFCURVE",
"53 177 CURVE",
"56 188 OFFCURVE",
"53 197 OFFCURVE",
"63 203 CURVE",
"63 203 LINE"
);
},
{
closed = 1;
nodes = (
"135 167 OFFCURVE",
"132 167 OFFCURVE",
"130 166 CURVE",
"136 141 LINE",
"137 150 OFFCURVE",
"137 158 OFFCURVE",
"137 167 CURVE",
"137 167 LINE"
);
},
{
closed = 1;
nodes = (
"119 122 OFFCURVE",
"120 117 OFFCURVE",
"120 111 CURVE SMOOTH",
"120 107 OFFCURVE",
"118 102 OFFCURVE",
"116 99 CURVE",
"115 101 OFFCURVE",
"114 104 OFFCURVE",
"114 106 CURVE",
"111 106 OFFCURVE",
"108 105 OFFCURVE",
"105 105 CURVE",
"112 112 OFFCURVE",
"112 125 OFFCURVE",
"118 128 CURVE",
"118 128 LINE"
);
}
);
width = 388;
}
);
unicode = 0045;
},
{
glyphname = F;
lastChange = "2019-03-20 22:30:11 +0000";
layers = (
{
hints = (
{
place = "{10, 42}";
type = Stem;
},
{
place = "{14, 11}";
type = Stem;
},
{
place = "{28, 23}";
type = Stem;
},
{
place = "{42, 19}";
type = Stem;
},
{
place = "{58, 18}";
type = Stem;
},
{
place = "{60, 21}";
type = Stem;
},
{
place = "{65, 25}";
type = Stem;
},
{
place = "{78, 8}";
type = Stem;
},
{
place = "{87, 11}";
type = Stem;
},
{
place = "{102, 13}";
type = Stem;
},
{
horizontal = 1;
place = "{-2, 21}";
target = up;
type = BottomGhost;
},
{
horizontal = 1;
place = "{400, 67}";
type = Stem;
},
{
horizontal = 1;
place = "{614, 65}";
type = Stem;
}
);
layerId = UUID0;
paths = (
{
closed = 1;
nodes = (
"253 679 OFFCURVE",
"248 679 OFFCURVE",
"242 679 CURVE SMOOTH",
"231 679 OFFCURVE",
"220 678 OFFCURVE",
"209 678 CURVE SMOOTH",
"177 676 OFFCURVE",
"11 680 OFFCURVE",
"11 618 CURVE SMOOTH",
"11 600 LINE SMOOTH",
"11 585 OFFCURVE",
"10 569 OFFCURVE",
"10 553 CURVE SMOOTH",
"10 503 OFFCURVE",
"14 450 OFFCURVE",
"14 399 CURVE SMOOTH",
"14 282 OFFCURVE",
"19 145 OFFCURVE",
"45 26 CURVE SMOOTH",
"49 9 OFFCURVE",
"59 0 OFFCURVE",
"78 -2 CURVE",
"82 1 OFFCURVE",
"82 5 OFFCURVE",
"82 10 CURVE SMOOTH",
"82 24 OFFCURVE",
"78 38 OFFCURVE",
"77 52 CURVE SMOOTH",
"70 128 OFFCURVE",
"61 207 OFFCURVE",
"61 284 CURVE SMOOTH",
"61 324 OFFCURVE",
"56 360 OFFCURVE",
"56 400 CURVE",
"60 390 OFFCURVE",
"61 381 OFFCURVE",
"61 373 CURVE SMOOTH",
"61 367 OFFCURVE",
"60 362 OFFCURVE",
"60 356 CURVE SMOOTH",
"60 325 OFFCURVE",
"62 286 OFFCURVE",
"65 253 CURVE",
"66 203 OFFCURVE",
"75 8 OFFCURVE",
"91 8 CURVE SMOOTH",
"98 8 OFFCURVE",
"99 17 OFFCURVE",
"99 25 CURVE SMOOTH",
"99 34 LINE SMOOTH",
"99 88 OFFCURVE",
"87 139 OFFCURVE",
"87 190 CURVE SMOOTH",
"87 194 OFFCURVE",
"88 197 OFFCURVE",
"88 201 CURVE",
"90 191 OFFCURVE",
"90 181 OFFCURVE",
"90 172 CURVE SMOOTH",
"92 129 OFFCURVE",
"102 85 OFFCURVE",
"102 43 CURVE SMOOTH",
"102 37 OFFCURVE",
"101 32 OFFCURVE",
"101 26 CURVE SMOOTH",
"101 20 OFFCURVE",
"102 13 OFFCURVE",
"103 6 CURVE",
"106 13 OFFCURVE",
"108 19 OFFCURVE",
"108 26 CURVE SMOOTH",
"108 67 OFFCURVE",
"102 109 OFFCURVE",
"99 149 CURVE SMOOTH",
"94 225 OFFCURVE",
"94 300 OFFCURVE",
"90 376 CURVE SMOOTH",
"90 383 OFFCURVE",
"90 390 OFFCURVE",
"91 398 CURVE",
"94 386 OFFCURVE",
"94 375 OFFCURVE",
"95 364 CURVE SMOOTH",
"99 295 OFFCURVE",
"98 225 OFFCURVE",
"102 160 CURVE SMOOTH",
"104 121 OFFCURVE",
"112 84 OFFCURVE",
"112 46 CURVE SMOOTH",
"112 16 LINE",
"114 25 OFFCURVE",
"115 34 OFFCURVE",
"115 43 CURVE SMOOTH",
"115 52 OFFCURVE",
"114 61 OFFCURVE",
"114 70 CURVE",
"107 141 OFFCURVE",
"104 209 OFFCURVE",
"102 280 CURVE",
"99 317 OFFCURVE",
"98 359 OFFCURVE",
"98 400 CURVE",
"130 403 OFFCURVE",
"251 404 OFFCURVE",
"251 443 CURVE SMOOTH",
"251 466 OFFCURVE",
"195 467 OFFCURVE",
"168 467 CURVE SMOOTH",
"162 467 LINE SMOOTH",
"139 467 OFFCURVE",
"116 466 OFFCURVE",
"92 463 CURVE",
"92 482 OFFCURVE",
"94 502 OFFCURVE",
"94 521 CURVE SMOOTH",
"94 531 OFFCURVE",
"94 541 OFFCURVE",
"92 550 CURVE",
"90 543 OFFCURVE",
"89 537 OFFCURVE",
"89 531 CURVE SMOOTH",
"89 476 LINE SMOOTH",
"89 471 OFFCURVE",
"88 466 OFFCURVE",
"87 461 CURVE",
"86 467 OFFCURVE",
"86 473 OFFCURVE",
"86 479 CURVE SMOOTH",
"86 521 LINE SMOOTH",
"86 549 OFFCURVE",
"83 577 OFFCURVE",
"83 606 CURVE SMOOTH",
"83 613 LINE",
"91 613 LINE SMOOTH",
"106 613 OFFCURVE",
"122 614 OFFCURVE",
"138 614 CURVE SMOOTH",
"190 614 LINE SMOOTH",
"217 614 OFFCURVE",
"356 614 OFFCURVE",
"356 654 CURVE SMOOTH",
"356 680 OFFCURVE",
"277 676 OFFCURVE",
"259 678 CURVE SMOOTH",
"259 678 LINE"
);
},
{
closed = 1;
nodes = (
"36 620 OFFCURVE",
"30 611 OFFCURVE",
"30 602 CURVE SMOOTH",
"30 598 OFFCURVE",
"31 594 OFFCURVE",
"31 589 CURVE SMOOTH",
"31 583 OFFCURVE",
"29 576 OFFCURVE",
"29 569 CURVE SMOOTH",
"29 558 OFFCURVE",
"33 545 OFFCURVE",
"34 533 CURVE",
"29 540 LINE",
"29 534 OFFCURVE",
"28 528 OFFCURVE",
"28 522 CURVE SMOOTH",
"28 510 OFFCURVE",
"29 498 OFFCURVE",
"29 486 CURVE SMOOTH",
"29 481 LINE SMOOTH",
"29 472 OFFCURVE",
"30 464 OFFCURVE",
"30 455 CURVE SMOOTH",
"30 451 OFFCURVE",
"30 447 OFFCURVE",
"29 443 CURVE",
"26 473 OFFCURVE",
"25 504 OFFCURVE",
"25 535 CURVE SMOOTH",
"25 547 OFFCURVE",
"24 561 OFFCURVE",
"24 575 CURVE SMOOTH",
"24 598 OFFCURVE",
"26 621 OFFCURVE",
"36 631 CURVE",
"36 631 LINE"
);
},
{
closed = 1;
nodes = (
"54 617 OFFCURVE",
"54 613 OFFCURVE",
"54 610 CURVE SMOOTH",
"54 600 OFFCURVE",
"56 590 OFFCURVE",
"58 580 CURVE",
"58 445 LINE",
"53 454 LINE",
"53 461 OFFCURVE",
"54 467 OFFCURVE",
"54 473 CURVE SMOOTH",
"54 489 OFFCURVE",
"51 504 OFFCURVE",
"51 520 CURVE SMOOTH",
"51 533 OFFCURVE",
"52 546 OFFCURVE",
"52 559 CURVE SMOOTH",
"52 583 LINE SMOOTH",
"52 595 OFFCURVE",
"52 607 OFFCURVE",
"50 619 CURVE",
"52 620 OFFCURVE",
"53 621 OFFCURVE",
"55 621 CURVE",
"55 621 LINE"
);
},
{
closed = 1;
nodes = (
"77 605 OFFCURVE",
"77 602 OFFCURVE",
"77 599 CURVE SMOOTH",
"77 594 OFFCURVE",
"76 589 OFFCURVE",
"75 584 CURVE",
"69 608 LINE",
"71 608 OFFCURVE",
"73 609 OFFCURVE",
"76 609 CURVE",
"76 609 LINE"
);
},
{
closed = 1;
nodes = (
"77 499 OFFCURVE",
"78 491 OFFCURVE",
"78 484 CURVE SMOOTH",
"78 476 OFFCURVE",
"77 468 OFFCURVE",
"77 460 CURVE",
"76 467 OFFCURVE",
"76 475 OFFCURVE",
"76 483 CURVE SMOOTH",
"76 491 OFFCURVE",
"76 499 OFFCURVE",
"77 507 CURVE SMOOTH",
"77 507 LINE"
);
},
{
closed = 1;
nodes = (
"37 364 OFFCURVE",
"42 309 OFFCURVE",
"42 260 CURVE SMOOTH",
"42 228 LINE SMOOTH",
"42 204 OFFCURVE",
"46 178 OFFCURVE",
"46 155 CURVE SMOOTH",
"46 112 OFFCURVE",
"56 70 OFFCURVE",
"59 28 CURVE",
"46 78 OFFCURVE",
"42 139 OFFCURVE",
"39 195 CURVE",
"33 238 OFFCURVE",
"37 283 OFFCURVE",
"33 327 CURVE",
"33 348 OFFCURVE",
"30 369 OFFCURVE",
"30 390 CURVE SMOOTH",
"30 396 OFFCURVE",
"30 402 OFFCURVE",
"31 409 CURVE",
"31 409 LINE"
);
},
{
closed = 1;
nodes = (
"85 332 OFFCURVE",
"87 287 OFFCURVE",
"87 241 CURVE SMOOTH",
"87 206 LINE",
"85 217 OFFCURVE",
"85 228 OFFCURVE",
"85 239 CURVE SMOOTH",
"85 262 LINE",
"82 300 OFFCURVE",
"81 340 OFFCURVE",
"81 378 CURVE",
"81 378 LINE"
);
}
);
width = 375;
}
);
unicode = 0046;
},
{
glyphname = G;
lastChange = "2019-03-20 22:30:11 +0000";
layers = (
{
hints = (
{
place = "{5, 15}";
type = Stem;
},
{
place = "{25, 24}";
type = Stem;
},
{
place = "{53, 20}";
type = Stem;
},
{
place = "{77, 7}";
type = Stem;
},
{
place = "{274, 59}";
type = Stem;
},
{
place = "{275, 8}";
type = Stem;
},
{
horizontal = 1;
place = "{4, 51}";
type = Stem;
},
{
horizontal = 1;
place = "{296, 55}";
type = Stem;
},
{
horizontal = 1;
place = "{636, 36}";
type = Stem;
}
);
layerId = UUID0;
paths = (
{
closed = 1;
nodes = (
"184 671 OFFCURVE",
"174 672 OFFCURVE",
"164 672 CURVE SMOOTH",
"86 672 OFFCURVE",
"64 595 OFFCURVE",
"46 535 CURVE SMOOTH",
"44 528 LINE SMOOTH",
"21 429 OFFCURVE",
"5 337 OFFCURVE",
"5 239 CURVE SMOOTH",
"5 140 OFFCURVE",
"27 4 OFFCURVE",
"143 4 CURVE SMOOTH",
"179 4 OFFCURVE",
"225 25 OFFCURVE",
"250 50 CURVE SMOOTH",
"311 111 OFFCURVE",
"333 235 OFFCURVE",
"333 328 CURVE SMOOTH",
"333 339 LINE",
"325 292 OFFCURVE",
"325 238 OFFCURVE",
"313 192 CURVE",
"313 233 OFFCURVE",
"327 285 OFFCURVE",
"327 329 CURVE SMOOTH",
"327 351 OFFCURVE",
"307 351 OFFCURVE",
"290 351 CURVE SMOOTH",
"261 351 OFFCURVE",
"134 350 OFFCURVE",
"134 317 CURVE SMOOTH",
"134 297 OFFCURVE",
"171 296 OFFCURVE",
"188 296 CURVE SMOOTH",
"209 296 OFFCURVE",
"230 298 OFFCURVE",
"251 300 CURVE",
"251 298 OFFCURVE",
"250 295 OFFCURVE",
"250 293 CURVE SMOOTH",
"245 262 OFFCURVE",
"241 231 OFFCURVE",
"234 200 CURVE SMOOTH",
"224 152 OFFCURVE",
"193 55 OFFCURVE",
"160 55 CURVE SMOOTH",
"156 55 OFFCURVE",
"151 58 OFFCURVE",
"148 60 CURVE SMOOTH",
"95 93 OFFCURVE",
"93 211 OFFCURVE",
"93 283 CURVE SMOOTH",
"93 373 OFFCURVE",
"110 456 OFFCURVE",
"119 544 CURVE",
"114 531 OFFCURVE",
"112 515 OFFCURVE",
"109 500 CURVE",
"109 499 OFFCURVE",
"108 498 OFFCURVE",
"108 497 CURVE SMOOTH",
"108 496 OFFCURVE",
"107 494 OFFCURVE",
"107 491 CURVE SMOOTH",
"95 422 OFFCURVE",
"88 345 OFFCURVE",
"88 280 CURVE SMOOTH",
"88 251 OFFCURVE",
"89 219 OFFCURVE",
"92 190 CURVE SMOOTH",
"95 167 OFFCURVE",
"100 144 OFFCURVE",
"103 121 CURVE",
"84 159 OFFCURVE",
"84 224 OFFCURVE",
"84 273 CURVE SMOOTH",
"84 280 LINE SMOOTH",
"84 367 OFFCURVE",
"96 449 OFFCURVE",
"110 532 CURVE",
"115 550 OFFCURVE",
"119 571 OFFCURVE",
"129 587 CURVE",
"127 573 OFFCURVE",
"120 560 OFFCURVE",
"118 545 CURVE",
"130 567 OFFCURVE",
"143 636 OFFCURVE",
"184 636 CURVE SMOOTH",
"215 636 OFFCURVE",
"212 566 OFFCURVE",
"229 537 CURVE",
"235 547 LINE",
"238 540 OFFCURVE",
"240 533 OFFCURVE",
"244 527 CURVE",
"250 536 OFFCURVE",
"254 545 OFFCURVE",
"257 555 CURVE",
"257 548 OFFCURVE",
"257 540 OFFCURVE",
"258 533 CURVE",
"263 536 OFFCURVE",
"269 539 OFFCURVE",
"274 543 CURVE",
"276 531 LINE",
"280 540 OFFCURVE",
"283 548 OFFCURVE",
"283 557 CURVE SMOOTH",
"283 614 OFFCURVE",
"243 657 OFFCURVE",
"193 669 CURVE SMOOTH",
"193 669 LINE"
);
},
{
closed = 1;
nodes = (
"58 547 OFFCURVE",
"25 388 OFFCURVE",
"25 235 CURVE SMOOTH",
"25 210 OFFCURVE",
"28 184 OFFCURVE",
"30 159 CURVE",
"25 178 OFFCURVE",
"22 200 OFFCURVE",
"22 220 CURVE SMOOTH",
"22 227 OFFCURVE",
"23 233 OFFCURVE",
"23 240 CURVE SMOOTH",
"23 256 OFFCURVE",
"20 271 OFFCURVE",
"20 287 CURVE SMOOTH",
"20 353 OFFCURVE",
"34 420 OFFCURVE",
"47 483 CURVE SMOOTH",
"50 496 LINE SMOOTH",
"59 543 OFFCURVE",
"69 598 OFFCURVE",
"106 630 CURVE",
"106 630 LINE"
);
},
{
closed = 1;
nodes = (
"97 528 OFFCURVE",
"88 446 OFFCURVE",
"80 369 CURVE SMOOTH",
"78 353 LINE",
"77 356 OFFCURVE",
"77 359 OFFCURVE",
"77 363 CURVE SMOOTH",
"77 408 OFFCURVE",
"91 550 OFFCURVE",
"129 605 CURVE",
"129 605 LINE"
);
},
{
closed = 1;
nodes = (
"94 571 OFFCURVE",
"87 542 OFFCURVE",
"80 513 CURVE",
"69 444 OFFCURVE",
"53 374 OFFCURVE",
"53 305 CURVE SMOOTH",
"53 251 LINE SMOOTH",
"53 233 OFFCURVE",
"55 214 OFFCURVE",
"55 196 CURVE SMOOTH",
"55 171 LINE",
"51 210 OFFCURVE",
"49 254 OFFCURVE",
"49 300 CURVE SMOOTH",
"49 348 OFFCURVE",
"58 392 OFFCURVE",
"65 441 CURVE",
"67 481 OFFCURVE",
"77 559 OFFCURVE",
"106 600 CURVE",
"106 600 LINE"
);
},
{
closed = 1;
nodes = (
"77 343 OFFCURVE",
"77 338 OFFCURVE",
"77 332 CURVE SMOOTH",
"77 308 OFFCURVE",
"76 280 OFFCURVE",
"74 255 CURVE SMOOTH",
"74 263 OFFCURVE",
"73 272 OFFCURVE",
"73 280 CURVE SMOOTH",
"73 303 OFFCURVE",
"74 326 OFFCURVE",
"76 349 CURVE",
"76 349 LINE"
);
},
{
closed = 1;
nodes = (
"270 253 OFFCURVE",
"260 199 OFFCURVE",
"243 152 CURVE",
"245 173 OFFCURVE",
"250 193 OFFCURVE",
"254 214 CURVE SMOOTH",
"259 241 OFFCURVE",
"259 297 OFFCURVE",
"274 305 CURVE",
"274 305 LINE"
);
}
);
width = 340;
}
);
unicode = 0047;
},
{
glyphname = H;
lastChange = "2019-03-20 22:30:11 +0000";
layers = (
{
hints = (
{
place = "{13, 17}";
type = Stem;
},
{
place = "{32, 13}";
type = Stem;
},
{
place = "{35, 27}";
type = Stem;
},
{
place = "{49, 21}";
type = Stem;
},
{
place = "{64, 24}";
type = Stem;
},
{
place = "{72, 31}";
type = Stem;
},
{
place = "{91, 16}";
type = Stem;
},
{
place = "{95, 15}";
type = Stem;
},
{
place = "{188, 10}";
type = Stem;
},
{
place = "{192, 25}";
type = Stem;
},
{
place = "{204, 20}";
type = Stem;
},
{
place = "{232, 21}";
type = Stem;
},
{
place = "{253, 8}";
type = Stem;
},
{
place = "{257, 7}";
type = Stem;
},
{
place = "{266, 7}";
type = Stem;
},
{
horizontal = 1;
place = "{-26, 21}";
target = up;
type = BottomGhost;
},
{
horizontal = 1;
place = "{-23, 21}";
target = up;
type = BottomGhost;
},
{
horizontal = 1;
place = "{-19, 21}";
target = up;
type = BottomGhost;
},
{
horizontal = 1;
place = "{-14, 21}";
target = up;
type = BottomGhost;
},
{
horizontal = 1;
place = "{-11, 21}";
target = up;
type = BottomGhost;
},
{
horizontal = 1;
place = "{-6, 21}";
target = up;
type = BottomGhost;
},
{
horizontal = 1;
place = "{-2, 21}";
target = up;
type = BottomGhost;
},
{
horizontal = 1;
place = "{1, 21}";
target = up;
type = BottomGhost;
},
{
horizontal = 1;
place = "{66, 8}";
type = Stem;
},
{
horizontal = 1;
place = "{370, 44}";
type = Stem;
}
);
layerId = UUID0;
paths = (
{
closed = 1;
nodes = (
"194 682 OFFCURVE",
"192 642 OFFCURVE",
"192 601 CURVE SMOOTH",
"192 504 LINE SMOOTH",
"192 476 OFFCURVE",
"191 449 OFFCURVE",
"189 422 CURVE",
"168 421 OFFCURVE",
"148 415 OFFCURVE",
"127 414 CURVE SMOOTH",
"119 414 OFFCURVE",
"111 414 OFFCURVE",
"103 413 CURVE",
"103 444 OFFCURVE",
"101 477 OFFCURVE",
"101 508 CURVE SMOOTH",
"101 517 OFFCURVE",
"103 527 OFFCURVE",
"103 536 CURVE SMOOTH",
"103 580 OFFCURVE",
"103 632 OFFCURVE",
"93 677 CURVE",
"91 677 OFFCURVE",
"89 676 OFFCURVE",
"88 676 CURVE SMOOTH",
"83 679 OFFCURVE",
"79 683 OFFCURVE",
"75 686 CURVE",
"72 679 OFFCURVE",
"71 673 OFFCURVE",
"71 666 CURVE SMOOTH",
"71 647 OFFCURVE",
"73 628 OFFCURVE",
"73 608 CURVE SMOOTH",
"73 595 OFFCURVE",
"72 581 OFFCURVE",
"72 568 CURVE SMOOTH",
"72 514 OFFCURVE",
"74 464 OFFCURVE",
"74 415 CURVE SMOOTH",
"74 409 OFFCURVE",
"73 404 OFFCURVE",
"67 404 CURVE",
"70 444 OFFCURVE",
"70 485 OFFCURVE",
"70 526 CURVE SMOOTH",
"70 586 LINE SMOOTH",
"70 597 OFFCURVE",
"69 608 OFFCURVE",
"68 618 CURVE SMOOTH",
"68 627 OFFCURVE",
"69 627 OFFCURVE",
"69 645 CURVE SMOOTH",
"69 658 OFFCURVE",
"68 678 OFFCURVE",
"59 687 CURVE",
"50 656 OFFCURVE",
"49 616 OFFCURVE",
"49 580 CURVE SMOOTH",
"49 559 OFFCURVE",
"51 538 OFFCURVE",
"51 517 CURVE SMOOTH",
"51 507 OFFCURVE",
"49 496 OFFCURVE",
"49 484 CURVE SMOOTH",
"49 475 OFFCURVE",
"50 465 OFFCURVE",
"50 455 CURVE SMOOTH",
"50 451 OFFCURVE",
"50 446 OFFCURVE",
"49 442 CURVE",
"50 441 OFFCURVE",
"51 441 OFFCURVE",
"52 441 CURVE",
"41 413 OFFCURVE",
"50 368 OFFCURVE",
"41 330 CURVE",
"40 335 OFFCURVE",
"39 341 OFFCURVE",
"39 347 CURVE SMOOTH",
"39 354 OFFCURVE",
"41 362 OFFCURVE",
"41 369 CURVE SMOOTH",
"41 376 OFFCURVE",
"39 381 OFFCURVE",
"39 389 CURVE SMOOTH",
"39 464 OFFCURVE",
"45 539 OFFCURVE",
"45 615 CURVE SMOOTH",
"45 624 OFFCURVE",
"44 633 OFFCURVE",
"44 642 CURVE SMOOTH",
"44 656 OFFCURVE",
"46 671 OFFCURVE",
"46 688 CURVE",
"34 676 OFFCURVE",
"32 669 OFFCURVE",
"32 652 CURVE SMOOTH",
"32 575 LINE SMOOTH",
"32 451 OFFCURVE",
"13 314 OFFCURVE",
"13 186 CURVE SMOOTH",
"13 167 OFFCURVE",
"13 149 OFFCURVE",
"14 130 CURVE",
"14 131 OFFCURVE",
"13 122 OFFCURVE",
"13 111 CURVE SMOOTH",
"13 95 OFFCURVE",
"15 75 OFFCURVE",
"21 70 CURVE",
"19 66 OFFCURVE",
"19 62 OFFCURVE",
"19 59 CURVE SMOOTH",
"19 46 OFFCURVE",
"22 15 OFFCURVE",
"29 5 CURVE",
"30 11 OFFCURVE",
"32 18 OFFCURVE",
"32 24 CURVE SMOOTH",
"31 64 OFFCURVE",
"30 104 OFFCURVE",
"30 144 CURVE SMOOTH",
"30 162 OFFCURVE",
"31 175 OFFCURVE",
"31 189 CURVE SMOOTH",
"31 239 LINE SMOOTH",
"31 256 OFFCURVE",
"33 273 OFFCURVE",
"38 288 CURVE",
"40 283 OFFCURVE",
"40 279 OFFCURVE",
"40 274 CURVE SMOOTH",
"40 229 OFFCURVE",
"35 217 OFFCURVE",
"35 151 CURVE SMOOTH",
"35 127 OFFCURVE",
"38 103 OFFCURVE",
"38 79 CURVE SMOOTH",
"38 73 OFFCURVE",
"37 64 OFFCURVE",
"37 56 CURVE SMOOTH",
"37 51 OFFCURVE",
"41 49 OFFCURVE",
"46 48 CURVE",
"41 38 OFFCURVE",
"39 29 OFFCURVE",
"39 16 CURVE SMOOTH",
"39 5 OFFCURVE",
"41 2 OFFCURVE",
"51 -6 CURVE",
"53 5 OFFCURVE",
"57 16 OFFCURVE",
"58 27 CURVE SMOOTH",
"58 35 OFFCURVE",
"55 42 OFFCURVE",
"55 50 CURVE SMOOTH",
"55 67 OFFCURVE",
"60 94 OFFCURVE",
"60 121 CURVE SMOOTH",
"60 167 LINE SMOOTH",
"60 212 OFFCURVE",
"62 193 OFFCURVE",
"62 262 CURVE SMOOTH",
"62 298 OFFCURVE",
"70 374 OFFCURVE",
"70 377 CURVE SMOOTH",
"72 369 OFFCURVE",
"73 366 OFFCURVE",
"84 366 CURVE",
"80 363 OFFCURVE",
"77 362 OFFCURVE",
"72 362 CURVE",
"66 325 OFFCURVE",
"65 280 OFFCURVE",
"65 244 CURVE SMOOTH",
"65 202 LINE SMOOTH",
"65 196 OFFCURVE",
"65 191 OFFCURVE",
"66 186 CURVE",
"63 124 OFFCURVE",
"65 63 OFFCURVE",
"62 1 CURVE",
"73 7 OFFCURVE",
"79 10 OFFCURVE",
"79 24 CURVE",
"84 89 OFFCURVE",
"88 131 OFFCURVE",
"88 198 CURVE SMOOTH",
"88 222 OFFCURVE",
"87 249 OFFCURVE",
"87 277 CURVE SMOOTH",
"87 309 OFFCURVE",
"88 341 OFFCURVE",
"93 370 CURVE",
"94 367 OFFCURVE",
"95 363 OFFCURVE",
"95 360 CURVE SMOOTH",
"95 316 OFFCURVE",
"92 273 OFFCURVE",
"92 229 CURVE",
"103 229 OFFCURVE",
"100 295 OFFCURVE",
"101 314 CURVE SMOOTH",
"101 324 OFFCURVE",
"100 334 OFFCURVE",
"100 344 CURVE SMOOTH",
"100 353 OFFCURVE",
"100 362 OFFCURVE",
"107 369 CURVE",
"107 363 OFFCURVE",
"108 357 OFFCURVE",
"108 351 CURVE SMOOTH",
"108 216 OFFCURVE",
"102 170 OFFCURVE",
"102 78 CURVE",
"106 95 OFFCURVE",
"105 111 OFFCURVE",
"107 128 CURVE",
"108 195 OFFCURVE",
"107 240 OFFCURVE",
"110 307 CURVE SMOOTH",
"110 317 OFFCURVE",
"109 327 OFFCURVE",
"109 337 CURVE SMOOTH",
"109 347 OFFCURVE",
"110 357 OFFCURVE",
"112 367 CURVE",
"134 367 OFFCURVE",
"156 370 OFFCURVE",
"179 370 CURVE SMOOTH",
"186 370 OFFCURVE",
"188 367 OFFCURVE",
"188 364 CURVE SMOOTH",
"188 257 OFFCURVE",
"184 209 OFFCURVE",
"184 124 CURVE SMOOTH",
"184 116 OFFCURVE",
"183 99 OFFCURVE",
"183 78 CURVE SMOOTH",
"183 42 OFFCURVE",
"186 -3 OFFCURVE",
"206 -23 CURVE",
"206 -12 OFFCURVE",
"207 -1 OFFCURVE",
"207 9 CURVE SMOOTH",
"207 52 OFFCURVE",
"199 94 OFFCURVE",
"199 139 CURVE SMOOTH",
"199 139 OFFCURVE",
"198 221 OFFCURVE",
"198 246 CURVE SMOOTH",
"198 270 OFFCURVE",
"199 298 OFFCURVE",
"204 320 CURVE",
"206 314 OFFCURVE",
"206 307 OFFCURVE",
"206 300 CURVE SMOOTH",
"206 252 OFFCURVE",
"204 209 OFFCURVE",
"204 160 CURVE SMOOTH",
"204 101 OFFCURVE",
"212 69 OFFCURVE",
"212 8 CURVE SMOOTH",
"212 -1 LINE SMOOTH",
"212 -13 OFFCURVE",
"213 -23 OFFCURVE",
"226 -26 CURVE",
"229 -15 OFFCURVE",
"232 -4 OFFCURVE",
"232 8 CURVE SMOOTH",
"232 84 OFFCURVE",
"224 124 OFFCURVE",
"224 294 CURVE SMOOTH",
"224 315 OFFCURVE",
"226 336 OFFCURVE",
"231 353 CURVE",
"232 345 OFFCURVE",
"232 337 OFFCURVE",
"232 329 CURVE SMOOTH",
"232 324 OFFCURVE",
"231 319 OFFCURVE",
"231 314 CURVE SMOOTH",
"231 304 OFFCURVE",
"232 294 OFFCURVE",
"232 284 CURVE SMOOTH",
"232 267 OFFCURVE",
"231 250 OFFCURVE",
"231 234 CURVE SMOOTH",
"231 223 OFFCURVE",
"232 212 OFFCURVE",
"232 202 CURVE SMOOTH",
"232 195 OFFCURVE",
"232 213 OFFCURVE",
"232 51 CURVE SMOOTH",
"232 28 OFFCURVE",
"233 -11 OFFCURVE",
"240 -14 CURVE",
"247 -10 OFFCURVE",
"253 -6 OFFCURVE",
"253 3 CURVE SMOOTH",
"253 153 LINE SMOOTH",
"253 167 OFFCURVE",
"253 184 OFFCURVE",
"249 196 CURVE",
"256 192 OFFCURVE",
"257 175 OFFCURVE",
"257 155 CURVE SMOOTH",
"257 99 OFFCURVE",
"254 74 OFFCURVE",
"254 34 CURVE SMOOTH",
"254 16 OFFCURVE",
"255 -2 OFFCURVE",
"258 -19 CURVE",
"263 -4 OFFCURVE",
"264 25 OFFCURVE",
"264 54 CURVE SMOOTH",
"264 83 OFFCURVE",
"263 105 OFFCURVE",
"263 130 CURVE SMOOTH",
"263 153 OFFCURVE",
"264 155 OFFCURVE",
"264 178 CURVE SMOOTH",
"264 223 OFFCURVE",
"261 264 OFFCURVE",
"261 311 CURVE SMOOTH",
"261 316 OFFCURVE",
"262 322 OFFCURVE",
"262 328 CURVE SMOOTH",
"262 336 OFFCURVE",
"261 343 OFFCURVE",
"259 351 CURVE",
"261 358 OFFCURVE",
"262 365 OFFCURVE",
"262 372 CURVE SMOOTH",
"262 382 OFFCURVE",
"260 391 OFFCURVE",
"260 401 CURVE SMOOTH",
"260 487 OFFCURVE",
"264 572 OFFCURVE",
"264 658 CURVE SMOOTH",
"264 678 OFFCURVE",
"255 681 OFFCURVE",
"244 691 CURVE",
"238 678 LINE",
"238 684 OFFCURVE",
"237 690 OFFCURVE",
"236 696 CURVE",
"228 696 OFFCURVE",
"223 681 OFFCURVE",
"219 673 CURVE",
"218 681 OFFCURVE",
"217 690 OFFCURVE",
"217 698 CURVE",
"217 698 LINE"
);
},
{
closed = 1;
nodes = (
"93 592 OFFCURVE",
"95 580 OFFCURVE",
"95 570 CURVE SMOOTH",
"95 564 OFFCURVE",
"94 549 OFFCURVE",
"93 549 CURVE SMOOTH",
"93 549 OFFCURVE",
"93 550 OFFCURVE",
"93 552 CURVE SMOOTH",
"92 562 OFFCURVE",
"90 570 OFFCURVE",
"90 579 CURVE SMOOTH",
"90 586 OFFCURVE",
"91 594 OFFCURVE",
"93 601 CURVE",
"93 601 LINE"
);
},
{
closed = 1;
nodes = (
"107 564 OFFCURVE",
"107 554 OFFCURVE",
"107 544 CURVE SMOOTH",
"108 532 OFFCURVE",
"107 521 OFFCURVE",
"109 509 CURVE",
"109 519 OFFCURVE",
"110 530 OFFCURVE",
"110 541 CURVE SMOOTH",
"110 552 OFFCURVE",
"109 562 OFFCURVE",
"109 573 CURVE",
"109 573 LINE"
);
},
{
closed = 1;
nodes = (
"98 483 OFFCURVE",
"98 451 OFFCURVE",
"98 425 CURVE SMOOTH",
"98 418 OFFCURVE",
"97 411 OFFCURVE",
"91 411 CURVE",
"90 413 OFFCURVE",
"90 416 OFFCURVE",
"90 418 CURVE SMOOTH",
"90 427 OFFCURVE",
"94 449 OFFCURVE",
"94 466 CURVE SMOOTH",
"94 474 OFFCURVE",
"93 483 OFFCURVE",
"93 492 CURVE SMOOTH",
"93 498 OFFCURVE",
"93 504 OFFCURVE",
"95 510 CURVE",
"95 510 LINE"
);
},
{
closed = 1;
nodes = (
"206 374 OFFCURVE",
"208 371 OFFCURVE",
"208 367 CURVE SMOOTH",
"208 362 OFFCURVE",
"205 356 OFFCURVE",
"204 352 CURVE",
"203 360 OFFCURVE",
"203 368 OFFCURVE",
"203 376 CURVE",
"203 376 LINE"
);
},
{
closed = 1;
nodes = (
"206 348 OFFCURVE",
"206 343 OFFCURVE",
"206 338 CURVE SMOOTH",
"206 333 OFFCURVE",
"206 327 OFFCURVE",
"204 321 CURVE",
"203 325 OFFCURVE",
"202 330 OFFCURVE",
"202 334 CURVE SMOOTH",
"202 340 OFFCURVE",
"203 346 OFFCURVE",
"205 353 CURVE",
"205 353 LINE"
);
},
{
closed = 1;
nodes = (
"41 321 OFFCURVE",
"41 317 OFFCURVE",
"41 313 CURVE SMOOTH",
"41 307 OFFCURVE",
"40 302 OFFCURVE",
"38 297 CURVE",
"38 301 OFFCURVE",
"37 304 OFFCURVE",
"37 307 CURVE SMOOTH",
"37 313 OFFCURVE",
"38 319 OFFCURVE",
"40 325 CURVE",
"40 325 LINE"
);
},
{
closed = 1;
nodes = (
"255 292 OFFCURVE",
"255 287 OFFCURVE",
"255 281 CURVE SMOOTH",
"255 274 OFFCURVE",
"253 267 OFFCURVE",
"253 260 CURVE SMOOTH",
"253 253 OFFCURVE",
"255 246 OFFCURVE",
"255 238 CURVE SMOOTH",
"255 233 OFFCURVE",
"254 229 OFFCURVE",
"252 224 CURVE",
"247 244 OFFCURVE",
"250 267 OFFCURVE",
"248 289 CURVE",
"249 289 OFFCURVE",
"251 290 OFFCURVE",
"252 290 CURVE",
"248 295 LINE",
"253 298 LINE"
);
},
{
closed = 1;
nodes = (
"269 228 OFFCURVE",
"268 224 OFFCURVE",
"268 219 CURVE SMOOTH",
"268 209 OFFCURVE",
"269 200 OFFCURVE",
"269 190 CURVE SMOOTH",
"269 174 OFFCURVE",
"268 158 OFFCURVE",
"268 142 CURVE SMOOTH",
"268 110 OFFCURVE",
"269 101 OFFCURVE",
"269 69 CURVE SMOOTH",
"269 51 OFFCURVE",
"266 34 OFFCURVE",
"266 17 CURVE SMOOTH",
"266 7 OFFCURVE",
"267 -2 OFFCURVE",
"267 -11 CURVE",
"273 13 OFFCURVE",
"273 55 OFFCURVE",
"273 86 CURVE SMOOTH",
"273 131 OFFCURVE",
"272 156 OFFCURVE",
"272 203 CURVE SMOOTH",
"272 213 OFFCURVE",
"272 223 OFFCURVE",
"269 233 CURVE",
"269 233 LINE"
);
},
{
closed = 1;
nodes = (
"91 158 OFFCURVE",
"91 123 OFFCURVE",
"86 60 CURVE",
"86 44 OFFCURVE",
"83 28 OFFCURVE",
"83 12 CURVE SMOOTH",
"83 8 OFFCURVE",
"83 3 OFFCURVE",
"84 -2 CURVE",
"91 19 OFFCURVE",
"91 42 OFFCURVE",
"93 64 CURVE SMOOTH",
"99 125 OFFCURVE",
"97 167 OFFCURVE",
"99 228 CURVE",
"97 228 OFFCURVE",
"94 224 OFFCURVE",
"91 224 CURVE",
"91 224 LINE"
);
},
{
closed = 1;
nodes = (
"99 73 OFFCURVE",
"98 71 OFFCURVE",
"98 69 CURVE SMOOTH",
"98 68 OFFCURVE",
"98 66 OFFCURVE",
"99 66 CURVE SMOOTH",
"101 66 OFFCURVE",
"102 68 OFFCURVE",
"102 71 CURVE SMOOTH",
"102 73 OFFCURVE",
"102 74 OFFCURVE",
"100 74 CURVE",
"100 74 LINE"
);
}
);
width = 287;
}
);
unicode = 0048;
},
{
glyphname = I;
lastChange = "2019-03-20 22:30:11 +0000";
layers = (
{
hints = (
{
place = "{30, 34}";
type = Stem;
},
{
place = "{37, 58}";
type = Stem;
},
{
place = "{44, 56}";
type = Stem;
},
{
place = "{101, 22}";
type = Stem;
},
{
place = "{125, 10}";
type = Stem;
},
{
place = "{127, 13}";
type = Stem;
},
{
place = "{131, 17}";
type = Stem;
},
{
place = "{137, 7}";
type = Stem;
},
{
place = "{148, 8}";
type = Stem;
},
{
horizontal = 1;
place = "{269, 11}";
type = Stem;
},
{
horizontal = 1;
place = "{327, 7}";
type = Stem;
},
{
horizontal = 1;
place = "{373, 20}";
type = Stem;
}
);
layerId = UUID0;
paths = (
{
closed = 1;
nodes = (
"33 683 OFFCURVE",
"30 646 OFFCURVE",
"30 611 CURVE SMOOTH",
"30 585 LINE SMOOTH",
"30 545 OFFCURVE",
"33 470 OFFCURVE",
"37 439 CURVE",
"37 413 LINE SMOOTH",
"37 386 OFFCURVE",
"43 352 OFFCURVE",
"43 330 CURVE SMOOTH",
"43 321 OFFCURVE",
"42 313 OFFCURVE",
"42 304 CURVE",
"44 285 OFFCURVE",
"44 266 OFFCURVE",
"44 246 CURVE SMOOTH",
"44 206 LINE SMOOTH",
"44 188 OFFCURVE",
"45 169 OFFCURVE",
"46 151 CURVE SMOOTH",
"49 115 OFFCURVE",
"50 35 OFFCURVE",
"83 9 CURVE",
"83 13 OFFCURVE",
"84 17 OFFCURVE",
"85 22 CURVE",
"90 12 OFFCURVE",
"90 6 OFFCURVE",
"104 2 CURVE",
"107 9 OFFCURVE",
"109 17 OFFCURVE",
"110 25 CURVE",
"113 20 OFFCURVE",
"116 16 OFFCURVE",
"119 12 CURVE",
"129 17 OFFCURVE",
"132 22 OFFCURVE",
"136 32 CURVE",
"137 24 OFFCURVE",
"137 16 OFFCURVE",
"139 8 CURVE",
"144 18 OFFCURVE",
"145 29 OFFCURVE",
"145 39 CURVE SMOOTH",
"145 69 LINE SMOOTH",
"145 82 OFFCURVE",
"146 95 OFFCURVE",
"146 107 CURVE SMOOTH",
"146 133 OFFCURVE",
"144 160 OFFCURVE",
"144 184 CURVE SMOOTH",
"144 197 LINE SMOOTH",
"144 201 OFFCURVE",
"144 205 OFFCURVE",
"143 209 CURVE",
"143 216 OFFCURVE",
"144 223 OFFCURVE",
"146 230 CURVE",
"148 225 OFFCURVE",
"149 221 OFFCURVE",
"149 216 CURVE SMOOTH",
"149 192 LINE SMOOTH",
"149 181 OFFCURVE",
"151 169 OFFCURVE",
"151 158 CURVE SMOOTH",
"151 140 LINE SMOOTH",
"151 130 OFFCURVE",
"152 121 OFFCURVE",
"152 111 CURVE SMOOTH",
"152 90 OFFCURVE",
"148 70 OFFCURVE",
"148 48 CURVE SMOOTH",
"148 40 OFFCURVE",
"149 31 OFFCURVE",
"151 23 CURVE",
"156 35 OFFCURVE",
"156 68 OFFCURVE",
"156 89 CURVE SMOOTH",
"156 128 LINE SMOOTH",
"156 147 OFFCURVE",
"154 167 OFFCURVE",
"154 186 CURVE SMOOTH",
"154 213 LINE SMOOTH",
"154 234 OFFCURVE",
"153 256 OFFCURVE",
"151 277 CURVE",
"150 274 OFFCURVE",
"147 270 OFFCURVE",
"147 266 CURVE SMOOTH",
"147 260 OFFCURVE",
"149 254 OFFCURVE",
"149 248 CURVE SMOOTH",
"149 243 OFFCURVE",
"148 237 OFFCURVE",
"145 232 CURVE",
"140 251 OFFCURVE",
"140 279 OFFCURVE",
"140 302 CURVE SMOOTH",
"140 328 LINE SMOOTH",
"140 341 OFFCURVE",
"135 352 OFFCURVE",
"135 366 CURVE SMOOTH",
"135 380 OFFCURVE",
"136 395 OFFCURVE",
"137 409 CURVE",
"146 409 OFFCURVE",
"144 406 OFFCURVE",
"148 404 CURVE",
"146 459 OFFCURVE",
"144 512 OFFCURVE",
"138 568 CURVE SMOOTH",
"135 595 OFFCURVE",
"138 623 OFFCURVE",
"131 650 CURVE",
"128 637 LINE",
"123 663 OFFCURVE",
"113 665 OFFCURVE",
"98 677 CURVE",
"90 662 LINE",
"90 672 OFFCURVE",
"89 678 OFFCURVE",
"79 685 CURVE",
"74 678 OFFCURVE",
"71 670 OFFCURVE",
"67 663 CURVE",
"66 671 OFFCURVE",
"64 680 OFFCURVE",
"64 689 CURVE",
"64 689 LINE"
);
},
{
closed = 1;
nodes = (
"96 427 OFFCURVE",
"100 424 OFFCURVE",
"102 421 CURVE",
"102 418 OFFCURVE",
"101 414 OFFCURVE",
"100 412 CURVE",
"102 403 OFFCURVE",
"100 400 OFFCURVE",
"110 395 CURVE",
"107 394 OFFCURVE",
"104 393 OFFCURVE",
"101 393 CURVE",
"103 381 LINE",
"98 374 LINE",
"101 373 OFFCURVE",
"104 373 OFFCURVE",
"107 373 CURVE",
"104 368 OFFCURVE",
"101 360 OFFCURVE",
"101 352 CURVE SMOOTH",
"101 347 OFFCURVE",
"103 342 OFFCURVE",
"105 337 CURVE",
"99 343 LINE",
"97 342 OFFCURVE",
"95 342 OFFCURVE",
"94 341 CURVE SMOOTH",
"97 351 LINE",
"86 348 LINE",
"96 357 LINE",
"94 367 OFFCURVE",
"91 380 OFFCURVE",
"91 391 CURVE SMOOTH",
"91 401 OFFCURVE",
"95 411 OFFCURVE",
"95 422 CURVE SMOOTH",
"95 424 OFFCURVE",
"94 426 OFFCURVE",
"94 429 CURVE",
"94 429 LINE"
);
},
{
closed = 1;
nodes = (
"122 409 OFFCURVE",
"124 409 OFFCURVE",
"124 401 CURVE",
"115 409 LINE"
);
},
{
closed = 1;
nodes = (
"128 389 OFFCURVE",
"122 389 OFFCURVE",
"116 385 CURVE",
"121 401 LINE",
"131 396 LINE"
);
},
{
closed = 1;
nodes = (
"124 370 OFFCURVE",
"125 363 OFFCURVE",
"125 356 CURVE",
"122 363 OFFCURVE",
"119 369 OFFCURVE",
"114 375 CURVE",
"120 379 OFFCURVE",
"125 382 OFFCURVE",
"132 384 CURVE",
"123 377 LINE"
);
},
{
closed = 1;
nodes = (
"131 349 OFFCURVE",
"133 345 OFFCURVE",
"133 334 CURVE",
"130 334 OFFCURVE",
"126 334 OFFCURVE",
"123 333 CURVE",
"123 353 LINE"
);
},
{
closed = 1;
nodes = (
"65 334 OFFCURVE",
"72 330 OFFCURVE",
"72 321 CURVE",
"66 326 OFFCURVE",
"60 332 OFFCURVE",
"56 339 CURVE",
"56 339 LINE"
);
},
{
closed = 1;
nodes = (
"133 327 OFFCURVE",
"134 326 OFFCURVE",
"134 324 CURVE SMOOTH",
"134 322 OFFCURVE",
"132 321 OFFCURVE",
"130 321 CURVE SMOOTH",
"128 321 OFFCURVE",
"127 323 OFFCURVE",
"127 324 CURVE SMOOTH",
"127 325 OFFCURVE",
"127 326 OFFCURVE",
"128 327 CURVE",
"128 327 LINE"
);
},
{
closed = 1;
nodes = (
"127 304 LINE",
"121 314 LINE",
"127 321 LINE"
);
},
{
closed = 1;
nodes = (
"97 280 LINE",
"100 296 LINE",
"106 280 LINE"
);
},
{
closed = 1;
nodes = (
"100 254 LINE",
"100 269 LINE",
"106 266 LINE"
);
},
{
closed = 1;
nodes = (
"106 192 OFFCURVE",
"107 191 OFFCURVE",
"107 189 CURVE SMOOTH",
"107 187 OFFCURVE",
"106 185 OFFCURVE",
"104 185 CURVE SMOOTH",
"102 185 OFFCURVE",
"101 187 OFFCURVE",
"101 189 CURVE SMOOTH",
"101 190 OFFCURVE",
"101 191 OFFCURVE",
"102 192 CURVE",
"102 192 LINE"
);
}
);
width = 172;
}
);
unicode = 0049;
},
{
glyphname = J;
lastChange = "2019-03-20 22:30:11 +0000";
layers = (
{
hints = (
{
place = "{15, 16}";
type = Stem;
},
{
place = "{39, 26}";
type = Stem;
},
{
place = "{65, 21}";
type = Stem;
},
{
place = "{107, 9}";
type = Stem;
},
{
place = "{195, 23}";
type = Stem;
},
{
place = "{218, 40}";
type = Stem;
},
{
place = "{222, 24}";
type = Stem;
},
{
place = "{242, 11}";
type = Stem;
},
{
place = "{248, 16}";
type = Stem;
},
{
place = "{263, 8}";
type = Stem;
},
{
place = "{272, 16}";
type = Stem;
},
{
horizontal = 1;
place = "{14, 65}";
type = Stem;
},
{
horizontal = 1;
place = "{401, 7}";
type = Stem;
},
{
horizontal = 1;
place = "{415, 7}";
type = Stem;
},
{
horizontal = 1;
place = "{607, 68}";
type = Stem;
}
);
layerId = UUID0;
paths = (
{
closed = 1;
nodes = (
"196 672 OFFCURVE",
"164 668 OFFCURVE",
"132 665 CURVE SMOOTH",
"91 661 OFFCURVE",
"4 659 OFFCURVE",
"4 619 CURVE SMOOTH",
"4 602 OFFCURVE",
"37 593 OFFCURVE",
"39 593 CURVE SMOOTH",
"71 593 LINE SMOOTH",
"113 593 OFFCURVE",
"155 597 OFFCURVE",
"197 599 CURVE",
"197 592 LINE SMOOTH",
"197 584 OFFCURVE",
"196 575 OFFCURVE",
"196 566 CURVE SMOOTH",
"196 557 OFFCURVE",
"197 548 OFFCURVE",
"200 539 CURVE",
"198 534 OFFCURVE",
"196 529 OFFCURVE",
"196 523 CURVE SMOOTH",
"196 517 OFFCURVE",
"197 511 OFFCURVE",
"197 505 CURVE SMOOTH",
"197 494 OFFCURVE",
"195 484 OFFCURVE",
"195 469 CURVE SMOOTH",
"195 366 OFFCURVE",
"203 292 OFFCURVE",
"203 228 CURVE SMOOTH",
"203 179 OFFCURVE",
"200 113 OFFCURVE",
"174 79 CURVE",
"130 118 OFFCURVE",
"127 174 OFFCURVE",
"117 220 CURVE",
"111 211 LINE",
"103 245 OFFCURVE",
"105 291 OFFCURVE",
"91 314 CURVE",
"86 309 LINE",
"80 317 OFFCURVE",
"77 319 OFFCURVE",
"67 322 CURVE",
"65 307 OFFCURVE",
"65 293 OFFCURVE",
"65 278 CURVE",
"60 293 OFFCURVE",
"61 308 OFFCURVE",
"58 324 CURVE",
"39 319 OFFCURVE",
"49 297 OFFCURVE",
"39 284 CURVE",
"39 282 OFFCURVE",
"40 279 OFFCURVE",
"41 276 CURVE",
"39 276 OFFCURVE",
"37 276 OFFCURVE",
"35 275 CURVE",
"32 284 OFFCURVE",
"31 293 OFFCURVE",
"31 302 CURVE SMOOTH",
"31 309 OFFCURVE",
"32 316 OFFCURVE",
"32 324 CURVE",
"20 317 OFFCURVE",
"15 304 OFFCURVE",
"15 291 CURVE SMOOTH",
"15 276 OFFCURVE",
"18 254 OFFCURVE",
"22 239 CURVE SMOOTH",
"38 177 OFFCURVE",
"59 14 OFFCURVE",
"164 14 CURVE SMOOTH",
"280 14 OFFCURVE",
"288 125 OFFCURVE",
"288 215 CURVE SMOOTH",
"288 259 OFFCURVE",
"287 305 OFFCURVE",
"286 348 CURVE",
"280 346 LINE",
"280 332 OFFCURVE",
"283 317 OFFCURVE",
"283 303 CURVE SMOOTH",
"283 297 OFFCURVE",
"282 291 OFFCURVE",
"282 285 CURVE SMOOTH",
"282 264 OFFCURVE",
"286 244 OFFCURVE",
"286 224 CURVE SMOOTH",
"286 188 OFFCURVE",
"283 116 OFFCURVE",
"261 77 CURVE",
"273 136 OFFCURVE",
"281 189 OFFCURVE",
"281 248 CURVE SMOOTH",
"281 284 OFFCURVE",
"273 321 OFFCURVE",
"273 358 CURVE SMOOTH",
"273 363 OFFCURVE",
"273 368 OFFCURVE",
"274 373 CURVE",
"270 373 OFFCURVE",
"267 373 OFFCURVE",
"264 374 CURVE",
"265 367 OFFCURVE",
"266 360 OFFCURVE",
"266 354 CURVE SMOOTH",
"266 348 OFFCURVE",
"265 343 OFFCURVE",
"264 337 CURVE",
"259 359 OFFCURVE",
"264 382 OFFCURVE",
"256 401 CURVE",
"258 402 OFFCURVE",
"259 404 OFFCURVE",
"260 406 CURVE",
"264 403 LINE",
"264 399 OFFCURVE",
"263 395 OFFCURVE",
"263 391 CURVE SMOOTH",
"263 385 OFFCURVE",
"265 379 OFFCURVE",
"271 374 CURVE",
"271 390 OFFCURVE",
"270 406 OFFCURVE",
"268 422 CURVE",
"265 420 OFFCURVE",
"261 419 OFFCURVE",
"258 418 CURVE",
"257 427 OFFCURVE",
"253 484 OFFCURVE",
"253 492 CURVE",
"256 489 OFFCURVE",
"263 437 OFFCURVE",
"266 434 CURVE",
"266 515 OFFCURVE",
"258 524 OFFCURVE",
"258 563 CURVE SMOOTH",
"258 568 OFFCURVE",
"260 574 OFFCURVE",
"260 579 CURVE SMOOTH",
"260 584 OFFCURVE",
"259 590 OFFCURVE",
"259 595 CURVE SMOOTH",
"259 606 OFFCURVE",
"269 607 OFFCURVE",
"278 607 CURVE SMOOTH",
"285 607 LINE SMOOTH",
"325 607 OFFCURVE",
"354 621 OFFCURVE",
"387 626 CURVE",
"388 631 OFFCURVE",
"391 636 OFFCURVE",
"391 642 CURVE SMOOTH",
"391 674 OFFCURVE",
"327 675 OFFCURVE",
"278 675 CURVE SMOOTH",
"258 675 LINE SMOOTH",
"248 675 OFFCURVE",
"239 675 OFFCURVE",
"229 674 CURVE SMOOTH",
"229 674 LINE"
);
},
{
closed = 1;
nodes = (
"254 599 OFFCURVE",
"255 598 OFFCURVE",
"255 596 CURVE SMOOTH",
"255 594 OFFCURVE",
"254 592 OFFCURVE",
"252 592 CURVE SMOOTH",
"250 592 OFFCURVE",
"248 594 OFFCURVE",
"248 596 CURVE SMOOTH",
"248 597 OFFCURVE",
"248 598 OFFCURVE",
"249 599 CURVE",
"249 599 LINE"
);
},
{
closed = 1;
nodes = (
"217 558 OFFCURVE",
"218 553 OFFCURVE",
"218 543 CURVE SMOOTH",
"218 536 OFFCURVE",
"218 528 OFFCURVE",
"217 521 CURVE",
"219 520 OFFCURVE",
"220 519 OFFCURVE",
"221 517 CURVE",
"220 510 OFFCURVE",
"218 502 OFFCURVE",
"212 496 CURVE",
"208 508 OFFCURVE",
"208 520 OFFCURVE",
"208 532 CURVE SMOOTH",
"208 544 OFFCURVE",
"208 553 OFFCURVE",
"212 564 CURVE",
"212 564 LINE"
);
},
{
closed = 1;
nodes = (
"238 513 OFFCURVE",
"242 468 OFFCURVE",
"242 428 CURVE",
"240 433 OFFCURVE",
"233 486 OFFCURVE",
"231 491 CURVE",
"233 494 OFFCURVE",
"233 497 OFFCURVE",
"233 500 CURVE SMOOTH",
"233 504 OFFCURVE",
"232 508 OFFCURVE",
"232 512 CURVE SMOOTH",
"232 515 OFFCURVE",
"233 518 OFFCURVE",
"235 521 CURVE",
"235 521 LINE"
);
},
{
closed = 1;
nodes = (
"259 512 OFFCURVE",
"259 501 OFFCURVE",
"260 494 CURVE",
"251 494 OFFCURVE",
"250 495 OFFCURVE",
"250 501 CURVE SMOOTH",
"250 505 OFFCURVE",
"250 509 OFFCURVE",
"253 515 CURVE",
"253 515 LINE"
);
},
{
closed = 1;
nodes = (
"246 419 OFFCURVE",
"245 411 OFFCURVE",
"240 403 CURVE",
"239 407 OFFCURVE",
"236 412 OFFCURVE",
"236 416 CURVE",
"238 421 OFFCURVE",
"242 425 OFFCURVE",
"246 428 CURVE",
"246 428 LINE"
);
},
{
closed = 1;
nodes = (
"259 415 OFFCURVE",
"261 415 OFFCURVE",
"264 416 CURVE",
"263 413 OFFCURVE",
"263 411 OFFCURVE",
"263 408 CURVE",
"254 408 OFFCURVE",
"258 411 OFFCURVE",
"256 415 CURVE",
"256 415 LINE"
);
},
{
closed = 1;
nodes = (
"222 402 OFFCURVE",
"222 391 OFFCURVE",
"223 380 CURVE",
"220 379 OFFCURVE",
"218 378 OFFCURVE",
"215 378 CURVE",
"213 384 OFFCURVE",
"212 390 OFFCURVE",
"212 396 CURVE SMOOTH",
"212 406 OFFCURVE",
"216 407 OFFCURVE",
"222 413 CURVE",
"222 413 LINE"
);
},
{
closed = 1;
nodes = (
"246 374 OFFCURVE",
"248 345 OFFCURVE",
"248 315 CURVE SMOOTH",
"248 272 LINE SMOOTH",
"248 261 OFFCURVE",
"250 249 OFFCURVE",
"250 237 CURVE SMOOTH",
"250 211 OFFCURVE",
"250 174 OFFCURVE",
"242 147 CURVE",
"246 195 OFFCURVE",
"246 245 OFFCURVE",
"246 293 CURVE",
"244 325 OFFCURVE",
"238 356 OFFCURVE",
"238 388 CURVE SMOOTH",
"238 398 OFFCURVE",
"239 399 OFFCURVE",
"246 406 CURVE",
"246 406 LINE"
);
},
{
closed = 1;
nodes = (
"220 370 OFFCURVE",
"220 365 OFFCURVE",
"220 359 CURVE SMOOTH",
"220 352 OFFCURVE",
"219 345 OFFCURVE",
"219 339 CURVE",
"225 337 LINE",
"222 336 OFFCURVE",
"220 335 OFFCURVE",
"219 333 CURVE SMOOTH",
"219 331 OFFCURVE",
"220 329 OFFCURVE",
"220 326 CURVE",
"228 330 LINE",
"225 325 OFFCURVE",
"221 320 OFFCURVE",
"221 314 CURVE SMOOTH",
"221 307 OFFCURVE",
"226 296 OFFCURVE",
"227 288 CURVE",
"225 287 OFFCURVE",
"223 287 OFFCURVE",
"221 287 CURVE",
"221 280 OFFCURVE",
"222 274 OFFCURVE",
"224 268 CURVE",
"223 263 OFFCURVE",
"222 258 OFFCURVE",
"220 253 CURVE",
"226 243 LINE",
"224 243 OFFCURVE",
"222 242 OFFCURVE",
"220 242 CURVE",
"222 227 OFFCURVE",
"222 212 OFFCURVE",
"222 197 CURVE SMOOTH",
"222 193 LINE SMOOTH",
"222 157 OFFCURVE",
"222 111 OFFCURVE",
"200 84 CURVE",
"208 151 OFFCURVE",
"218 206 OFFCURVE",
"218 270 CURVE SMOOTH",
"218 301 OFFCURVE",
"214 331 OFFCURVE",
"214 362 CURVE SMOOTH",
"214 367 OFFCURVE",
"215 371 OFFCURVE",
"218 376 CURVE",
"218 376 LINE"
);
},
{
closed = 1;
nodes = (
"107 289 OFFCURVE",
"107 282 OFFCURVE",
"107 275 CURVE SMOOTH",
"107 257 OFFCURVE",
"109 239 OFFCURVE",
"116 222 CURVE",
"114 244 OFFCURVE",
"112 271 OFFCURVE",
"108 296 CURVE",
"108 296 LINE"
);
},
{
closed = 1;
nodes = (
"72 247 OFFCURVE",
"72 242 OFFCURVE",
"72 236 CURVE",
"68 240 OFFCURVE",
"67 242 OFFCURVE",
"67 246 CURVE SMOOTH",
"67 247 OFFCURVE",
"68 249 OFFCURVE",
"68 252 CURVE",
"68 252 LINE"
);
},
{
closed = 1;
nodes = (
"271 220 OFFCURVE",
"272 212 OFFCURVE",
"272 204 CURVE SMOOTH",
"272 169 OFFCURVE",
"268 113 OFFCURVE",
"250 90 CURVE",
"268 143 OFFCURVE",
"262 182 OFFCURVE",
"271 228 CURVE",
"271 228 LINE"
);
}
);
width = 415;
}
);
unicode = 004A;
},
{
glyphname = K;
lastChange = "2019-03-20 22:30:11 +0000";
layers = (
{
hints = (
{
place = "{17, 20}";
type = Stem;
},
{
place = "{18, 81}";
type = Stem;
},
{
place = "{112, 15}";
type = Stem;
},
{
place = "{131, 8}";
type = Stem;
},
{
place = "{318, 8}";
type = Stem;
},
{
place = "{368, 13}";
type = Stem;
},
{
horizontal = 1;
place = "{11, 653}";
type = Stem;
}
);
layerId = UUID0;
paths = (
{
closed = 1;
nodes = (
"20 661 OFFCURVE",
"17 635 OFFCURVE",
"17 603 CURVE SMOOTH",
"17 582 OFFCURVE",
"18 559 OFFCURVE",
"18 538 CURVE SMOOTH",
"18 442 LINE SMOOTH",
"18 412 OFFCURVE",
"16 383 OFFCURVE",
"16 354 CURVE SMOOTH",
"16 271 OFFCURVE",
"21 182 OFFCURVE",
"38 97 CURVE SMOOTH",
"42 75 OFFCURVE",
"46 33 OFFCURVE",
"60 26 CURVE",
"63 26 OFFCURVE",
"66 27 OFFCURVE",
"69 27 CURVE",
"73 23 OFFCURVE",
"77 17 OFFCURVE",
"83 17 CURVE SMOOTH",
"88 17 OFFCURVE",
"93 25 OFFCURVE",
"97 30 CURVE",
"103 24 LINE",
"118 36 LINE",
"125 28 LINE",
"131 43 LINE",
"134 33 LINE",
"136 38 OFFCURVE",
"138 44 OFFCURVE",
"139 50 CURVE",
"139 61 OFFCURVE",
"135 72 OFFCURVE",
"134 83 CURVE SMOOTH",
"131 112 OFFCURVE",
"135 138 OFFCURVE",
"127 166 CURVE",
"125 161 OFFCURVE",
"124 160 OFFCURVE",
"124 156 CURVE SMOOTH",
"124 129 OFFCURVE",
"129 106 OFFCURVE",
"129 79 CURVE",
"122 79 OFFCURVE",
"112 237 OFFCURVE",
"112 269 CURVE",
"119 236 OFFCURVE",
"115 201 OFFCURVE",
"125 169 CURVE",
"127 174 OFFCURVE",
"127 179 OFFCURVE",
"127 184 CURVE SMOOTH",
"127 210 OFFCURVE",
"120 238 OFFCURVE",
"120 264 CURVE",
"150 231 OFFCURVE",
"174 189 OFFCURVE",
"201 154 CURVE SMOOTH",
"236 107 OFFCURVE",
"280 11 OFFCURVE",
"332 11 CURVE SMOOTH",
"339 11 OFFCURVE",
"346 12 OFFCURVE",
"352 13 CURVE",
"352 19 OFFCURVE",
"351 26 OFFCURVE",
"351 33 CURVE",
"355 32 OFFCURVE",
"359 31 OFFCURVE",
"362 29 CURVE",
"368 48 LINE",
"372 44 OFFCURVE",
"377 41 OFFCURVE",
"382 38 CURVE",
"380 52 LINE",
"389 49 LINE",
"367 93 OFFCURVE",
"329 141 OFFCURVE",
"294 179 CURVE",
"297 173 OFFCURVE",
"300 167 OFFCURVE",
"302 161 CURVE",
"273 186 OFFCURVE",
"247 232 OFFCURVE",
"217 264 CURVE SMOOTH",
"195 287 OFFCURVE",
"152 327 OFFCURVE",
"152 336 CURVE SMOOTH",
"152 345 OFFCURVE",
"180 368 OFFCURVE",
"191 383 CURVE SMOOTH",
"226 429 OFFCURVE",
"259 478 OFFCURVE",
"293 525 CURVE SMOOTH",
"310 549 OFFCURVE",
"328 578 OFFCURVE",
"336 604 CURVE",
"311 564 OFFCURVE",
"287 524 OFFCURVE",
"260 486 CURVE SMOOTH",
"224 436 OFFCURVE",
"187 373 OFFCURVE",
"146 341 CURVE",
"154 354 OFFCURVE",
"165 363 OFFCURVE",
"174 374 CURVE SMOOTH",
"201 408 OFFCURVE",
"225 444 OFFCURVE",
"250 479 CURVE SMOOTH",
"278 518 OFFCURVE",
"326 573 OFFCURVE",
"332 618 CURVE",
"323 607 OFFCURVE",
"319 594 OFFCURVE",
"311 582 CURVE SMOOTH",
"291 550 OFFCURVE",
"269 519 OFFCURVE",
"247 489 CURVE SMOOTH",
"213 443 OFFCURVE",
"177 383 OFFCURVE",
"137 346 CURVE",
"143 355 OFFCURVE",
"150 364 OFFCURVE",
"157 372 CURVE SMOOTH",
"210 432 OFFCURVE",
"274 522 OFFCURVE",
"319 600 CURVE",
"321 606 OFFCURVE",
"325 613 OFFCURVE",
"326 620 CURVE",
"325 624 OFFCURVE",
"321 628 OFFCURVE",
"318 632 CURVE",
"297 604 OFFCURVE",
"283 574 OFFCURVE",
"259 548 CURVE",
"273 576 OFFCURVE",
"297 602 OFFCURVE",
"311 634 CURVE",
"304 638 LINE",
"256 580 OFFCURVE",
"208 516 OFFCURVE",
"164 453 CURVE SMOOTH",
"146 428 OFFCURVE",
"125 391 OFFCURVE",
"108 377 CURVE",
"114 404 OFFCURVE",
"145 438 OFFCURVE",
"166 468 CURVE SMOOTH",
"206 525 OFFCURVE",
"267 583 OFFCURVE",
"294 643 CURVE",
"269 636 OFFCURVE",
"256 611 OFFCURVE",
"239 590 CURVE SMOOTH",
"226 574 LINE SMOOTH",
"180 517 OFFCURVE",
"136 462 OFFCURVE",
"99 404 CURVE",
"93 449 OFFCURVE",
"95 513 OFFCURVE",
"87 569 CURVE",
"87 590 LINE SMOOTH",
"87 617 OFFCURVE",
"85 646 OFFCURVE",
"62 656 CURVE",
"55 649 LINE",
"55 653 OFFCURVE",
"54 657 OFFCURVE",
"54 661 CURVE",
"43 661 OFFCURVE",
"43 651 OFFCURVE",
"39 644 CURVE",
"36 664 LINE"
);
}
);
width = 407;
}
);
unicode = 004B;
},
{
glyphname = L;
lastChange = "2019-03-20 22:30:11 +0000";
layers = (
{
hints = (
{
place = "{25, 17}";
type = Stem;
},
{
place = "{47, 47}";
type = Stem;
},
{
place = "{59, 8}";
type = Stem;
},
{
place = "{98, 7}";
type = Stem;
},
{
horizontal = 1;
place = "{7, 45}";
type = Stem;
},
{
horizontal = 1;
place = "{12, 45}";
type = Stem;
}
);
layerId = UUID0;
paths = (
{
closed = 1;
nodes = (
"30 678 OFFCURVE",
"27 659 OFFCURVE",
"27 639 CURVE SMOOTH",
"27 626 OFFCURVE",
"28 613 OFFCURVE",
"28 603 CURVE SMOOTH",
"28 542 LINE SMOOTH",
"28 457 OFFCURVE",
"25 372 OFFCURVE",
"25 285 CURVE SMOOTH",
"25 167 LINE SMOOTH",
"25 126 OFFCURVE",
"18 85 OFFCURVE",
"18 45 CURVE SMOOTH",
"18 34 OFFCURVE",
"30 10 OFFCURVE",
"60 10 CURVE SMOOTH",
"85 10 OFFCURVE",
"111 12 OFFCURVE",
"136 12 CURVE SMOOTH",
"178 12 OFFCURVE",
"219 7 OFFCURVE",
"261 7 CURVE SMOOTH",
"288 7 OFFCURVE",
"299 16 OFFCURVE",
"320 20 CURVE SMOOTH",
"332 22 OFFCURVE",
"333 29 OFFCURVE",
"333 36 CURVE SMOOTH",
"333 42 LINE",
"320 49 OFFCURVE",
"309 52 OFFCURVE",
"294 52 CURVE SMOOTH",
"278 52 LINE SMOOTH",
"261 52 OFFCURVE",
"244 53 OFFCURVE",
"228 53 CURVE SMOOTH",
"213 53 LINE SMOOTH",
"192 53 OFFCURVE",
"163 57 OFFCURVE",
"139 57 CURVE SMOOTH",
"127 57 OFFCURVE",
"115 55 OFFCURVE",
"103 55 CURVE",
"105 94 OFFCURVE",
"115 130 OFFCURVE",
"115 170 CURVE",
"110 170 LINE",
"110 150 OFFCURVE",
"104 72 OFFCURVE",
"95 54 CURVE",
"95 102 OFFCURVE",
"105 156 OFFCURVE",
"105 208 CURVE SMOOTH",
"105 218 OFFCURVE",
"103 223 OFFCURVE",
"99 232 CURVE",
"99 217 OFFCURVE",
"98 202 OFFCURVE",
"98 187 CURVE SMOOTH",
"98 182 LINE SMOOTH",
"98 152 OFFCURVE",
"98 88 OFFCURVE",
"85 54 CURVE",
"85 59 LINE SMOOTH",
"85 100 OFFCURVE",
"94 144 OFFCURVE",
"94 187 CURVE SMOOTH",
"94 199 OFFCURVE",
"92 210 OFFCURVE",
"91 222 CURVE",
"89 222 OFFCURVE",
"88 221 OFFCURVE",
"86 221 CURVE",
"88 225 OFFCURVE",
"92 228 OFFCURVE",
"92 233 CURVE SMOOTH",
"91 241 OFFCURVE",
"88 249 OFFCURVE",
"87 257 CURVE",
"91 271 LINE",
"90 271 OFFCURVE",
"88 272 OFFCURVE",
"87 272 CURVE",
"92 276 LINE",
"89 281 LINE",
"89 278 OFFCURVE",
"92 291 OFFCURVE",
"93 296 CURVE",
"101 276 OFFCURVE",
"95 252 OFFCURVE",
"102 232 CURVE",
"104 237 OFFCURVE",
"105 241 OFFCURVE",
"105 246 CURVE SMOOTH",
"105 253 OFFCURVE",
"104 260 OFFCURVE",
"104 267 CURVE SMOOTH",
"104 283 OFFCURVE",
"105 298 OFFCURVE",
"105 313 CURVE",
"109 312 OFFCURVE",
"111 310 OFFCURVE",
"114 309 CURVE",
"114 313 OFFCURVE",
"115 318 OFFCURVE",
"115 323 CURVE SMOOTH",
"115 328 OFFCURVE",
"114 332 OFFCURVE",
"114 337 CURVE SMOOTH",
"109 392 OFFCURVE",
"118 478 OFFCURVE",
"99 637 CURVE SMOOTH",
"96 660 OFFCURVE",
"87 663 OFFCURVE",
"74 674 CURVE",
"67 668 LINE",
"65 673 OFFCURVE",
"65 678 OFFCURVE",
"59 678 CURVE",
"56 674 OFFCURVE",
"54 669 OFFCURVE",
"51 664 CURVE",
"48 681 LINE"
);
},
{
closed = 1;
nodes = (
"45 239 OFFCURVE",
"48 236 OFFCURVE",
"48 231 CURVE SMOOTH",
"48 224 OFFCURVE",
"46 216 OFFCURVE",
"45 209 CURVE SMOOTH",
"45 202 OFFCURVE",
"48 195 OFFCURVE",
"48 188 CURVE SMOOTH",
"48 182 OFFCURVE",
"46 177 OFFCURVE",
"46 170 CURVE SMOOTH",
"46 164 OFFCURVE",
"47 157 OFFCURVE",
"47 151 CURVE SMOOTH",
"47 145 LINE SMOOTH",
"47 121 OFFCURVE",
"47 77 OFFCURVE",
"38 49 CURVE",
"35 56 OFFCURVE",
"34 63 OFFCURVE",
"34 70 CURVE SMOOTH",
"34 107 OFFCURVE",
"42 145 OFFCURVE",
"42 187 CURVE SMOOTH",
"42 197 OFFCURVE",
"41 206 OFFCURVE",
"41 215 CURVE SMOOTH",
"41 225 OFFCURVE",
"42 234 OFFCURVE",
"43 243 CURVE",
"43 243 LINE"
);
},
{
closed = 1;
nodes = (
"110 204 OFFCURVE",
"110 203 OFFCURVE",
"110 202 CURVE SMOOTH",
"110 201 OFFCURVE",
"111 199 OFFCURVE",
"112 199 CURVE SMOOTH",
"114 199 OFFCURVE",
"115 201 OFFCURVE",
"115 202 CURVE SMOOTH",
"115 203 OFFCURVE",
"114 205 OFFCURVE",
"111 205 CURVE",
"111 205 LINE"
);
},
{
closed = 1;
nodes = (
"111 189 OFFCURVE",
"110 181 OFFCURVE",
"109 174 CURVE",
"113 174 LINE",
"113 197 LINE"
);
}
);
width = 352;
}
);
unicode = 004C;
},
{
glyphname = M;
lastChange = "2019-03-20 22:30:11 +0000";
layers = (
{
hints = (
{
place = "{12, 14}";
type = Stem;
},
{
place = "{50, 17}";
type = Stem;
},
{
place = "{54, 9}";
type = Stem;
},
{
place = "{76, 46}";
type = Stem;
},
{
place = "{77, 16}";
type = Stem;
},
{
place = "{120, 10}";
type = Stem;
},
{
place = "{250, 17}";
type = Stem;
},
{
place = "{290, 9}";
type = Stem;
},
{
place = "{361, 81}";
type = Stem;
},
{
place = "{388, 12}";
type = Stem;
},
{
place = "{405, 30}";
type = Stem;
},
{
place = "{414, 50}";
type = Stem;
},
{
place = "{415, 15}";
type = Stem;
},
{
place = "{421, 17}";
type = Stem;
},
{
place = "{429, 20}";
type = Stem;
},
{
place = "{436, 7}";
type = Stem;
},
{
place = "{444, 16}";
type = Stem;
},
{
place = "{462, 25}";
type = Stem;
},
{
horizontal = 1;
place = "{-20, 21}";
target = up;
type = BottomGhost;
},
{
horizontal = 1;
place = "{-9, 21}";
target = up;
type = BottomGhost;
},
{
horizontal = 1;
place = "{175, 32}";
type = Stem;
}
);
layerId = UUID0;
paths = (
{
closed = 1;
nodes = (
"107 666 OFFCURVE",
"108 645 OFFCURVE",
"103 622 CURVE SMOOTH",
"89 560 OFFCURVE",
"77 495 OFFCURVE",
"67 431 CURVE SMOOTH",
"62 402 OFFCURVE",
"54 368 OFFCURVE",
"54 345 CURVE SMOOTH",
"54 342 OFFCURVE",
"55 340 OFFCURVE",
"63 340 CURVE",
"72 391 OFFCURVE",
"81 442 OFFCURVE",
"91 493 CURVE SMOOTH",
"100 539 OFFCURVE",
"105 592 OFFCURVE",
"120 633 CURVE",
"122 627 OFFCURVE",
"123 621 OFFCURVE",
"123 616 CURVE SMOOTH",
"123 602 OFFCURVE",
"118 588 OFFCURVE",
"115 574 CURVE SMOOTH",
"101 500 OFFCURVE",
"89 427 OFFCURVE",
"77 353 CURVE SMOOTH",
"76 349 OFFCURVE",
"76 346 OFFCURVE",
"76 342 CURVE SMOOTH",
"76 338 OFFCURVE",
"76 335 OFFCURVE",
"77 331 CURVE",
"75 323 OFFCURVE",
"76 305 OFFCURVE",
"72 300 CURVE",
"53 255 OFFCURVE",
"49 201 OFFCURVE",
"42 152 CURVE SMOOTH",
"38 123 OFFCURVE",
"37 86 OFFCURVE",
"27 65 CURVE",
"27 69 OFFCURVE",
"26 74 OFFCURVE",
"26 79 CURVE SMOOTH",
"26 156 OFFCURVE",
"56 239 OFFCURVE",
"56 316 CURVE",
"42 298 OFFCURVE",
"42 278 OFFCURVE",
"37 257 CURVE SMOOTH",
"24 199 OFFCURVE",
"12 130 OFFCURVE",
"12 75 CURVE SMOOTH",
"12 45 OFFCURVE",
"25 51 OFFCURVE",
"40 38 CURVE",
"44 46 OFFCURVE",
"47 54 OFFCURVE",
"49 62 CURVE",
"52 45 LINE",
"55 48 OFFCURVE",
"59 51 OFFCURVE",
"63 53 CURVE",
"72 47 LINE",
"75 55 OFFCURVE",
"76 63 OFFCURVE",
"78 72 CURVE",
"90 159 OFFCURVE",
"105 250 OFFCURVE",
"119 340 CURVE",
"121 348 OFFCURVE",
"122 357 OFFCURVE",
"122 366 CURVE",
"117 361 OFFCURVE",
"117 355 OFFCURVE",
"116 349 CURVE SMOOTH",
"104 251 OFFCURVE",
"85 155 OFFCURVE",
"69 57 CURVE SMOOTH",
"69 60 OFFCURVE",
"68 63 OFFCURVE",
"68 66 CURVE SMOOTH",
"68 75 OFFCURVE",
"69 83 OFFCURVE",
"71 92 CURVE SMOOTH",
"85 170 OFFCURVE",
"92 249 OFFCURVE",
"105 329 CURVE",
"120 385 OFFCURVE",
"121 456 OFFCURVE",
"139 500 CURVE",
"139 472 OFFCURVE",
"120 413 OFFCURVE",
"120 377 CURVE SMOOTH",
"120 373 OFFCURVE",
"121 369 OFFCURVE",
"122 365 CURVE",
"134 401 OFFCURVE",
"133 443 OFFCURVE",
"141 480 CURVE",
"149 462 OFFCURVE",
"150 441 OFFCURVE",
"154 422 CURVE SMOOTH",
"164 374 OFFCURVE",
"171 328 OFFCURVE",
"178 280 CURVE SMOOTH",
"184 241 OFFCURVE",
"187 183 OFFCURVE",
"208 159 CURVE",
"215 165 LINE",
"220 161 OFFCURVE",
"224 157 OFFCURVE",
"230 155 CURVE",
"238 157 OFFCURVE",
"241 169 OFFCURVE",
"249 174 CURVE",
"251 166 LINE",
"263 183 LINE",
"272 172 LINE",
"270 177 OFFCURVE",
"268 183 OFFCURVE",
"267 189 CURVE",
"277 175 LINE",
"286 175 OFFCURVE",
"329 331 OFFCURVE",
"337 356 CURVE SMOOTH",
"344 380 OFFCURVE",
"350 410 OFFCURVE",
"361 429 CURVE",
"359 412 OFFCURVE",
"354 398 OFFCURVE",
"349 382 CURVE SMOOTH",
"331 326 OFFCURVE",
"309 267 OFFCURVE",
"299 217 CURVE",
"324 274 OFFCURVE",
"334 345 OFFCURVE",
"361 399 CURVE",
"369 338 OFFCURVE",
"367 278 OFFCURVE",
"374 220 CURVE SMOOTH",
"378 186 OFFCURVE",
"379 130 OFFCURVE",
"397 118 CURVE",
"399 123 OFFCURVE",
"400 128 OFFCURVE",
"400 133 CURVE SMOOTH",
"400 140 OFFCURVE",
"398 147 OFFCURVE",
"398 155 CURVE SMOOTH",
"398 159 OFFCURVE",
"399 164 OFFCURVE",
"401 169 CURVE",
"408 153 OFFCURVE",
"414 126 OFFCURVE",
"414 115 CURVE SMOOTH",
"414 108 OFFCURVE",
"413 102 OFFCURVE",
"410 96 CURVE",
"417 87 OFFCURVE",
"417 78 OFFCURVE",
"420 68 CURVE",
"420 67 OFFCURVE",
"419 65 OFFCURVE",
"419 64 CURVE SMOOTH",
"420 63 OFFCURVE",
"421 63 OFFCURVE",
"422 63 CURVE",
"421 60 OFFCURVE",
"421 57 OFFCURVE",
"421 53 CURVE SMOOTH",
"421 49 OFFCURVE",
"425 47 OFFCURVE",
"427 44 CURVE",
"425 40 OFFCURVE",
"424 36 OFFCURVE",
"424 32 CURVE SMOOTH",
"424 29 OFFCURVE",
"425 25 OFFCURVE",
"425 22 CURVE SMOOTH",
"425 18 OFFCURVE",
"424 14 OFFCURVE",
"423 10 CURVE",
"419 15 OFFCURVE",
"416 18 OFFCURVE",
"415 24 CURVE SMOOTH",
"410 50 OFFCURVE",
"413 110 OFFCURVE",
"397 118 CURVE",
"394 117 OFFCURVE",
"391 115 OFFCURVE",
"388 113 CURVE",
"393 62 OFFCURVE",
"395 11 OFFCURVE",
"419 -36 CURVE",
"421 -35 OFFCURVE",
"423 -33 OFFCURVE",
"425 -31 CURVE",
"424 -28 OFFCURVE",
"424 -25 OFFCURVE",
"424 -23 CURVE SMOOTH",
"424 -18 OFFCURVE",
"425 -14 OFFCURVE",
"426 -9 CURVE",
"433 -20 OFFCURVE",
"431 -44 OFFCURVE",
"444 -44 CURVE SMOOTH",
"447 -44 OFFCURVE",
"450 -43 OFFCURVE",
"454 -42 CURVE",
"452 -25 OFFCURVE",
"449 -9 OFFCURVE",
"449 7 CURVE SMOOTH",
"449 34 OFFCURVE",
"438 61 OFFCURVE",
"438 87 CURVE SMOOTH",
"438 92 OFFCURVE",
"439 96 OFFCURVE",
"441 101 CURVE",
"450 72 OFFCURVE",
"443 20 OFFCURVE",
"462 -20 CURVE",
"473 -18 OFFCURVE",
"476 -16 OFFCURVE",
"476 -11 CURVE SMOOTH",
"476 13 OFFCURVE",
"463 55 OFFCURVE",
"463 83 CURVE SMOOTH",
"463 93 OFFCURVE",
"464 103 OFFCURVE",
"464 114 CURVE SMOOTH",
"464 119 OFFCURVE",
"464 124 OFFCURVE",
"463 129 CURVE SMOOTH",
"454 211 OFFCURVE",
"442 299 OFFCURVE",
"442 383 CURVE SMOOTH",
"442 387 OFFCURVE",
"443 392 OFFCURVE",
"444 396 CURVE",
"447 366 OFFCURVE",
"448 336 OFFCURVE",
"450 306 CURVE SMOOTH",
"453 263 OFFCURVE",
"476 -31 OFFCURVE",
"487 -31 CURVE",
"487 -7 LINE SMOOTH",
"487 1 OFFCURVE",
"487 9 OFFCURVE",
"486 18 CURVE SMOOTH",
"475 103 OFFCURVE",
"467 190 OFFCURVE",
"462 276 CURVE SMOOTH",
"458 335 OFFCURVE",
"461 399 OFFCURVE",
"450 458 CURVE SMOOTH",
"446 481 OFFCURVE",
"449 531 OFFCURVE",
"436 544 CURVE",
"438 549 OFFCURVE",
"438 553 OFFCURVE",
"438 558 CURVE SMOOTH",
"438 576 OFFCURVE",
"435 597 OFFCURVE",
"435 617 CURVE SMOOTH",
"435 624 OFFCURVE",
"435 631 OFFCURVE",
"436 638 CURVE",
"440 610 OFFCURVE",
"433 571 OFFCURVE",
"449 547 CURVE",
"448 566 OFFCURVE",
"445 585 OFFCURVE",
"443 604 CURVE SMOOTH",
"443 608 LINE SMOOTH",
"441 633 OFFCURVE",
"439 659 OFFCURVE",
"401 659 CURVE SMOOTH",
"398 659 OFFCURVE",
"396 658 OFFCURVE",
"393 658 CURVE SMOOTH",
"389 659 OFFCURVE",
"385 661 OFFCURVE",
"381 661 CURVE SMOOTH",
"376 661 OFFCURVE",
"370 653 OFFCURVE",
"366 649 CURVE",
"362 660 LINE",
"319 652 OFFCURVE",
"279 470 OFFCURVE",
"250 377 CURVE",
"227 444 OFFCURVE",
"222 540 OFFCURVE",
"200 611 CURVE SMOOTH",
"191 640 OFFCURVE",
"203 678 OFFCURVE",
"144 678 CURVE",
"140 674 OFFCURVE",
"138 668 OFFCURVE",
"135 663 CURVE",
"133 669 OFFCURVE",
"132 675 OFFCURVE",
"129 681 CURVE",
"129 681 LINE"
);
},
{
closed = 1;
nodes = (
"347 593 OFFCURVE",
"344 584 OFFCURVE",
"340 572 CURVE SMOOTH",
"315 501 OFFCURVE",
"297 396 OFFCURVE",
"265 331 CURVE",
"264 334 OFFCURVE",
"264 337 OFFCURVE",
"264 340 CURVE SMOOTH",
"264 359 OFFCURVE",
"274 384 OFFCURVE",
"280 404 CURVE SMOOTH",
"294 450 OFFCURVE",
"308 496 OFFCURVE",
"323 542 CURVE SMOOTH",
"330 563 OFFCURVE",
"339 599 OFFCURVE",
"348 608 CURVE",
"348 608 LINE"
);
},
{
closed = 1;
nodes = (
"130 560 OFFCURVE",
"130 557 OFFCURVE",
"130 554 CURVE SMOOTH",
"125 498 OFFCURVE",
"114 443 OFFCURVE",
"102 385 CURVE SMOOTH",
"99 371 LINE SMOOTH",
"82 290 OFFCURVE",
"79 206 OFFCURVE",
"59 132 CURVE",
"59 160 OFFCURVE",
"67 184 OFFCURVE",
"67 213 CURVE",
"73 213 OFFCURVE",
"73 258 OFFCURVE",
"77 258 CURVE",
"77 263 OFFCURVE",
"76 268 OFFCURVE",
"76 273 CURVE SMOOTH",
"76 281 OFFCURVE",
"77 289 OFFCURVE",
"79 297 CURVE",
"93 387 OFFCURVE",
"109 477 OFFCURVE",
"129 564 CURVE",
"129 564 LINE"
);
},
{
closed = 1;
nodes = (
"410 525 OFFCURVE",
"407 509 OFFCURVE",
"414 497 CURVE",
"414 493 OFFCURVE",
"413 489 OFFCURVE",
"413 485 CURVE SMOOTH",
"413 475 OFFCURVE",
"415 466 OFFCURVE",
"415 456 CURVE SMOOTH",
"415 451 OFFCURVE",
"412 446 OFFCURVE",
"410 441 CURVE",
"410 459 OFFCURVE",
"405 476 OFFCURVE",
"405 491 CURVE SMOOTH",
"405 495 OFFCURVE",
"406 500 OFFCURVE",
"406 504 CURVE SMOOTH",
"406 509 OFFCURVE",
"404 515 OFFCURVE",
"402 520 CURVE",
"405 543 LINE"
);
},
{
closed = 1;
nodes = (
"437 478 OFFCURVE",
"440 478 OFFCURVE",
"440 469 CURVE SMOOTH",
"440 463 OFFCURVE",
"438 458 OFFCURVE",
"436 452 CURVE",
"432 459 OFFCURVE",
"430 465 OFFCURVE",
"430 473 CURVE SMOOTH",
"430 476 OFFCURVE",
"431 479 OFFCURVE",
"431 482 CURVE",
"431 482 LINE"
);
},
{
closed = 1;
nodes = (
"458 453 OFFCURVE",
"456 452 OFFCURVE",
"456 449 CURVE SMOOTH",
"456 349 OFFCURVE",
"471 252 OFFCURVE",
"478 154 CURVE SMOOTH",
"479 140 OFFCURVE",
"479 126 OFFCURVE",
"484 113 CURVE",
"484 117 OFFCURVE",
"485 122 OFFCURVE",
"485 126 CURVE SMOOTH",
"485 199 OFFCURVE",
"471 278 OFFCURVE",
"467 353 CURVE",
"463 386 OFFCURVE",
"462 421 OFFCURVE",
"460 455 CURVE",
"460 455 LINE"
);
},
{
closed = 1;
nodes = (
"443 416 OFFCURVE",
"444 414 OFFCURVE",
"444 411 CURVE SMOOTH",
"444 409 OFFCURVE",
"443 406 OFFCURVE",
"442 406 CURVE SMOOTH",
"440 407 OFFCURVE",
"440 409 OFFCURVE",
"440 412 CURVE SMOOTH",
"440 414 OFFCURVE",
"440 416 OFFCURVE",
"442 417 CURVE",
"442 417 LINE"
);
},
{
closed = 1;
nodes = (
"113 301 OFFCURVE",
"107 228 OFFCURVE",
"97 161 CURVE SMOOTH",
"91 125 OFFCURVE",
"82 88 OFFCURVE",
"79 52 CURVE",
"85 68 OFFCURVE",
"87 86 OFFCURVE",
"90 103 CURVE SMOOTH",
"100 154 OFFCURVE",
"107 204 OFFCURVE",
"114 255 CURVE SMOOTH",
"119 292 OFFCURVE",
"127 328 OFFCURVE",
"130 365 CURVE",
"130 365 LINE"
);
},
{
closed = 1;
nodes = (
"97 323 OFFCURVE",
"99 323 OFFCURVE",
"99 320 CURVE SMOOTH",
"99 318 OFFCURVE",
"98 316 OFFCURVE",
"97 316 CURVE SMOOTH",
"95 316 OFFCURVE",
"93 318 OFFCURVE",
"93 320 CURVE SMOOTH",
"93 321 OFFCURVE",
"93 322 OFFCURVE",
"94 323 CURVE",
"94 323 LINE"
);
},
{
closed = 1;
nodes = (
"290 239 OFFCURVE",
"288 207 OFFCURVE",
"274 207 CURVE",
"282 220 OFFCURVE",
"284 234 OFFCURVE",
"290 248 CURVE",
"290 248 LINE"
);
},
{
closed = 1;
nodes = (
"408 153 OFFCURVE",
"414 126 OFFCURVE",
"414 115 CURVE SMOOTH",
"414 108 OFFCURVE",
"413 102 OFFCURVE",
"410 96 CURVE",
"417 87 OFFCURVE",
"417 78 OFFCURVE",
"420 68 CURVE",
"420 67 OFFCURVE",
"419 65 OFFCURVE",
"419 64 CURVE SMOOTH",
"420 63 OFFCURVE",
"421 63 OFFCURVE",
"422 63 CURVE",
"421 60 OFFCURVE",
"421 57 OFFCURVE",
"421 53 CURVE SMOOTH",
"421 49 OFFCURVE",
"425 47 OFFCURVE",
"427 44 CURVE",
"425 40 OFFCURVE",
"424 36 OFFCURVE",
"424 32 CURVE SMOOTH",
"424 29 OFFCURVE",
"425 25 OFFCURVE",
"425 22 CURVE SMOOTH",
"425 18 OFFCURVE",
"424 14 OFFCURVE",
"423 10 CURVE",
"419 15 OFFCURVE",
"416 18 OFFCURVE",
"415 24 CURVE SMOOTH",
"410 50 OFFCURVE",
"413 110 OFFCURVE",
"397 118 CURVE",
"399 123 OFFCURVE",
"400 128 OFFCURVE",
"400 133 CURVE SMOOTH",
"400 140 OFFCURVE",
"398 147 OFFCURVE",
"398 155 CURVE SMOOTH",
"398 159 OFFCURVE",
"399 164 OFFCURVE",
"401 169 CURVE",
"401 169 LINE"
);
},
{
closed = 1;
nodes = (
"428 1 OFFCURVE",
"429 0 OFFCURVE",
"429 -7 CURVE",
"419 3 LINE",
"421 5 OFFCURVE",
"424 7 OFFCURVE",
"427 8 CURVE",
"427 8 LINE"
);
}
);
width = 514;
}
);
unicode = 004D;
},
{
glyphname = N;
lastChange = "2019-03-20 22:30:11 +0000";
layers = (
{
hints = (
{
place = "{35, 8}";
type = Stem;
},
{
place = "{38, 12}";
type = Stem;
},
{
place = "{49, 15}";
type = Stem;
},
{
place = "{68, 26}";
type = Stem;
},
{
place = "{72, 14}";
type = Stem;
},
{
place = "{88, 12}";
type = Stem;
},
{
place = "{92, 16}";
type = Stem;
},
{
place = "{98, 43}";
type = Stem;
},
{
place = "{99, 62}";
type = Stem;
},
{
place = "{136, 19}";
type = Stem;
},
{
place = "{149, 11}";
type = Stem;
},
{
place = "{158, 34}";
type = Stem;
},
{
place = "{192, 11}";
type = Stem;
},
{
place = "{200, 26}";
type = Stem;
},
{
place = "{262, 18}";
type = Stem;
},
{
place = "{265, 19}";
type = Stem;
},
{
place = "{292, 16}";
type = Stem;
},
{
place = "{312, 19}";
type = Stem;
},
{
place = "{333, 11}";
type = Stem;
},
{
place = "{338, 12}";
type = Stem;
},
{
place = "{343, 15}";
type = Stem;
},
{
place = "{350, 9}";
type = Stem;
},
{
horizontal = 1;
place = "{-16, 21}";
target = up;
type = BottomGhost;
},
{
horizontal = 1;
place = "{-11, 21}";
target = up;
type = BottomGhost;
},
{
horizontal = 1;
place = "{-3, 21}";
target = up;
type = BottomGhost;
},
{
horizontal = 1;
place = "{1, 21}";
target = up;
type = BottomGhost;
},
{
horizontal = 1;
place = "{82, 10}";
type = Stem;
},
{
horizontal = 1;
place = "{530, 8}";
type = Stem;
},
{
horizontal = 1;
place = "{536, 12}";
type = Stem;
},
{
horizontal = 1;
place = "{704, -20}";
target = down;
type = TopGhost;
}
);
layerId = UUID0;
paths = (
{
closed = 1;
nodes = (
"312 697 OFFCURVE",
"312 690 OFFCURVE",
"312 683 CURVE SMOOTH",
"312 663 OFFCURVE",
"312 644 OFFCURVE",
"313 624 CURVE SMOOTH",
"313 617 OFFCURVE",
"313 610 OFFCURVE",
"309 603 CURVE",
"308 612 OFFCURVE",
"308 621 OFFCURVE",
"308 631 CURVE SMOOTH",
"308 661 LINE SMOOTH",
"308 675 OFFCURVE",
"307 689 OFFCURVE",
"304 702 CURVE",
"293 695 OFFCURVE",
"292 667 OFFCURVE",
"292 646 CURVE SMOOTH",
"292 528 OFFCURVE",
"291 409 OFFCURVE",
"289 288 CURVE",
"291 255 OFFCURVE",
"292 221 OFFCURVE",
"292 189 CURVE",
"281 213 OFFCURVE",
"280 248 OFFCURVE",
"280 280 CURVE SMOOTH",
"280 312 OFFCURVE",
"281 339 OFFCURVE",
"281 368 CURVE SMOOTH",
"281 388 OFFCURVE",
"280 409 OFFCURVE",
"280 430 CURVE SMOOTH",
"280 529 OFFCURVE",
"284 571 OFFCURVE",
"284 675 CURVE SMOOTH",
"284 682 OFFCURVE",
"283 689 OFFCURVE",
"283 696 CURVE",
"266 696 OFFCURVE",
"265 554 OFFCURVE",
"265 514 CURVE SMOOTH",
"265 505 LINE SMOOTH",
"265 501 OFFCURVE",
"266 496 OFFCURVE",
"268 488 CURVE",
"262 464 OFFCURVE",
"261 435 OFFCURVE",
"261 405 CURVE SMOOTH",
"261 374 OFFCURVE",
"262 341 OFFCURVE",
"262 309 CURVE SMOOTH",
"262 278 LINE",
"248 308 OFFCURVE",
"245 345 OFFCURVE",
"227 373 CURVE",
"233 328 OFFCURVE",
"260 286 OFFCURVE",
"264 236 CURVE",
"253 265 OFFCURVE",
"247 295 OFFCURVE",
"234 322 CURVE SMOOTH",
"233 324 OFFCURVE",
"217 412 OFFCURVE",
"200 418 CURVE",
"201 401 OFFCURVE",
"208 384 OFFCURVE",
"213 368 CURVE SMOOTH",
"225 329 OFFCURVE",
"237 291 OFFCURVE",
"250 253 CURVE SMOOTH",
"256 233 OFFCURVE",
"265 217 OFFCURVE",
"267 196 CURVE",
"239 247 OFFCURVE",
"228 324 OFFCURVE",
"206 382 CURVE SMOOTH",
"200 398 OFFCURVE",
"192 413 OFFCURVE",
"192 430 CURVE",
"194 426 OFFCURVE",
"197 422 OFFCURVE",
"200 418 CURVE",
"202 422 OFFCURVE",
"203 425 OFFCURVE",
"203 429 CURVE SMOOTH",
"203 459 OFFCURVE",
"164 531 OFFCURVE",
"160 560 CURVE SMOOTH",
"155 592 OFFCURVE",
"128 690 OFFCURVE",
"79 690 CURVE SMOOTH",
"71 690 OFFCURVE",
"66 689 OFFCURVE",
"61 686 CURVE",
"58 686 OFFCURVE",
"54 688 OFFCURVE",
"51 688 CURVE SMOOTH",
"36 688 OFFCURVE",
"35 636 OFFCURVE",
"35 612 CURVE SMOOTH",
"35 598 OFFCURVE",
"35 582 OFFCURVE",
"36 568 CURVE SMOOTH",
"36 563 OFFCURVE",
"36 557 OFFCURVE",
"35 552 CURVE",
"39 548 LINE",
"35 543 OFFCURVE",
"34 540 OFFCURVE",
"34 534 CURVE SMOOTH",
"34 528 OFFCURVE",
"35 522 OFFCURVE",
"35 516 CURVE SMOOTH",
"35 464 OFFCURVE",
"29 412 OFFCURVE",
"29 361 CURVE SMOOTH",
"30 268 OFFCURVE",
"38 180 OFFCURVE",
"38 87 CURVE SMOOTH",
"38 71 OFFCURVE",
"37 66 OFFCURVE",
"37 39 CURVE SMOOTH",
"37 25 OFFCURVE",
"39 7 OFFCURVE",
"52 1 CURVE",
"52 43 OFFCURVE",
"50 86 OFFCURVE",
"50 128 CURVE SMOOTH",
"50 176 OFFCURVE",
"42 226 OFFCURVE",
"42 278 CURVE SMOOTH",
"42 289 OFFCURVE",
"43 300 OFFCURVE",
"43 310 CURVE SMOOTH",
"43 327 OFFCURVE",
"40 343 OFFCURVE",
"40 360 CURVE SMOOTH",
"40 402 OFFCURVE",
"43 450 OFFCURVE",
"43 497 CURVE SMOOTH",
"43 504 OFFCURVE",
"43 511 OFFCURVE",
"42 518 CURVE",
"47 562 OFFCURVE",
"50 608 OFFCURVE",
"50 652 CURVE",
"54 643 OFFCURVE",
"55 634 OFFCURVE",
"55 626 CURVE SMOOTH",
"55 618 OFFCURVE",
"54 611 OFFCURVE",
"54 604 CURVE SMOOTH",
"54 595 OFFCURVE",
"57 585 OFFCURVE",
"57 575 CURVE SMOOTH",
"57 566 OFFCURVE",
"55 557 OFFCURVE",
"55 547 CURVE SMOOTH",
"55 543 OFFCURVE",
"56 538 OFFCURVE",
"57 533 CURVE",
"53 513 OFFCURVE",
"52 486 OFFCURVE",
"52 468 CURVE SMOOTH",
"52 429 OFFCURVE",
"49 390 OFFCURVE",
"49 351 CURVE SMOOTH",
"49 254 OFFCURVE",
"53 156 OFFCURVE",
"55 61 CURVE SMOOTH",
"55 54 OFFCURVE",
"54 47 OFFCURVE",
"54 41 CURVE SMOOTH",
"54 27 OFFCURVE",
"58 14 OFFCURVE",
"66 3 CURVE",
"75 26 OFFCURVE",
"86 27 OFFCURVE",
"94 42 CURVE",
"95 52 OFFCURVE",
"94 62 OFFCURVE",
"96 72 CURVE",
"96 77 OFFCURVE",
"91 79 OFFCURVE",
"88 83 CURVE",
"91 82 OFFCURVE",
"93 82 OFFCURVE",
"96 82 CURVE",
"90 92 LINE",
"98 92 OFFCURVE",
"97 110 OFFCURVE",
"101 121 CURVE",
"97 118 LINE",
"92 126 LINE",
"97 130 LINE",
"100 127 LINE",
"102 155 OFFCURVE",
"102 184 OFFCURVE",
"102 212 CURVE SMOOTH",
"102 255 OFFCURVE",
"100 298 OFFCURVE",
"100 341 CURVE SMOOTH",
"100 374 OFFCURVE",
"103 411 OFFCURVE",
"103 446 CURVE",
"98 417 OFFCURVE",
"98 389 OFFCURVE",
"98 360 CURVE SMOOTH",
"98 311 OFFCURVE",
"99 262 OFFCURVE",
"99 211 CURVE SMOOTH",
"99 201 OFFCURVE",
"99 192 OFFCURVE",
"97 184 CURVE",
"95 245 OFFCURVE",
"94 306 OFFCURVE",
"94 365 CURVE SMOOTH",
"94 387 OFFCURVE",
"93 410 OFFCURVE",
"93 433 CURVE SMOOTH",
"93 456 OFFCURVE",
"94 478 OFFCURVE",
"97 498 CURVE",
"103 488 OFFCURVE",
"103 479 OFFCURVE",
"103 468 CURVE",
"108 470 LINE",
"109 458 OFFCURVE",
"115 448 OFFCURVE",
"118 437 CURVE",
"119 420 OFFCURVE",
"125 404 OFFCURVE",
"129 388 CURVE SMOOTH",
"155 281 OFFCURVE",
"197 175 OFFCURVE",
"232 66 CURVE",
"244 35 OFFCURVE",
"250 -2 OFFCURVE",
"287 -16 CURVE",
"287 -12 OFFCURVE",
"287 -7 OFFCURVE",
"288 -3 CURVE",
"295 -5 OFFCURVE",
"301 -9 OFFCURVE",
"309 -11 CURVE",
"315 -11 OFFCURVE",
"321 4 OFFCURVE",
"329 14 CURVE",
"325 14 LINE",
"338 32 OFFCURVE",
"342 25 OFFCURVE",
"351 32 CURVE",
"354 45 OFFCURVE",
"357 63 OFFCURVE",
"357 78 CURVE SMOOTH",
"357 92 LINE SMOOTH",
"357 108 OFFCURVE",
"358 123 OFFCURVE",
"358 139 CURVE SMOOTH",
"358 183 OFFCURVE",
"359 230 OFFCURVE",
"359 278 CURVE SMOOTH",
"359 330 OFFCURVE",
"358 383 OFFCURVE",
"352 434 CURVE",
"350 425 OFFCURVE",
"350 415 OFFCURVE",
"350 406 CURVE SMOOTH",
"350 346 OFFCURVE",
"353 290 OFFCURVE",
"353 229 CURVE SMOOTH",
"353 223 OFFCURVE",
"352 217 OFFCURVE",
"351 212 CURVE",
"349 216 OFFCURVE",
"348 220 OFFCURVE",
"348 225 CURVE SMOOTH",
"348 235 OFFCURVE",
"350 245 OFFCURVE",
"350 255 CURVE SMOOTH",
"350 352 OFFCURVE",
"343 443 OFFCURVE",
"343 534 CURVE SMOOTH",
"343 554 OFFCURVE",
"344 576 OFFCURVE",
"344 598 CURVE SMOOTH",
"344 630 OFFCURVE",
"342 665 OFFCURVE",
"333 704 CURVE",
"333 687 LINE SMOOTH",
"333 623 OFFCURVE",
"338 547 OFFCURVE",
"338 501 CURVE SMOOTH",
"338 470 OFFCURVE",
"336 438 OFFCURVE",
"336 407 CURVE SMOOTH",
"336 389 OFFCURVE",
"338 370 OFFCURVE",
"338 353 CURVE SMOOTH",
"338 342 OFFCURVE",
"336 332 OFFCURVE",
"336 322 CURVE SMOOTH",
"336 313 OFFCURVE",
"339 304 OFFCURVE",
"339 295 CURVE SMOOTH",
"339 290 OFFCURVE",
"338 285 OFFCURVE",
"338 280 CURVE SMOOTH",
"338 272 OFFCURVE",
"341 263 OFFCURVE",
"341 254 CURVE SMOOTH",
"341 243 OFFCURVE",
"338 232 OFFCURVE",
"337 221 CURVE",
"333 222 OFFCURVE",
"329 222 OFFCURVE",
"325 222 CURVE",
"329 227 OFFCURVE",
"333 233 OFFCURVE",
"336 239 CURVE",
"331 245 LINE",
"332 251 OFFCURVE",
"333 257 OFFCURVE",
"333 263 CURVE SMOOTH",
"333 270 OFFCURVE",
"331 277 OFFCURVE",
"331 284 CURVE SMOOTH",
"331 299 OFFCURVE",
"334 315 OFFCURVE",
"334 330 CURVE SMOOTH",
"334 343 OFFCURVE",
"333 356 OFFCURVE",
"333 369 CURVE SMOOTH",
"333 376 OFFCURVE",
"333 383 OFFCURVE",
"334 391 CURVE",
"334 408 OFFCURVE",
"333 424 OFFCURVE",
"333 441 CURVE SMOOTH",
"333 449 OFFCURVE",
"334 458 OFFCURVE",
"334 466 CURVE SMOOTH",
"333 513 OFFCURVE",
"332 546 OFFCURVE",
"332 603 CURVE SMOOTH",
"332 616 OFFCURVE",
"325 626 OFFCURVE",
"325 638 CURVE",
"327 633 OFFCURVE",
"329 631 OFFCURVE",
"330 626 CURVE",
"331 631 OFFCURVE",
"331 633 OFFCURVE",
"331 639 CURVE SMOOTH",
"331 644 LINE SMOOTH",
"331 662 OFFCURVE",
"330 699 OFFCURVE",
"314 704 CURVE",
"314 704 LINE"
);
},
{
closed = 1;
nodes = (
"342 646 OFFCURVE",
"349 591 OFFCURVE",
"349 546 CURVE SMOOTH",
"349 524 OFFCURVE",
"350 499 OFFCURVE",
"350 473 CURVE SMOOTH",
"350 461 OFFCURVE",
"350 448 OFFCURVE",
"351 436 CURVE",
"353 444 OFFCURVE",
"353 453 OFFCURVE",
"353 462 CURVE SMOOTH",
"353 555 OFFCURVE",
"351 597 OFFCURVE",
"342 697 CURVE",
"342 697 LINE"
);
},
{
closed = 1;
nodes = (
"75 574 OFFCURVE",
"76 567 OFFCURVE",
"76 560 CURVE SMOOTH",
"76 552 LINE",
"87 548 LINE",
"87 545 OFFCURVE",
"87 541 OFFCURVE",
"86 538 CURVE",
"88 538 OFFCURVE",
"90 537 OFFCURVE",
"92 537 CURVE",
"92 531 LINE SMOOTH",
"92 520 OFFCURVE",
"94 510 OFFCURVE",
"94 500 CURVE",
"89 449 OFFCURVE",
"88 388 OFFCURVE",
"88 335 CURVE SMOOTH",
"88 229 LINE SMOOTH",
"88 216 OFFCURVE",
"88 203 OFFCURVE",
"87 191 CURVE",
"86 206 OFFCURVE",
"85 222 OFFCURVE",
"85 238 CURVE SMOOTH",
"85 244 OFFCURVE",
"86 251 OFFCURVE",
"86 258 CURVE SMOOTH",
"86 267 OFFCURVE",
"83 277 OFFCURVE",
"83 287 CURVE SMOOTH",
"83 293 OFFCURVE",
"85 299 OFFCURVE",
"85 305 CURVE SMOOTH",
"85 316 OFFCURVE",
"83 326 OFFCURVE",
"83 337 CURVE SMOOTH",
"83 347 OFFCURVE",
"85 357 OFFCURVE",
"85 368 CURVE SMOOTH",
"85 380 OFFCURVE",
"82 393 OFFCURVE",
"82 406 CURVE",
"85 412 OFFCURVE",
"86 419 OFFCURVE",
"86 426 CURVE SMOOTH",
"86 453 LINE SMOOTH",
"86 475 OFFCURVE",
"85 501 OFFCURVE",
"79 516 CURVE",
"82 516 OFFCURVE",
"86 516 OFFCURVE",
"89 517 CURVE",
"84 523 OFFCURVE",
"80 530 OFFCURVE",
"74 536 CURVE",
"73 530 OFFCURVE",
"73 523 OFFCURVE",
"73 517 CURVE SMOOTH",
"73 497 LINE SMOOTH",
"73 489 OFFCURVE",
"73 481 OFFCURVE",
"72 473 CURVE",
"80 482 LINE",
"80 471 OFFCURVE",
"76 473 OFFCURVE",
"71 469 CURVE",
"71 436 OFFCURVE",
"68 403 OFFCURVE",
"68 370 CURVE SMOOTH",
"68 362 OFFCURVE",
"68 354 OFFCURVE",
"69 346 CURVE",
"68 337 OFFCURVE",
"68 329 OFFCURVE",
"68 320 CURVE SMOOTH",
"68 312 OFFCURVE",
"68 303 OFFCURVE",
"69 295 CURVE",
"69 266 OFFCURVE",
"68 237 OFFCURVE",
"68 208 CURVE SMOOTH",
"68 194 OFFCURVE",
"68 179 OFFCURVE",
"69 165 CURVE SMOOTH",
"66 196 OFFCURVE",
"64 228 OFFCURVE",
"64 259 CURVE SMOOTH",
"64 367 LINE SMOOTH",
"64 380 OFFCURVE",
"63 391 OFFCURVE",
"63 403 CURVE SMOOTH",
"63 423 OFFCURVE",
"65 442 OFFCURVE",
"65 462 CURVE SMOOTH",
"65 473 LINE SMOOTH",
"65 480 OFFCURVE",
"66 488 OFFCURVE",
"66 495 CURVE SMOOTH",
"66 503 OFFCURVE",
"65 510 OFFCURVE",
"65 518 CURVE SMOOTH",
"66 528 OFFCURVE",
"67 538 OFFCURVE",
"67 548 CURVE SMOOTH",
"67 555 OFFCURVE",
"66 563 OFFCURVE",
"66 572 CURVE SMOOTH",
"66 576 LINE SMOOTH",
"66 578 OFFCURVE",
"67 579 OFFCURVE",
"70 580 CURVE",
"70 580 LINE"
);
},
{
closed = 1;
nodes = (
"137 539 OFFCURVE",
"142 526 OFFCURVE",
"147 513 CURVE",
"161 450 OFFCURVE",
"178 410 OFFCURVE",
"208 307 CURVE SMOOTH",
"223 254 OFFCURVE",
"240 201 OFFCURVE",
"258 148 CURVE SMOOTH",
"263 134 OFFCURVE",
"270 122 OFFCURVE",
"272 107 CURVE",
"247 159 OFFCURVE",
"227 221 OFFCURVE",
"205 294 CURVE SMOOTH",
"190 343 OFFCURVE",
"168 395 OFFCURVE",
"143 489 CURVE SMOOTH",
"137 512 OFFCURVE",
"133 533 OFFCURVE",
"122 555 CURVE",
"136 553 LINE"
);
},
{
closed = 1;
nodes = (
"104 547 OFFCURVE",
"109 543 OFFCURVE",
"115 538 CURVE",
"107 538 OFFCURVE",
"98 539 OFFCURVE",
"98 550 CURVE",
"98 550 LINE"
);
},
{
closed = 1;
nodes = (
"72 547 OFFCURVE",
"74 543 OFFCURVE",
"72 538 CURVE",
"85 535 LINE",
"79 549 LINE"
);
},
{
closed = 1;
nodes = (
"157 540 OFFCURVE",
"160 540 OFFCURVE",
"162 541 CURVE",
"162 535 LINE SMOOTH",
"162 526 OFFCURVE",
"164 519 OFFCURVE",
"168 510 CURVE",
"166 507 LINE",
"161 507 OFFCURVE",
"160 511 OFFCURVE",
"160 516 CURVE SMOOTH",
"160 525 LINE",
"157 524 OFFCURVE",
"153 523 OFFCURVE",
"149 521 CURVE",
"156 527 LINE",
"155 531 OFFCURVE",
"155 536 OFFCURVE",
"155 540 CURVE",
"155 540 LINE"
);
},
{
closed = 1;
nodes = (
"41 536 OFFCURVE",
"42 534 OFFCURVE",
"42 533 CURVE SMOOTH",
"42 532 OFFCURVE",
"41 530 OFFCURVE",
"40 530 CURVE SMOOTH",
"38 530 OFFCURVE",
"37 531 OFFCURVE",
"37 532 CURVE SMOOTH",
"37 534 OFFCURVE",
"38 535 OFFCURVE",
"40 536 CURVE",
"40 536 LINE"
);
},
{
closed = 1;
nodes = (
"123 526 OFFCURVE",
"123 509 OFFCURVE",
"126 494 CURVE",
"128 489 OFFCURVE",
"131 484 OFFCURVE",
"131 479 CURVE",
"127 459 LINE",
"116 475 OFFCURVE",
"118 487 OFFCURVE",
"113 499 CURVE",
"117 510 LINE",
"111 506 LINE",
"106 529 LINE",
"107 530 OFFCURVE",
"109 530 OFFCURVE",
"110 530 CURVE",
"110 532 OFFCURVE",
"109 534 OFFCURVE",
"109 536 CURVE",
"109 536 LINE"
);
},
{
closed = 1;
nodes = (
"197 445 OFFCURVE",
"217 395 OFFCURVE",
"226 377 CURVE",
"221 409 OFFCURVE",
"209 445 OFFCURVE",
"197 476 CURVE",
"197 476 LINE"
);
},
{
closed = 1;
nodes = (
"132 453 OFFCURVE",
"134 450 OFFCURVE",
"134 447 CURVE SMOOTH",
"134 446 OFFCURVE",
"133 444 OFFCURVE",
"132 444 CURVE SMOOTH",
"130 445 OFFCURVE",
"128 448 OFFCURVE",
"128 450 CURVE SMOOTH",
"128 451 OFFCURVE",
"128 452 OFFCURVE",
"129 453 CURVE",
"129 453 LINE"
);
},
{
closed = 1;
nodes = (
"147 403 OFFCURVE",
"146 392 OFFCURVE",
"158 384 CURVE",
"158 375 OFFCURVE",
"158 366 OFFCURVE",
"157 357 CURVE",
"149 375 OFFCURVE",
"143 395 OFFCURVE",
"141 415 CURVE",
"141 415 LINE"
);
},
{
closed = 1;
nodes = (
"169 349 OFFCURVE",
"167 346 OFFCURVE",
"167 341 CURVE SMOOTH",
"167 337 OFFCURVE",
"172 333 OFFCURVE",
"175 330 CURVE",
"174 327 OFFCURVE",
"174 324 OFFCURVE",
"174 322 CURVE SMOOTH",
"174 319 OFFCURVE",
"174 316 OFFCURVE",
"175 313 CURVE SMOOTH",
"187 269 OFFCURVE",
"204 224 OFFCURVE",
"220 179 CURVE SMOOTH",
"234 140 OFFCURVE",
"268 70 OFFCURVE",
"273 29 CURVE",
"260 42 OFFCURVE",
"258 60 OFFCURVE",
"249 77 CURVE SMOOTH",
"227 120 OFFCURVE",
"212 186 OFFCURVE",
"196 238 CURVE",
"193 232 LINE",
"182 266 OFFCURVE",
"161 317 OFFCURVE",
"161 351 CURVE",
"170 353 LINE"
);
},
{
closed = 1;
nodes = (
"342 130 OFFCURVE",
"343 128 OFFCURVE",
"343 127 CURVE SMOOTH",
"343 126 OFFCURVE",
"342 124 OFFCURVE",
"340 124 CURVE SMOOTH",
"338 124 OFFCURVE",
"336 126 OFFCURVE",
"336 127 CURVE SMOOTH",
"336 129 OFFCURVE",
"338 130 OFFCURVE",
"340 130 CURVE SMOOTH",
"340 130 LINE"
);
}
);
width = 391;
}
);
unicode = 004E;
},
{
glyphname = O;
lastChange = "2019-03-20 22:30:11 +0000";
layers = (
{
hints = (
{
place = "{16, 19}";
type = Stem;
},
{
place = "{40, 22}";
type = Stem;
},
{
place = "{65, 21}";
type = Stem;
},
{
place = "{73, 20}";
type = Stem;
},
{
place = "{76, 19}";
type = Stem;
},
{
place = "{91, 15}";
type = Stem;
},
{
place = "{159, 10}";
type = Stem;
},
{
place = "{241, 19}";
type = Stem;
},
{
place = "{267, 45}";
type = Stem;
},
{
place = "{313, 9}";
type = Stem;
},
{
horizontal = 1;
place = "{-17, 48}";
type = Stem;
},
{
horizontal = 1;
place = "{649, 59}";
type = Stem;
},
{
horizontal = 1;
place = "{659, 49}";
type = Stem;
},
{
horizontal = 1;
place = "{666, 42}";
type = Stem;
},
{
horizontal = 1;
place = "{674, 34}";
type = Stem;
}
);
layerId = UUID0;
paths = (
{
closed = 1;
nodes = (
"107 708 OFFCURVE",
"84 626 OFFCURVE",
"79 609 CURVE SMOOTH",
"56 534 OFFCURVE",
"44 457 OFFCURVE",
"33 379 CURVE SMOOTH",
"22 307 OFFCURVE",
"16 239 OFFCURVE",
"16 166 CURVE SMOOTH",
"16 123 OFFCURVE",
"23 -17 OFFCURVE",
"130 -17 CURVE SMOOTH",
"169 -17 OFFCURVE",
"219 23 OFFCURVE",
"241 67 CURVE SMOOTH",
"258 100 OFFCURVE",
"271 70 OFFCURVE",
"292 142 CURVE SMOOTH",
"318 234 OFFCURVE",
"330 338 OFFCURVE",
"330 430 CURVE SMOOTH",
"330 473 OFFCURVE",
"326 554 OFFCURVE",
"308 590 CURVE",
"308 575 OFFCURVE",
"311 562 OFFCURVE",
"313 547 CURVE SMOOTH",
"319 504 OFFCURVE",
"326 465 OFFCURVE",
"326 421 CURVE SMOOTH",
"326 388 OFFCURVE",
"323 354 OFFCURVE",
"319 321 CURVE SMOOTH",
"319 325 OFFCURVE",
"318 329 OFFCURVE",
"318 334 CURVE SMOOTH",
"318 360 OFFCURVE",
"322 386 OFFCURVE",
"322 413 CURVE SMOOTH",
"322 464 OFFCURVE",
"314 515 OFFCURVE",
"306 565 CURVE SMOOTH",
"303 584 OFFCURVE",
"257 597 OFFCURVE",
"251 620 CURVE SMOOTH",
"246 637 OFFCURVE",
"247 653 OFFCURVE",
"236 669 CURVE",
"217 690 OFFCURVE",
"206 709 OFFCURVE",
"173 709 CURVE",
"164 708 OFFCURVE",
"154 708 OFFCURVE",
"144 708 CURVE SMOOTH",
"144 708 LINE"
);
},
{
closed = 1;
nodes = (
"156 663 LINE SMOOTH",
"149 646 OFFCURVE",
"149 647 OFFCURVE",
"145 629 CURVE SMOOTH",
"145 627 OFFCURVE",
"144 626 OFFCURVE",
"144 624 CURVE SMOOTH",
"125 540 OFFCURVE",
"113 458 OFFCURVE",
"105 375 CURVE SMOOTH",
"99 314 OFFCURVE",
"91 255 OFFCURVE",
"91 195 CURVE SMOOTH",
"91 144 OFFCURVE",
"94 90 OFFCURVE",
"109 48 CURVE",
"104 57 OFFCURVE",
"100 67 OFFCURVE",
"98 77 CURVE SMOOTH",
"89 123 OFFCURVE",
"86 115 OFFCURVE",
"86 186 CURVE SMOOTH",
"86 205 OFFCURVE",
"89 225 OFFCURVE",
"89 245 CURVE SMOOTH",
"89 257 OFFCURVE",
"87 268 OFFCURVE",
"86 279 CURVE",
"90 271 LINE",
"93 282 OFFCURVE",
"93 285 OFFCURVE",
"93 296 CURVE SMOOTH",
"93 306 OFFCURVE",
"92 315 OFFCURVE",
"90 324 CURVE",
"92 320 OFFCURVE",
"94 321 OFFCURVE",
"95 317 CURVE",
"99 334 OFFCURVE",
"98 344 OFFCURVE",
"100 361 CURVE SMOOTH",
"109 433 OFFCURVE",
"118 502 OFFCURVE",
"129 571 CURVE SMOOTH",
"132 592 OFFCURVE",
"143 626 OFFCURVE",
"143 636 CURVE SMOOTH",
"143 639 OFFCURVE",
"146 663 OFFCURVE",
"159 674 CURVE",
"159 670 LINE"
);
},
{
closed = 1;
nodes = (
"89 573 OFFCURVE",
"69 474 OFFCURVE",
"55 366 CURVE SMOOTH",
"47 304 OFFCURVE",
"40 243 OFFCURVE",
"40 180 CURVE SMOOTH",
"40 155 OFFCURVE",
"41 144 OFFCURVE",
"46 109 CURVE SMOOTH",
"48 94 OFFCURVE",
"52 79 OFFCURVE",
"52 64 CURVE",
"41 95 OFFCURVE",
"35 88 OFFCURVE",
"35 131 CURVE SMOOTH",
"35 140 OFFCURVE",
"36 148 OFFCURVE",
"36 157 CURVE SMOOTH",
"36 176 OFFCURVE",
"35 195 OFFCURVE",
"35 214 CURVE SMOOTH",
"35 316 OFFCURVE",
"53 433 OFFCURVE",
"75 535 CURVE SMOOTH",
"79 552 OFFCURVE",
"89 581 OFFCURVE",
"89 595 CURVE SMOOTH",
"89 597 OFFCURVE",
"88 597 OFFCURVE",
"88 599 CURVE SMOOTH",
"88 614 OFFCURVE",
"99 651 OFFCURVE",
"119 666 CURVE",
"119 666 LINE"
);
},
{
closed = 1;
nodes = (
"179 647 OFFCURVE",
"181 629 OFFCURVE",
"185 614 CURVE SMOOTH",
"192 587 OFFCURVE",
"213 594 OFFCURVE",
"215 567 CURVE SMOOTH",
"216 555 OFFCURVE",
"224 545 OFFCURVE",
"225 533 CURVE",
"232 484 OFFCURVE",
"241 438 OFFCURVE",
"241 386 CURVE SMOOTH",
"241 265 OFFCURVE",
"217 177 OFFCURVE",
"175 85 CURVE SMOOTH",
"166 65 OFFCURVE",
"158 47 OFFCURVE",
"142 31 CURVE",
"113 62 OFFCURVE",
"106 119 OFFCURVE",
"106 155 CURVE SMOOTH",
"106 242 OFFCURVE",
"118 327 OFFCURVE",
"125 413 CURVE SMOOTH",
"130 474 OFFCURVE",
"137 534 OFFCURVE",
"151 593 CURVE SMOOTH",
"158 625 OFFCURVE",
"153 630 OFFCURVE",
"169 659 CURVE",
"169 659 LINE"
);
},
{
closed = 1;
nodes = (
"127 495 OFFCURVE",
"101 297 OFFCURVE",
"101 162 CURVE SMOOTH",
"101 144 OFFCURVE",
"111 106 OFFCURVE",
"114 68 CURVE",
"110 76 OFFCURVE",
"107 84 OFFCURVE",
"105 93 CURVE SMOOTH",
"99 122 OFFCURVE",
"97 107 OFFCURVE",
"97 169 CURVE SMOOTH",
"97 243 OFFCURVE",
"107 315 OFFCURVE",
"113 387 CURVE SMOOTH",
"119 467 OFFCURVE",
"127 545 OFFCURVE",
"145 613 CURVE SMOOTH",
"148 626 OFFCURVE",
"151 638 OFFCURVE",
"159 649 CURVE",
"159 649 LINE"
);
},
{
closed = 1;
nodes = (
"298 561 OFFCURVE",
"298 554 OFFCURVE",
"298 546 CURVE",
"295 568 LINE"
);
},
{
closed = 1;
nodes = (
"308 508 OFFCURVE",
"313 466 OFFCURVE",
"313 426 CURVE SMOOTH",
"313 414 OFFCURVE",
"312 402 OFFCURVE",
"312 391 CURVE SMOOTH",
"311 426 OFFCURVE",
"310 462 OFFCURVE",
"306 497 CURVE SMOOTH",
"304 513 OFFCURVE",
"300 529 OFFCURVE",
"300 545 CURVE",
"300 545 LINE"
);
},
{
closed = 1;
nodes = (
"97 503 OFFCURVE",
"98 501 OFFCURVE",
"98 499 CURVE SMOOTH",
"98 497 OFFCURVE",
"97 495 OFFCURVE",
"95 495 CURVE SMOOTH",
"94 495 OFFCURVE",
"93 498 OFFCURVE",
"93 499 CURVE SMOOTH",
"93 500 OFFCURVE",
"94 502 OFFCURVE",
"95 503 CURVE",
"95 503 LINE"
);
},
{
closed = 1;
nodes = (
"94 451 OFFCURVE",
"84 394 OFFCURVE",
"77 349 CURVE",
"77 393 OFFCURVE",
"82 445 OFFCURVE",
"94 491 CURVE",
"94 491 LINE"
);
},
{
closed = 1;
nodes = (
"263 448 OFFCURVE",
"267 416 OFFCURVE",
"267 386 CURVE SMOOTH",
"267 371 OFFCURVE",
"262 217 OFFCURVE",
"244 199 CURVE",
"251 251 OFFCURVE",
"260 321 OFFCURVE",
"260 388 CURVE SMOOTH",
"260 416 OFFCURVE",
"257 445 OFFCURVE",
"257 473 CURVE",
"257 473 LINE"
);
},
{
closed = 1;
nodes = (
"75 344 OFFCURVE",
"76 341 OFFCURVE",
"76 338 CURVE SMOOTH",
"76 335 OFFCURVE",
"75 331 OFFCURVE",
"75 328 CURVE SMOOTH",
"74 331 OFFCURVE",
"74 335 OFFCURVE",
"74 338 CURVE SMOOTH",
"74 341 OFFCURVE",
"74 344 OFFCURVE",
"75 348 CURVE SMOOTH",
"75 348 LINE"
);
},
{
closed = 1;
nodes = (
"73 290 OFFCURVE",
"69 247 OFFCURVE",
"65 211 CURVE",
"64 216 OFFCURVE",
"64 222 OFFCURVE",
"64 227 CURVE SMOOTH",
"64 260 OFFCURVE",
"69 294 OFFCURVE",
"73 327 CURVE",
"73 327 LINE"
);
},
{
closed = 1;
nodes = (
"65 199 OFFCURVE",
"65 191 OFFCURVE",
"65 182 CURVE SMOOTH",
"65 173 OFFCURVE",
"65 164 OFFCURVE",
"64 156 CURVE",
"62 164 OFFCURVE",
"62 173 OFFCURVE",
"62 182 CURVE SMOOTH",
"62 191 OFFCURVE",
"62 199 OFFCURVE",
"64 208 CURVE",
"64 208 LINE"
);
}
);
width = 349;
}
);
unicode = 004F;
},
{
glyphname = P;
lastChange = "2019-03-20 22:30:11 +0000";
layers = (
{
hints = (
{
place = "{12, 9}";
type = Stem;
},
{
place = "{48, 42}";
type = Stem;
},
{
place = "{92, 25}";
type = Stem;
},
{
place = "{92, 40}";
type = Stem;
},
{
place = "{106, 10}";
type = Stem;
},
{
place = "{147, 12}";
type = Stem;
},
{
place = "{259, 80}";
type = Stem;
},
{
horizontal = 1;
place = "{-18, 21}";
target = up;
type = BottomGhost;
},
{
horizontal = 1;
place = "{-15, 21}";
target = up;
type = BottomGhost;
},
{
horizontal = 1;
place = "{-8, 21}";
target = up;
type = BottomGhost;
},
{
horizontal = 1;
place = "{-6, 21}";
target = up;
type = BottomGhost;
},
{
horizontal = 1;
place = "{0, 21}";
target = up;
type = BottomGhost;
},
{
horizontal = 1;
place = "{575, 22}";
type = Stem;
},
{
horizontal = 1;
place = "{647, 40}";
type = Stem;
}
);
layerId = UUID0;
paths = (
{
closed = 1;
nodes = (
"95 681 OFFCURVE",
"81 675 OFFCURVE",
"65 670 CURVE SMOOTH",
"53 666 OFFCURVE",
"12 620 OFFCURVE",
"12 598 CURVE SMOOTH",
"12 585 OFFCURVE",
"25 575 OFFCURVE",
"32 575 CURVE SMOOTH",
"38 575 OFFCURVE",
"44 578 OFFCURVE",
"48 580 CURVE",
"49 574 OFFCURVE",
"49 568 OFFCURVE",
"49 561 CURVE SMOOTH",
"49 551 OFFCURVE",
"48 540 OFFCURVE",
"48 529 CURVE SMOOTH",
"48 483 OFFCURVE",
"58 435 OFFCURVE",
"58 390 CURVE",
"48 386 OFFCURVE",
"36 380 OFFCURVE",
"36 367 CURVE SMOOTH",
"36 363 OFFCURVE",
"38 358 OFFCURVE",
"44 358 CURVE SMOOTH",
"49 358 OFFCURVE",
"55 359 OFFCURVE",
"59 360 CURVE",
"59 345 OFFCURVE",
"66 326 OFFCURVE",
"67 308 CURVE SMOOTH",
"72 230 OFFCURVE",
"79 152 OFFCURVE",
"86 75 CURVE SMOOTH",
"88 47 OFFCURVE",
"88 1 OFFCURVE",
"107 -15 CURVE",
"107 50 OFFCURVE",
"90 134 OFFCURVE",
"90 199 CURVE SMOOTH",
"90 216 LINE SMOOTH",
"90 253 OFFCURVE",
"80 298 OFFCURVE",
"80 335 CURVE SMOOTH",
"80 339 OFFCURVE",
"80 342 OFFCURVE",
"81 346 CURVE",
"86 329 OFFCURVE",
"85 313 OFFCURVE",
"87 295 CURVE SMOOTH",
"89 280 OFFCURVE",
"92 263 OFFCURVE",
"92 247 CURVE SMOOTH",
"92 243 LINE SMOOTH",
"93 209 OFFCURVE",
"98 177 OFFCURVE",
"100 142 CURVE SMOOTH",
"101 118 OFFCURVE",
"106 94 OFFCURVE",
"106 69 CURVE SMOOTH",
"106 58 LINE SMOOTH",
"106 32 OFFCURVE",
"106 -7 OFFCURVE",
"127 -18 CURVE",
"128 -11 OFFCURVE",
"128 -5 OFFCURVE",
"128 2 CURVE SMOOTH",
"128 51 OFFCURVE",
"116 105 OFFCURVE",
"116 176 CURVE SMOOTH",
"116 195 LINE SMOOTH",
"116 213 OFFCURVE",
"109 241 OFFCURVE",
"109 254 CURVE SMOOTH",
"109 260 OFFCURVE",
"110 265 OFFCURVE",
"110 271 CURVE SMOOTH",
"110 292 OFFCURVE",
"106 313 OFFCURVE",
"106 334 CURVE SMOOTH",
"106 339 OFFCURVE",
"106 345 OFFCURVE",
"107 350 CURVE",
"114 335 OFFCURVE",
"113 300 OFFCURVE",
"115 276 CURVE SMOOTH",
"120 197 OFFCURVE",
"123 119 OFFCURVE",
"128 40 CURVE SMOOTH",
"129 24 OFFCURVE",
"130 9 OFFCURVE",
"136 -6 CURVE",
"147 1 OFFCURVE",
"147 9 OFFCURVE",
"147 24 CURVE",
"148 12 OFFCURVE",
"150 3 OFFCURVE",
"155 -8 CURVE",
"156 -3 OFFCURVE",
"156 2 OFFCURVE",
"156 7 CURVE SMOOTH",
"156 21 OFFCURVE",
"154 35 OFFCURVE",
"153 49 CURVE SMOOTH",
"149 106 OFFCURVE",
"153 164 OFFCURVE",
"148 221 CURVE SMOOTH",
"145 262 OFFCURVE",
"138 306 OFFCURVE",
"138 341 CURVE SMOOTH",
"138 346 OFFCURVE",
"138 351 OFFCURVE",
"139 356 CURVE",
"143 346 OFFCURVE",
"142 335 OFFCURVE",
"144 325 CURVE SMOOTH",
"153 269 OFFCURVE",
"155 210 OFFCURVE",
"155 153 CURVE SMOOTH",
"155 88 LINE SMOOTH",
"155 60 OFFCURVE",
"156 27 OFFCURVE",
"162 0 CURVE",
"162 7 LINE SMOOTH",
"162 36 OFFCURVE",
"158 67 OFFCURVE",
"158 97 CURVE SMOOTH",
"158 111 OFFCURVE",
"159 125 OFFCURVE",
"159 138 CURVE SMOOTH",
"159 212 OFFCURVE",
"151 286 OFFCURVE",
"144 359 CURVE",
"170 372 OFFCURVE",
"199 381 OFFCURVE",
"224 396 CURVE",
"228 397 OFFCURVE",
"270 428 OFFCURVE",
"282 442 CURVE SMOOTH",
"311 476 OFFCURVE",
"339 519 OFFCURVE",
"339 563 CURVE SMOOTH",
"339 648 OFFCURVE",
"214 687 OFFCURVE",
"142 687 CURVE SMOOTH",
"132 687 OFFCURVE",
"122 686 OFFCURVE",
"112 685 CURVE",
"112 685 LINE"
);
},
{
closed = 1;
nodes = (
"219 634 OFFCURVE",
"259 613 OFFCURVE",
"259 573 CURVE SMOOTH",
"259 515 OFFCURVE",
"183 450 OFFCURVE",
"129 427 CURVE",
"123 469 OFFCURVE",
"117 513 OFFCURVE",
"117 556 CURVE SMOOTH",
"117 564 LINE SMOOTH",
"117 581 OFFCURVE",
"113 595 OFFCURVE",
"113 611 CURVE SMOOTH",
"113 642 OFFCURVE",
"135 647 OFFCURVE",
"162 647 CURVE SMOOTH",
"169 647 OFFCURVE",
"177 646 OFFCURVE",
"184 644 CURVE SMOOTH",
"184 644 LINE"
);
},
{
closed = 1;
nodes = (
"34 611 OFFCURVE",
"32 604 OFFCURVE",
"29 597 CURVE",
"26 597 OFFCURVE",
"23 598 OFFCURVE",
"21 598 CURVE",
"24 606 OFFCURVE",
"27 614 OFFCURVE",
"36 619 CURVE",
"36 619 LINE"
);
},
{
closed = 1;
nodes = (
"92 532 OFFCURVE",
"92 523 OFFCURVE",
"94 514 CURVE",
"93 514 OFFCURVE",
"91 513 OFFCURVE",
"90 512 CURVE",
"90 518 LINE SMOOTH",
"90 529 OFFCURVE",
"87 539 OFFCURVE",
"87 549 CURVE SMOOTH",
"87 552 OFFCURVE",
"89 554 OFFCURVE",
"92 557 CURVE",
"92 540 LINE"
);
},
{
closed = 1;
nodes = (
"333 529 OFFCURVE",
"322 506 OFFCURVE",
"308 485 CURVE",
"317 508 OFFCURVE",
"324 531 OFFCURVE",
"333 555 CURVE",
"333 555 LINE"
);
},
{
closed = 1;
nodes = (
"275 526 OFFCURVE",
"258 501 OFFCURVE",
"245 484 CURVE",
"237 494 LINE",
"243 500 LINE",
"243 503 OFFCURVE",
"242 506 OFFCURVE",
"241 508 CURVE",
"247 503 LINE",
"260 517 OFFCURVE",
"266 534 OFFCURVE",
"275 550 CURVE",
"275 550 LINE"
);
},
{
closed = 1;
nodes = (
"69 539 OFFCURVE",
"70 537 OFFCURVE",
"70 533 CURVE",
"63 533 LINE",
"69 542 LINE"
);
},
{
closed = 1;
nodes = (
"110 529 OFFCURVE",
"111 527 OFFCURVE",
"111 525 CURVE SMOOTH",
"111 523 OFFCURVE",
"110 522 OFFCURVE",
"108 522 CURVE SMOOTH",
"107 522 OFFCURVE",
"106 524 OFFCURVE",
"106 526 CURVE SMOOTH",
"106 527 OFFCURVE",
"106 528 OFFCURVE",
"107 529 CURVE",
"107 529 LINE"
);
},
{
closed = 1;
nodes = (
"143 230 OFFCURVE",
"147 136 OFFCURVE",
"147 44 CURVE SMOOTH",
"147 28 LINE",
"139 73 OFFCURVE",
"142 128 OFFCURVE",
"140 178 CURVE SMOOTH",
"138 223 OFFCURVE",
"132 269 OFFCURVE",
"132 312 CURVE SMOOTH",
"132 320 LINE"
);
}
);
width = 358;
}
);
unicode = 0050;
},
{
glyphname = Q;
lastChange = "2019-03-20 22:30:11 +0000";
layers = (
{
hints = (
{
place = "{11, 16}";
type = Stem;
},
{
place = "{31, 52}";
type = Stem;
},
{
place = "{187, 17}";
type = Stem;
},
{
place = "{373, 23}";
type = Stem;
},
{
place = "{400, 34}";
type = Stem;
},
{
place = "{434, 10}";
type = Stem;
},
{
horizontal = 1;
place = "{-12, 46}";
type = Stem;
},
{
horizontal = 1;
place = "{306, 12}";
type = Stem;
},
{
horizontal = 1;
place = "{656, 49}";
type = Stem;
},
{
horizontal = 1;
place = "{705, -20}";
target = down;
type = TopGhost;
}
);
layerId = UUID0;
paths = (
{
closed = 1;
nodes = (
"224 704 OFFCURVE",
"216 705 OFFCURVE",
"208 705 CURVE SMOOTH",
"134 705 OFFCURVE",
"60 577 OFFCURVE",
"40 504 CURVE SMOOTH",
"22 440 OFFCURVE",
"11 372 OFFCURVE",
"11 306 CURVE SMOOTH",
"11 225 OFFCURVE",
"38 -12 OFFCURVE",
"197 -12 CURVE SMOOTH",
"252 -12 OFFCURVE",
"299 27 OFFCURVE",
"344 66 CURVE",
"354 37 OFFCURVE",
"408 -39 OFFCURVE",
"451 -39 CURVE SMOOTH",
"453 -39 OFFCURVE",
"455 -38 OFFCURVE",
"457 -38 CURVE SMOOTH",
"475 -34 OFFCURVE",
"477 -26 OFFCURVE",
"484 -16 CURVE",
"484 -12 LINE SMOOTH",
"484 -7 OFFCURVE",
"483 -3 OFFCURVE",
"479 2 CURVE SMOOTH",
"451 31 OFFCURVE",
"444 46 OFFCURVE",
"424 79 CURVE SMOOTH",
"415 93 OFFCURVE",
"389 122 OFFCURVE",
"389 131 CURVE SMOOTH",
"389 135 OFFCURVE",
"392 140 OFFCURVE",
"393 144 CURVE",
"422 200 OFFCURVE",
"444 278 OFFCURVE",
"444 346 CURVE SMOOTH",
"444 424 OFFCURVE",
"423 482 OFFCURVE",
"381 547 CURVE SMOOTH",
"377 553 OFFCURVE",
"373 558 OFFCURVE",
"371 565 CURVE SMOOTH",
"366 586 OFFCURVE",
"346 606 OFFCURVE",
"336 625 CURVE SMOOTH",
"306 681 OFFCURVE",
"279 692 OFFCURVE",
"231 703 CURVE SMOOTH",
"231 703 LINE"
);
},
{
closed = 1;
nodes = (
"249 643 OFFCURVE",
"273 623 OFFCURVE",
"282 605 CURVE",
"277 599 OFFCURVE",
"270 592 OFFCURVE",
"270 584 CURVE SMOOTH",
"270 578 OFFCURVE",
"275 573 OFFCURVE",
"278 568 CURVE SMOOTH",
"285 557 OFFCURVE",
"311 513 OFFCURVE",
"316 513 CURVE SMOOTH",
"318 513 OFFCURVE",
"321 514 OFFCURVE",
"323 514 CURVE SMOOTH",
"342 514 OFFCURVE",
"343 435 OFFCURVE",
"346 413 CURVE SMOOTH",
"348 398 OFFCURVE",
"349 383 OFFCURVE",
"349 367 CURVE SMOOTH",
"349 317 OFFCURVE",
"340 263 OFFCURVE",
"324 216 CURVE",
"319 223 OFFCURVE",
"261 318 OFFCURVE",
"228 318 CURVE SMOOTH",
"225 318 OFFCURVE",
"221 315 OFFCURVE",
"218 313 CURVE",
"218 311 OFFCURVE",
"219 308 OFFCURVE",
"220 306 CURVE SMOOTH",
"210 316 LINE",
"204 303 LINE",
"193 315 LINE",
"189 311 OFFCURVE",
"187 308 OFFCURVE",
"187 302 CURVE SMOOTH",
"187 298 OFFCURVE",
"275 191 OFFCURVE",
"298 137 CURVE",
"291 120 OFFCURVE",
"248 34 OFFCURVE",
"210 34 CURVE SMOOTH",
"175 34 OFFCURVE",
"121 89 OFFCURVE",
"121 114 CURVE SMOOTH",
"121 117 OFFCURVE",
"124 118 OFFCURVE",
"124 122 CURVE",
"105 173 OFFCURVE",
"92 233 OFFCURVE",
"92 288 CURVE SMOOTH",
"92 362 OFFCURVE",
"102 438 OFFCURVE",
"124 509 CURVE SMOOTH",
"135 544 OFFCURVE",
"147 553 OFFCURVE",
"167 585 CURVE SMOOTH",
"184 612 OFFCURVE",
"206 646 OFFCURVE",
"233 656 CURVE",
"233 656 LINE"
);
},
{
closed = 1;
nodes = (
"100 563 OFFCURVE",
"82 542 OFFCURVE",
"75 524 CURVE SMOOTH",
"47 453 OFFCURVE",
"31 363 OFFCURVE",
"31 282 CURVE SMOOTH",
"31 264 OFFCURVE",
"38 236 OFFCURVE",
"38 219 CURVE SMOOTH",
"38 209 LINE SMOOTH",
"38 200 OFFCURVE",
"44 193 OFFCURVE",
"46 185 CURVE",
"44 183 OFFCURVE",
"43 180 OFFCURVE",
"42 177 CURVE",
"31 216 OFFCURVE",
"27 257 OFFCURVE",
"27 298 CURVE SMOOTH",
"27 406 OFFCURVE",
"51 488 OFFCURVE",
"90 569 CURVE SMOOTH",
"95 578 OFFCURVE",
"99 588 OFFCURVE",
"107 594 CURVE",
"107 594 LINE"
);
},
{
closed = 1;
nodes = (
"150 571 OFFCURVE",
"136 558 OFFCURVE",
"131 547 CURVE SMOOTH",
"91 456 OFFCURVE",
"89 397 OFFCURVE",
"89 280 CURVE",
"92 230 OFFCURVE",
"103 188 OFFCURVE",
"113 134 CURVE",
"90 171 OFFCURVE",
"83 263 OFFCURVE",
"83 314 CURVE SMOOTH",
"83 413 OFFCURVE",
"93 479 OFFCURVE",
"124 548 CURVE SMOOTH",
"129 560 OFFCURVE",
"147 573 OFFCURVE",
"154 583 CURVE",
"154 583 LINE"
);
},
{
closed = 1;
nodes = (
"438 380 OFFCURVE",
"438 374 OFFCURVE",
"438 367 CURVE SMOOTH",
"438 353 LINE SMOOTH",
"438 317 OFFCURVE",
"434 276 OFFCURVE",
"422 242 CURVE",
"423 259 OFFCURVE",
"428 274 OFFCURVE",
"429 291 CURVE",
"434 322 OFFCURVE",
"434 354 OFFCURVE",
"434 387 CURVE",
"434 387 LINE"
);
},
{
closed = 1;
nodes = (
"373 358 OFFCURVE",
"373 353 OFFCURVE",
"373 348 CURVE SMOOTH",
"373 341 LINE SMOOTH",
"373 307 OFFCURVE",
"368 248 OFFCURVE",
"350 224 CURVE",
"356 270 OFFCURVE",
"362 314 OFFCURVE",
"370 361 CURVE",
"370 361 LINE"
);
},
{
closed = 1;
nodes = (
"399 354 OFFCURVE",
"400 350 OFFCURVE",
"400 345 CURVE SMOOTH",
"400 333 OFFCURVE",
"398 320 OFFCURVE",
"396 309 CURVE",
"396 315 LINE SMOOTH",
"396 329 OFFCURVE",
"396 346 OFFCURVE",
"398 360 CURVE",
"398 360 LINE"
);
}
);
width = 497;
}
);
unicode = 0051;
},
{
glyphname = R;
lastChange = "2019-03-20 22:30:11 +0000";
layers = (
{
hints = (
{
place = "{16, 11}";
type = Stem;
},
{
place = "{40, 17}";
type = Stem;
},
{
place = "{78, 17}";
type = Stem;
},
{
place = "{98, 19}";
type = Stem;
},
{
place = "{99, 23}";
type = Stem;
},
{
place = "{117, 13}";
type = Stem;
},
{
place = "{138, 16}";
type = Stem;
},
{
place = "{264, 73}";
type = Stem;
},
{
place = "{343, 12}";
type = Stem;
},
{
place = "{355, 7}";
type = Stem;
},
{
horizontal = 1;
place = "{-17, 21}";
target = up;
type = BottomGhost;
},
{
horizontal = 1;
place = "{-14, 21}";
target = up;
type = BottomGhost;
},
{
horizontal = 1;
place = "{-11, 21}";
target = up;
type = BottomGhost;
},
{
horizontal = 1;
place = "{-6, 21}";
target = up;
type = BottomGhost;
},
{
horizontal = 1;
place = "{-2, 21}";
target = up;
type = BottomGhost;
},
{
horizontal = 1;
place = "{0, 21}";
target = up;
type = BottomGhost;
},
{
horizontal = 1;
place = "{667, 36}";
type = Stem;
}
);
layerId = UUID0;
paths = (
{
closed = 1;
nodes = (
"127 702 OFFCURVE",
"99 672 OFFCURVE",
"69 672 CURVE",
"66 666 OFFCURVE",
"64 660 OFFCURVE",
"57 658 CURVE",
"57 664 OFFCURVE",
"57 669 OFFCURVE",
"56 675 CURVE",
"47 673 OFFCURVE",
"40 665 OFFCURVE",
"40 656 CURVE SMOOTH",
"40 632 OFFCURVE",
"17 622 OFFCURVE",
"16 598 CURVE SMOOTH",
"16 587 OFFCURVE",
"31 576 OFFCURVE",
"39 576 CURVE SMOOTH",
"49 576 OFFCURVE",
"47 501 OFFCURVE",
"49 483 CURVE SMOOTH",
"55 414 OFFCURVE",
"49 337 OFFCURVE",
"59 265 CURVE",
"62 185 OFFCURVE",
"58 175 OFFCURVE",
"73 75 CURVE SMOOTH",
"75 62 OFFCURVE",
"78 66 OFFCURVE",
"80 53 CURVE",
"80 35 OFFCURVE",
"80 1 OFFCURVE",
"95 -6 CURVE",
"96 -2 OFFCURVE",
"96 2 OFFCURVE",
"96 6 CURVE SMOOTH",
"96 14 OFFCURVE",
"95 22 OFFCURVE",
"95 30 CURVE",
"101 17 OFFCURVE",
"102 3 OFFCURVE",
"106 -11 CURVE",
"116 -11 OFFCURVE",
"117 -8 OFFCURVE",
"117 -3 CURVE SMOOTH",
"117 5 LINE SMOOTH",
"117 11 OFFCURVE",
"116 17 OFFCURVE",
"116 23 CURVE",
"125 -2 LINE",
"132 3 OFFCURVE",
"133 7 OFFCURVE",
"135 15 CURVE",
"141 3 LINE",
"150 14 OFFCURVE",
"151 28 OFFCURVE",
"151 39 CURVE SMOOTH",
"151 43 OFFCURVE",
"154 52 OFFCURVE",
"154 66 CURVE SMOOTH",
"154 75 OFFCURVE",
"154 77 OFFCURVE",
"149 91 CURVE",
"149 74 LINE SMOOTH",
"149 64 OFFCURVE",
"148 62 OFFCURVE",
"148 26 CURVE SMOOTH",
"148 20 LINE",
"145 25 OFFCURVE",
"144 31 OFFCURVE",
"144 37 CURVE SMOOTH",
"140 103 OFFCURVE",
"130 156 OFFCURVE",
"130 255 CURVE",
"136 245 OFFCURVE",
"136 232 OFFCURVE",
"137 220 CURVE",
"137 185 OFFCURVE",
"146 149 OFFCURVE",
"146 117 CURVE SMOOTH",
"146 112 OFFCURVE",
"145 112 OFFCURVE",
"145 112 CURVE",
"145 111 OFFCURVE",
"146 109 OFFCURVE",
"148 102 CURVE",
"148 113 LINE SMOOTH",
"148 128 OFFCURVE",
"140 190 OFFCURVE",
"140 227 CURVE SMOOTH",
"140 233 LINE",
"156 217 OFFCURVE",
"186 167 OFFCURVE",
"194 140 CURVE",
"194 140 OFFCURVE",
"192 141 OFFCURVE",
"191 141 CURVE SMOOTH",
"189 141 OFFCURVE",
"186 140 OFFCURVE",
"186 138 CURVE SMOOTH",
"186 136 OFFCURVE",
"194 131 OFFCURVE",
"203 119 CURVE SMOOTH",
"218 97 OFFCURVE",
"258 -14 OFFCURVE",
"288 -14 CURVE SMOOTH",
"291 -14 OFFCURVE",
"294 -13 OFFCURVE",
"298 -12 CURVE",
"301 -14 OFFCURVE",
"307 -17 OFFCURVE",
"311 -17 CURVE SMOOTH",
"319 -17 OFFCURVE",
"320 -6 OFFCURVE",
"320 0 CURVE SMOOTH",
"320 9 OFFCURVE",
"317 17 OFFCURVE",
"315 25 CURVE",
"317 26 OFFCURVE",
"318 26 OFFCURVE",
"320 26 CURVE SMOOTH",
"322 25 OFFCURVE",
"324 23 OFFCURVE",
"325 21 CURVE",
"324 21 OFFCURVE",
"322 20 OFFCURVE",
"320 19 CURVE",
"325 13 OFFCURVE",
"328 7 OFFCURVE",
"331 0 CURVE",
"343 17 LINE",
"355 0 LINE",
"355 27 LINE",
"357 23 OFFCURVE",
"359 19 OFFCURVE",
"362 15 CURVE",
"362 22 LINE SMOOTH",
"362 24 OFFCURVE",
"362 27 OFFCURVE",
"361 29 CURVE SMOOTH",
"347 61 OFFCURVE",
"328 92 OFFCURVE",
"308 121 CURVE",
"279 138 OFFCURVE",
"269 177 OFFCURVE",
"247 213 CURVE",
"233 253 OFFCURVE",
"181 295 OFFCURVE",
"155 337 CURVE",
"185 354 OFFCURVE",
"211 367 OFFCURVE",
"241 392 CURVE SMOOTH",
"247 397 OFFCURVE",
"256 398 OFFCURVE",
"262 404 CURVE SMOOTH",
"280 423 OFFCURVE",
"298 439 OFFCURVE",
"314 476 CURVE SMOOTH",
"328 507 OFFCURVE",
"337 543 OFFCURVE",
"337 579 CURVE SMOOTH",
"337 601 OFFCURVE",
"325 604 OFFCURVE",
"325 613 CURVE SMOOTH",
"325 624 LINE SMOOTH",
"325 627 OFFCURVE",
"325 629 OFFCURVE",
"323 632 CURVE SMOOTH",
"306 652 OFFCURVE",
"314 654 OFFCURVE",
"268 686 CURVE SMOOTH",
"248 699 OFFCURVE",
"217 703 OFFCURVE",
"197 703 CURVE SMOOTH",
"187 703 OFFCURVE",
"178 702 OFFCURVE",
"169 702 CURVE SMOOTH",
"169 702 LINE"
);
},
{
closed = 1;
nodes = (
"261 630 OFFCURVE",
"264 613 OFFCURVE",
"264 595 CURVE SMOOTH",
"264 517 OFFCURVE",
"221 418 OFFCURVE",
"123 385 CURVE",
"116 426 OFFCURVE",
"118 468 OFFCURVE",
"115 511 CURVE SMOOTH",
"112 546 OFFCURVE",
"106 587 OFFCURVE",
"106 624 CURVE",
"110 646 OFFCURVE",
"176 667 OFFCURVE",
"209 667 CURVE SMOOTH",
"226 667 OFFCURVE",
"245 660 OFFCURVE",
"253 644 CURVE SMOOTH",
"253 644 LINE"
);
},
{
closed = 1;
nodes = (
"40 614 OFFCURVE",
"37 604 OFFCURVE",
"28 600 CURVE",
"28 601 OFFCURVE",
"27 602 OFFCURVE",
"27 604 CURVE SMOOTH",
"27 611 OFFCURVE",
"35 620 OFFCURVE",
"42 624 CURVE",
"42 624 LINE"
);
},
{
closed = 1;
nodes = (
"278 557 OFFCURVE",
"280 549 OFFCURVE",
"280 541 CURVE SMOOTH",
"280 535 OFFCURVE",
"269 480 OFFCURVE",
"248 466 CURVE",
"250 476 OFFCURVE",
"255 484 OFFCURVE",
"259 493 CURVE SMOOTH",
"268 510 OFFCURVE",
"271 540 OFFCURVE",
"278 565 CURVE",
"278 565 LINE"
);
},
{
closed = 1;
nodes = (
"324 535 OFFCURVE",
"325 534 OFFCURVE",
"325 531 CURVE SMOOTH",
"325 529 OFFCURVE",
"324 527 OFFCURVE",
"322 527 CURVE SMOOTH",
"321 527 OFFCURVE",
"320 528 OFFCURVE",
"320 530 CURVE SMOOTH",
"320 532 OFFCURVE",
"321 534 OFFCURVE",
"322 535 CURVE",
"322 535 LINE"
);
},
{
closed = 1;
nodes = (
"320 507 OFFCURVE",
"315 490 OFFCURVE",
"305 478 CURVE",
"310 493 OFFCURVE",
"315 509 OFFCURVE",
"321 523 CURVE",
"321 523 LINE"
);
},
{
closed = 1;
nodes = (
"301 470 OFFCURVE",
"301 465 OFFCURVE",
"296 464 CURVE",
"297 469 OFFCURVE",
"298 471 OFFCURVE",
"302 474 CURVE",
"302 474 LINE"
);
},
{
closed = 1;
nodes = (
"72 383 OFFCURVE",
"73 376 OFFCURVE",
"73 368 CURVE SMOOTH",
"73 361 OFFCURVE",
"72 353 OFFCURVE",
"72 345 CURVE SMOOTH",
"72 336 OFFCURVE",
"73 327 OFFCURVE",
"77 319 CURVE",
"76 317 OFFCURVE",
"74 315 OFFCURVE",
"73 312 CURVE",
"73 306 OFFCURVE",
"77 301 OFFCURVE",
"77 295 CURVE",
"76 291 OFFCURVE",
"75 287 OFFCURVE",
"75 284 CURVE SMOOTH",
"75 275 OFFCURVE",
"78 265 OFFCURVE",
"78 255 CURVE SMOOTH",
"78 248 LINE SMOOTH",
"78 236 OFFCURVE",
"81 225 OFFCURVE",
"81 214 CURVE SMOOTH",
"81 207 LINE SMOOTH",
"81 182 OFFCURVE",
"86 158 OFFCURVE",
"87 129 CURVE SMOOTH",
"89 90 OFFCURVE",
"98 87 OFFCURVE",
"98 50 CURVE SMOOTH",
"98 46 OFFCURVE",
"97 43 OFFCURVE",
"97 34 CURVE",
"95 36 OFFCURVE",
"93 39 OFFCURVE",
"93 42 CURVE SMOOTH",
"79 114 OFFCURVE",
"78 131 OFFCURVE",
"78 182 CURVE SMOOTH",
"78 194 OFFCURVE",
"68 259 OFFCURVE",
"68 373 CURVE SMOOTH",
"68 378 OFFCURVE",
"68 384 OFFCURVE",
"69 389 CURVE",
"69 389 LINE"
);
},
{
closed = 1;
nodes = (
"98 310 OFFCURVE",
"99 304 OFFCURVE",
"99 298 CURVE SMOOTH",
"99 293 LINE SMOOTH",
"99 251 OFFCURVE",
"104 204 OFFCURVE",
"108 162 CURVE SMOOTH",
"112 118 OFFCURVE",
"115 105 OFFCURVE",
"117 56 CURVE",
"115 59 OFFCURVE",
"112 61 OFFCURVE",
"112 65 CURVE SMOOTH",
"106 131 OFFCURVE",
"95 213 OFFCURVE",
"95 316 CURVE",
"95 316 LINE"
);
},
{
closed = 1;
nodes = (
"123 254 OFFCURVE",
"124 240 OFFCURVE",
"125 219 CURVE SMOOTH",
"132 128 OFFCURVE",
"138 146 OFFCURVE",
"138 30 CURVE",
"132 50 OFFCURVE",
"136 55 OFFCURVE",
"132 75 CURVE SMOOTH",
"133 70 OFFCURVE",
"122 138 OFFCURVE",
"122 222 CURVE SMOOTH",
"122 233 LINE SMOOTH",
"122 245 OFFCURVE",
"120 257 OFFCURVE",
"120 269 CURVE",
"120 269 LINE"
);
}
);
width = 378;
}
);
unicode = 0052;
},
{
glyphname = S;
lastChange = "2019-03-20 22:30:11 +0000";
layers = (
{
hints = (
{
place = "{29, 18}";
type = Stem;
},
{
place = "{106, 16}";
type = Stem;
},
{
place = "{300, 17}";
type = Stem;
},
{
place = "{321, 52}";
type = Stem;
},
{
place = "{343, 11}";
type = Stem;
},
{
horizontal = 1;
place = "{-13, 56}";
type = Stem;
},
{
horizontal = 1;
place = "{640, 64}";
type = Stem;
},
{
horizontal = 1;
place = "{659, 45}";
type = Stem;
},
{
horizontal = 1;
place = "{704, -20}";
target = down;
type = TopGhost;
}
);
layerId = UUID0;
paths = (
{
closed = 1;
nodes = (
"250 695 OFFCURVE",
"225 704 OFFCURVE",
"198 704 CURVE SMOOTH",
"135 704 OFFCURVE",
"106 660 OFFCURVE",
"106 609 CURVE SMOOTH",
"106 477 OFFCURVE",
"300 313 OFFCURVE",
"300 123 CURVE SMOOTH",
"300 95 OFFCURVE",
"289 53 OFFCURVE",
"263 43 CURVE",
"220 43 OFFCURVE",
"189 73 OFFCURVE",
"162 99 CURVE SMOOTH",
"143 116 OFFCURVE",
"111 154 OFFCURVE",
"111 170 CURVE SMOOTH",
"111 173 OFFCURVE",
"112 176 OFFCURVE",
"112 179 CURVE SMOOTH",
"112 181 OFFCURVE",
"112 183 OFFCURVE",
"111 185 CURVE SMOOTH",
"95 216 OFFCURVE",
"88 254 OFFCURVE",
"72 286 CURVE",
"74 251 OFFCURVE",
"103 208 OFFCURVE",
"109 175 CURVE",
"89 197 OFFCURVE",
"80 243 OFFCURVE",
"68 278 CURVE SMOOTH",
"63 291 OFFCURVE",
"56 290 OFFCURVE",
"47 292 CURVE",
"44 290 OFFCURVE",
"42 287 OFFCURVE",
"40 285 CURVE",
"28 291 LINE",
"28 281 OFFCURVE",
"29 271 OFFCURVE",
"29 261 CURVE SMOOTH",
"29 256 LINE SMOOTH",
"29 233 OFFCURVE",
"39 198 OFFCURVE",
"48 171 CURVE",
"32 202 OFFCURVE",
"26 239 OFFCURVE",
"18 272 CURVE SMOOTH",
"17 276 OFFCURVE",
"15 278 OFFCURVE",
"13 281 CURVE",
"11 277 OFFCURVE",
"8 272 OFFCURVE",
"8 267 CURVE SMOOTH",
"8 183 OFFCURVE",
"94 -13 OFFCURVE",
"239 -13 CURVE SMOOTH",
"320 -13 OFFCURVE",
"373 68 OFFCURVE",
"373 137 CURVE SMOOTH",
"373 176 OFFCURVE",
"362 253 OFFCURVE",
"341 277 CURVE",
"342 264 OFFCURVE",
"348 253 OFFCURVE",
"352 240 CURVE SMOOTH",
"361 211 OFFCURVE",
"368 181 OFFCURVE",
"370 150 CURVE SMOOTH",
"370 145 OFFCURVE",
"370 139 OFFCURVE",
"369 133 CURVE",
"367 140 OFFCURVE",
"366 147 OFFCURVE",
"366 154 CURVE",
"354 273 OFFCURVE",
"298 363 OFFCURVE",
"263 419 CURVE SMOOTH",
"253 435 LINE SMOOTH",
"226 479 OFFCURVE",
"174 545 OFFCURVE",
"174 610 CURVE SMOOTH",
"174 621 OFFCURVE",
"176 632 OFFCURVE",
"182 640 CURVE",
"180 630 OFFCURVE",
"178 619 OFFCURVE",
"178 608 CURVE SMOOTH",
"178 603 OFFCURVE",
"179 599 OFFCURVE",
"180 595 CURVE",
"184 619 OFFCURVE",
"182 640 OFFCURVE",
"201 659 CURVE",
"226 639 OFFCURVE",
"249 602 OFFCURVE",
"267 571 CURVE SMOOTH",
"278 553 OFFCURVE",
"281 534 OFFCURVE",
"296 519 CURVE",
"296 524 OFFCURVE",
"297 528 OFFCURVE",
"297 532 CURVE",
"300 525 OFFCURVE",
"303 512 OFFCURVE",
"312 512 CURVE SMOOTH",
"319 512 OFFCURVE",
"322 517 OFFCURVE",
"325 523 CURVE",
"332 520 LINE",
"336 521 OFFCURVE",
"339 524 OFFCURVE",
"343 526 CURVE",
"350 520 LINE",
"352 526 OFFCURVE",
"354 532 OFFCURVE",
"354 539 CURVE SMOOTH",
"353 560 OFFCURVE",
"340 591 OFFCURVE",
"328 610 CURVE SMOOTH",
"312 635 OFFCURVE",
"300 667 OFFCURVE",
"273 683 CURVE",
"273 683 LINE"
);
},
{
closed = 1;
nodes = (
"135 638 OFFCURVE",
"131 624 OFFCURVE",
"124 612 CURVE",
"123 615 OFFCURVE",
"122 619 OFFCURVE",
"122 622 CURVE SMOOTH",
"122 631 OFFCURVE",
"127 647 OFFCURVE",
"137 652 CURVE",
"137 652 LINE"
);
},
{
closed = 1;
nodes = (
"310 204 OFFCURVE",
"321 165 OFFCURVE",
"321 136 CURVE SMOOTH",
"321 128 OFFCURVE",
"319 124 OFFCURVE",
"317 114 CURVE",
"314 126 OFFCURVE",
"315 139 OFFCURVE",
"313 151 CURVE SMOOTH",
"309 177 OFFCURVE",
"300 202 OFFCURVE",
"295 227 CURVE",
"295 227 LINE"
);
}
);
width = 386;
}
);
unicode = 0053;
},
{
glyphname = T;
lastChange = "2019-03-20 22:30:11 +0000";
layers = (
{
hints = (
{
place = "{214, 13}";
type = Stem;
},
{
place = "{233, 15}";
type = Stem;
},
{
place = "{255, 12}";
type = Stem;
},
{
place = "{265, 9}";
type = Stem;
},
{
place = "{268, 27}";
type = Stem;
},
{
place = "{270, 15}";
type = Stem;
},
{
place = "{278, 15}";
type = Stem;
},
{
place = "{289, 8}";
type = Stem;
},
{
place = "{290, 15}";
type = Stem;
},
{
horizontal = 1;
place = "{525, 7}";
type = Stem;
},
{
horizontal = 1;
place = "{613, 54}";
type = Stem;
},
{
horizontal = 1;
place = "{619, 45}";
type = Stem;
}
);
layerId = UUID0;
paths = (
{
closed = 1;
nodes = (
"129 667 OFFCURVE",
"117 665 OFFCURVE",
"103 665 CURVE",
"68 663 OFFCURVE",
"7 660 OFFCURVE",
"7 633 CURVE SMOOTH",
"7 621 OFFCURVE",
"30 613 OFFCURVE",
"47 613 CURVE SMOOTH",
"99 613 OFFCURVE",
"160 620 OFFCURVE",
"217 620 CURVE",
"217 582 OFFCURVE",
"213 542 OFFCURVE",
"213 504 CURVE SMOOTH",
"213 495 OFFCURVE",
"215 485 OFFCURVE",
"215 476 CURVE SMOOTH",
"215 463 OFFCURVE",
"214 451 OFFCURVE",
"214 438 CURVE SMOOTH",
"214 401 LINE SMOOTH",
"214 339 OFFCURVE",
"216 273 OFFCURVE",
"220 241 CURVE SMOOTH",
"227 187 OFFCURVE",
"222 136 OFFCURVE",
"233 84 CURVE SMOOTH",
"237 66 OFFCURVE",
"234 41 OFFCURVE",
"249 30 CURVE",
"249 43 LINE SMOOTH",
"249 59 OFFCURVE",
"245 73 OFFCURVE",
"244 89 CURVE SMOOTH",
"235 182 OFFCURVE",
"227 329 OFFCURVE",
"227 425 CURVE SMOOTH",
"227 464 LINE SMOOTH",
"227 487 OFFCURVE",
"226 515 OFFCURVE",
"220 519 CURVE",
"230 529 OFFCURVE",
"226 537 OFFCURVE",
"228 547 CURVE",
"233 543 OFFCURVE",
"234 531 OFFCURVE",
"234 525 CURVE SMOOTH",
"234 516 OFFCURVE",
"232 508 OFFCURVE",
"232 499 CURVE SMOOTH",
"232 489 OFFCURVE",
"235 480 OFFCURVE",
"237 470 CURVE",
"230 473 LINE",
"233 464 OFFCURVE",
"237 456 OFFCURVE",
"239 447 CURVE",
"237 445 OFFCURVE",
"235 443 OFFCURVE",
"233 442 CURVE",
"240 391 OFFCURVE",
"240 285 OFFCURVE",
"243 235 CURVE",
"250 192 OFFCURVE",
"242 94 OFFCURVE",
"258 29 CURVE",
"268 29 OFFCURVE",
"269 31 OFFCURVE",
"269 36 CURVE SMOOTH",
"269 42 OFFCURVE",
"268 51 OFFCURVE",
"268 58 CURVE SMOOTH",
"268 64 OFFCURVE",
"269 70 OFFCURVE",
"270 76 CURVE",
"271 65 OFFCURVE",
"271 55 OFFCURVE",
"275 45 CURVE",
"285 45 OFFCURVE",
"285 60 OFFCURVE",
"285 77 CURVE SMOOTH",
"285 113 LINE SMOOTH",
"285 170 OFFCURVE",
"284 238 OFFCURVE",
"276 262 CURVE",
"282 262 OFFCURVE",
"283 267 OFFCURVE",
"283 272 CURVE SMOOTH",
"283 281 OFFCURVE",
"282 289 OFFCURVE",
"281 300 CURVE SMOOTH",
"281 311 OFFCURVE",
"274 407 OFFCURVE",
"274 444 CURVE SMOOTH",
"274 447 OFFCURVE",
"276 448 OFFCURVE",
"278 451 CURVE",
"279 428 OFFCURVE",
"281 352 OFFCURVE",
"285 329 CURVE SMOOTH",
"288 306 OFFCURVE",
"284 280 OFFCURVE",
"290 258 CURVE",
"292 261 OFFCURVE",
"293 265 OFFCURVE",
"293 269 CURVE SMOOTH",
"293 334 OFFCURVE",
"277 505 OFFCURVE",
"277 617 CURVE",
"305 618 OFFCURVE",
"334 619 OFFCURVE",
"362 619 CURVE SMOOTH",
"376 619 OFFCURVE",
"386 618 OFFCURVE",
"411 618 CURVE SMOOTH",
"429 618 OFFCURVE",
"451 619 OFFCURVE",
"455 627 CURVE",
"462 622 LINE",
"468 630 OFFCURVE",
"478 632 OFFCURVE",
"488 632 CURVE",
"486 636 OFFCURVE",
"484 639 OFFCURVE",
"484 642 CURVE SMOOTH",
"484 644 OFFCURVE",
"485 645 OFFCURVE",
"485 647 CURVE",
"462 661 OFFCURVE",
"421 664 OFFCURVE",
"379 664 CURVE SMOOTH",
"352 664 OFFCURVE",
"324 663 OFFCURVE",
"303 663 CURVE SMOOTH",
"273 663 OFFCURVE",
"240 667 OFFCURVE",
"209 667 CURVE SMOOTH",
"197 667 OFFCURVE",
"184 666 OFFCURVE",
"171 666 CURVE",
"161 667 OFFCURVE",
"152 667 OFFCURVE",
"142 667 CURVE SMOOTH",
"142 667 LINE"
);
},
{
closed = 1;
nodes = (
"254 610 OFFCURVE",
"255 599 OFFCURVE",
"255 589 CURVE SMOOTH",
"255 582 OFFCURVE",
"253 575 OFFCURVE",
"253 568 CURVE SMOOTH",
"254 560 OFFCURVE",
"256 554 OFFCURVE",
"256 546 CURVE",
"255 539 OFFCURVE",
"255 533 OFFCURVE",
"255 526 CURVE SMOOTH",
"255 475 OFFCURVE",
"265 367 OFFCURVE",
"265 316 CURVE SMOOTH",
"265 309 OFFCURVE",
"263 302 OFFCURVE",
"263 296 CURVE SMOOTH",
"263 261 OFFCURVE",
"268 222 OFFCURVE",
"268 183 CURVE SMOOTH",
"268 178 LINE SMOOTH",
"268 174 OFFCURVE",
"267 172 OFFCURVE",
"263 168 CURVE",
"263 176 OFFCURVE",
"264 184 OFFCURVE",
"264 192 CURVE SMOOTH",
"264 201 OFFCURVE",
"261 208 OFFCURVE",
"260 216 CURVE",
"260 227 OFFCURVE",
"261 238 OFFCURVE",
"261 250 CURVE SMOOTH",
"261 263 OFFCURVE",
"248 378 OFFCURVE",
"248 506 CURVE SMOOTH",
"248 509 OFFCURVE",
"250 512 OFFCURVE",
"250 515 CURVE SMOOTH",
"250 520 OFFCURVE",
"249 525 OFFCURVE",
"249 531 CURVE SMOOTH",
"249 540 OFFCURVE",
"250 548 OFFCURVE",
"250 557 CURVE SMOOTH",
"250 566 OFFCURVE",
"246 575 OFFCURVE",
"246 584 CURVE SMOOTH",
"247 594 OFFCURVE",
"247 613 OFFCURVE",
"253 619 CURVE",
"253 619 LINE"
);
},
{
closed = 1;
nodes = (
"231 617 OFFCURVE",
"233 618 OFFCURVE",
"235 618 CURVE",
"234 612 OFFCURVE",
"235 606 OFFCURVE",
"228 605 CURVE",
"228 609 OFFCURVE",
"228 612 OFFCURVE",
"229 616 CURVE",
"229 616 LINE"
);
},
{
closed = 1;
nodes = (
"233 594 OFFCURVE",
"234 583 OFFCURVE",
"234 573 CURVE SMOOTH",
"234 567 OFFCURVE",
"231 564 OFFCURVE",
"228 560 CURVE",
"226 564 OFFCURVE",
"225 568 OFFCURVE",
"225 573 CURVE SMOOTH",
"225 582 OFFCURVE",
"227 596 OFFCURVE",
"230 604 CURVE",
"230 604 LINE"
);
},
{
closed = 1;
nodes = (
"272 583 OFFCURVE",
"272 575 OFFCURVE",
"274 566 CURVE",
"272 565 OFFCURVE",
"270 563 OFFCURVE",
"268 561 CURVE",
"267 564 OFFCURVE",
"267 568 OFFCURVE",
"267 571 CURVE SMOOTH",
"267 578 OFFCURVE",
"268 585 OFFCURVE",
"268 592 CURVE",
"268 592 LINE"
);
},
{
closed = 1;
nodes = (
"232 557 OFFCURVE",
"234 557 OFFCURVE",
"234 555 CURVE SMOOTH",
"234 552 OFFCURVE",
"231 551 OFFCURVE",
"230 551 CURVE SMOOTH",
"228 551 OFFCURVE",
"227 552 OFFCURVE",
"227 553 CURVE SMOOTH",
"227 555 OFFCURVE",
"228 556 OFFCURVE",
"229 557 CURVE",
"229 557 LINE"
);
},
{
closed = 1;
nodes = (
"273 553 OFFCURVE",
"274 549 OFFCURVE",
"274 546 CURVE SMOOTH",
"274 541 OFFCURVE",
"273 536 OFFCURVE",
"270 532 CURVE",
"269 540 OFFCURVE",
"269 549 OFFCURVE",
"269 558 CURVE",
"272 557 LINE"
);
},
{
closed = 1;
nodes = (
"273 525 OFFCURVE",
"275 525 OFFCURVE",
"277 525 CURVE",
"274 517 OFFCURVE",
"274 509 OFFCURVE",
"274 502 CURVE",
"271 506 OFFCURVE",
"271 512 OFFCURVE",
"271 517 CURVE SMOOTH",
"271 524 LINE"
);
},
{
closed = 1;
nodes = (
"277 480 OFFCURVE",
"278 474 OFFCURVE",
"278 468 CURVE SMOOTH",
"278 463 OFFCURVE",
"277 457 OFFCURVE",
"276 452 CURVE",
"275 460 OFFCURVE",
"274 469 OFFCURVE",
"274 477 CURVE SMOOTH",
"274 480 OFFCURVE",
"274 484 OFFCURVE",
"276 486 CURVE",
"276 486 LINE"
);
},
{
closed = 1;
nodes = (
"289 257 OFFCURVE",
"288 255 OFFCURVE",
"288 252 CURVE SMOOTH",
"288 232 OFFCURVE",
"291 211 OFFCURVE",
"291 191 CURVE SMOOTH",
"291 179 OFFCURVE",
"290 167 OFFCURVE",
"290 155 CURVE SMOOTH",
"290 135 LINE SMOOTH",
"290 116 OFFCURVE",
"289 97 OFFCURVE",
"289 77 CURVE SMOOTH",
"289 67 LINE SMOOTH",
"289 56 OFFCURVE",
"289 44 OFFCURVE",
"294 37 CURVE",
"296 73 OFFCURVE",
"297 110 OFFCURVE",
"297 146 CURVE SMOOTH",
"297 173 OFFCURVE",
"296 199 OFFCURVE",
"295 225 CURVE SMOOTH",
"295 238 LINE SMOOTH",
"295 245 OFFCURVE",
"295 251 OFFCURVE",
"293 258 CURVE",
"293 258 LINE"
);
},
{
closed = 1;
nodes = (
"302 212 OFFCURVE",
"302 207 OFFCURVE",
"302 201 CURVE SMOOTH",
"302 196 OFFCURVE",
"302 190 OFFCURVE",
"303 185 CURVE SMOOTH",
"303 190 OFFCURVE",
"304 196 OFFCURVE",
"304 201 CURVE SMOOTH",
"304 207 OFFCURVE",
"303 212 OFFCURVE",
"303 218 CURVE SMOOTH",
"303 218 LINE"
);
},
{
closed = 1;
nodes = (
"303 179 OFFCURVE",
"303 175 OFFCURVE",
"303 171 CURVE SMOOTH",
"303 159 LINE SMOOTH",
"303 131 OFFCURVE",
"298 95 OFFCURVE",
"298 67 CURVE SMOOTH",
"298 61 OFFCURVE",
"298 56 OFFCURVE",
"299 51 CURVE",
"304 74 OFFCURVE",
"305 105 OFFCURVE",
"305 133 CURVE SMOOTH",
"305 171 LINE SMOOTH",
"305 175 OFFCURVE",
"305 180 OFFCURVE",
"304 184 CURVE",
"304 184 LINE"
);
},
{
closed = 1;
nodes = (
"269 165 OFFCURVE",
"270 157 OFFCURVE",
"270 147 CURVE SMOOTH",
"270 122 LINE SMOOTH",
"270 119 OFFCURVE",
"270 115 OFFCURVE",
"267 114 CURVE",
"266 132 OFFCURVE",
"266 150 OFFCURVE",
"266 167 CURVE",
"266 167 LINE"
);
}
);
width = 514;
}
);
unicode = 0054;
},
{
glyphname = U;
lastChange = "2019-03-20 22:30:11 +0000";
layers = (
{
hints = (
{
place = "{9, 12}";
type = Stem;
},
{
place = "{23, 17}";
type = Stem;
},
{
place = "{32, 8}";
type = Stem;
},
{
place = "{48, 11}";
type = Stem;
},
{
place = "{52, 10}";
type = Stem;
},
{
place = "{59, 10}";
type = Stem;
},
{
place = "{61, 26}";
type = Stem;
},
{
place = "{83, 9}";
type = Stem;
},
{
place = "{93, 8}";
type = Stem;
},
{
place = "{257, 19}";
type = Stem;
},
{
place = "{302, 11}";
type = Stem;
},
{
place = "{303, 7}";
type = Stem;
},
{
place = "{323, 31}";
type = Stem;
},
{
place = "{331, 23}";
type = Stem;
},
{
place = "{354, 9}";
type = Stem;
},
{
place = "{365, 7}";
type = Stem;
},
{
horizontal = 1;
place = "{32, 52}";
type = Stem;
},
{
horizontal = 1;
place = "{276, 7}";
type = Stem;
},
{
horizontal = 1;
place = "{276, 14}";
type = Stem;
},
{
horizontal = 1;
place = "{479, 21}";
type = Stem;
}
);
layerId = UUID0;
paths = (
{
closed = 1;
nodes = (
"318 670 OFFCURVE",
"319 667 OFFCURVE",
"317 657 CURVE SMOOTH",
"292 537 OFFCURVE",
"277 335 OFFCURVE",
"268 211 CURVE",
"264 181 OFFCURVE",
"262 128 OFFCURVE",
"248 114 CURVE",
"248 129 OFFCURVE",
"253 141 OFFCURVE",
"255 157 CURVE SMOOTH",
"263 227 OFFCURVE",
"276 302 OFFCURVE",
"276 375 CURVE SMOOTH",
"276 380 OFFCURVE",
"273 383 OFFCURVE",
"273 388 CURVE SMOOTH",
"276 424 OFFCURVE",
"291 542 OFFCURVE",
"291 577 CURVE SMOOTH",
"291 600 OFFCURVE",
"310 643 OFFCURVE",
"310 664 CURVE SMOOTH",
"310 668 OFFCURVE",
"309 670 OFFCURVE",
"303 670 CURVE",
"277 640 OFFCURVE",
"279 583 OFFCURVE",
"273 543 CURVE SMOOTH",
"269 519 OFFCURVE",
"258 414 OFFCURVE",
"258 390 CURVE SMOOTH",
"258 382 OFFCURVE",
"262 384 OFFCURVE",
"265 379 CURVE",
"257 379 LINE",
"246 295 OFFCURVE",
"246 214 OFFCURVE",
"231 132 CURVE SMOOTH",
"228 116 OFFCURVE",
"224 95 OFFCURVE",
"214 84 CURVE",
"143 135 OFFCURVE",
"129 204 OFFCURVE",
"102 274 CURVE",
"94 267 LINE",
"91 277 LINE",
"94 277 OFFCURVE",
"98 276 OFFCURVE",
"101 276 CURVE",
"101 282 OFFCURVE",
"100 286 OFFCURVE",
"97 291 CURVE",
"95 283 LINE",
"83 283 OFFCURVE",
"84 308 OFFCURVE",
"81 322 CURVE",
"85 321 OFFCURVE",
"88 320 OFFCURVE",
"92 318 CURVE",
"90 327 OFFCURVE",
"89 337 OFFCURVE",
"85 344 CURVE",
"84 338 OFFCURVE",
"83 333 OFFCURVE",
"83 327 CURVE",
"79 333 OFFCURVE",
"77 340 OFFCURVE",
"75 347 CURVE",
"79 347 OFFCURVE",
"83 347 OFFCURVE",
"87 348 CURVE",
"87 371 OFFCURVE",
"74 475 OFFCURVE",
"70 502 CURVE",
"59 499 LINE",
"58 502 OFFCURVE",
"58 505 OFFCURVE",
"58 508 CURVE SMOOTH",
"58 527 OFFCURVE",
"59 509 OFFCURVE",
"59 557 CURVE SMOOTH",
"59 584 OFFCURVE",
"58 625 OFFCURVE",
"47 629 CURVE",
"45 627 OFFCURVE",
"43 623 OFFCURVE",
"41 620 CURVE",
"39 633 LINE",
"26 633 OFFCURVE",
"23 602 OFFCURVE",
"23 573 CURVE SMOOTH",
"23 558 OFFCURVE",
"24 544 OFFCURVE",
"24 534 CURVE SMOOTH",
"24 515 OFFCURVE",
"29 354 OFFCURVE",
"46 331 CURVE SMOOTH",
"47 330 OFFCURVE",
"53 307 OFFCURVE",
"53 304 CURVE SMOOTH",
"53 299 OFFCURVE",
"52 295 OFFCURVE",
"52 290 CURVE SMOOTH",
"52 283 OFFCURVE",
"55 275 OFFCURVE",
"60 268 CURVE",
"57 261 LINE",
"49 274 OFFCURVE",
"48 287 OFFCURVE",
"46 301 CURVE SMOOTH",
"45 308 OFFCURVE",
"40 312 OFFCURVE",
"38 319 CURVE",
"32 317 LINE",
"32 306 OFFCURVE",
"42 237 OFFCURVE",
"55 230 CURVE",
"53 227 OFFCURVE",
"52 224 OFFCURVE",
"52 222 CURVE SMOOTH",
"52 171 OFFCURVE",
"120 32 OFFCURVE",
"212 32 CURVE SMOOTH",
"235 32 OFFCURVE",
"251 48 OFFCURVE",
"272 55 CURVE SMOOTH",
"329 75 OFFCURVE",
"347 230 OFFCURVE",
"353 337 CURVE SMOOTH",
"355 374 LINE SMOOTH",
"359 426 OFFCURVE",
"372 555 OFFCURVE",
"372 605 CURVE SMOOTH",
"372 618 OFFCURVE",
"369 633 OFFCURVE",
"369 646 CURVE SMOOTH",
"369 652 OFFCURVE",
"369 658 OFFCURVE",
"370 664 CURVE",
"366 653 OFFCURVE",
"365 641 OFFCURVE",
"365 628 CURVE SMOOTH",
"365 617 OFFCURVE",
"366 606 OFFCURVE",
"366 597 CURVE SMOOTH",
"366 531 OFFCURVE",
"334 159 OFFCURVE",
"313 132 CURVE",
"313 142 OFFCURVE",
"316 151 OFFCURVE",
"317 161 CURVE",
"332 246 OFFCURVE",
"337 330 OFFCURVE",
"344 416 CURVE",
"355 492 OFFCURVE",
"363 643 OFFCURVE",
"363 655 CURVE SMOOTH",
"363 659 OFFCURVE",
"362 664 OFFCURVE",
"361 668 CURVE",
"355 659 OFFCURVE",
"353 645 OFFCURVE",
"353 631 CURVE SMOOTH",
"353 623 OFFCURVE",
"354 616 OFFCURVE",
"354 611 CURVE SMOOTH",
"354 506 OFFCURVE",
"318 167 OFFCURVE",
"302 151 CURVE",
"311 207 OFFCURVE",
"325 269 OFFCURVE",
"325 327 CURVE SMOOTH",
"325 338 OFFCURVE",
"323 348 OFFCURVE",
"323 360 CURVE SMOOTH",
"323 356 OFFCURVE",
"324 352 OFFCURVE",
"325 347 CURVE",
"328 353 OFFCURVE",
"328 359 OFFCURVE",
"328 365 CURVE SMOOTH",
"333 436 OFFCURVE",
"354 584 OFFCURVE",
"354 660 CURVE SMOOTH",
"354 670 OFFCURVE",
"349 674 OFFCURVE",
"343 674 CURVE SMOOTH",
"329 674 OFFCURVE",
"317 407 OFFCURVE",
"297 271 CURVE",
"297 308 OFFCURVE",
"305 353 OFFCURVE",
"305 392 CURVE SMOOTH",
"305 400 OFFCURVE",
"304 408 OFFCURVE",
"304 417 CURVE",
"305 413 OFFCURVE",
"306 410 OFFCURVE",
"308 407 CURVE",
"308 417 OFFCURVE",
"308 427 OFFCURVE",
"306 437 CURVE",
"310 433 LINE",
"311 452 OFFCURVE",
"321 548 OFFCURVE",
"323 567 CURVE",
"318 560 LINE",
"320 570 OFFCURVE",
"325 579 OFFCURVE",
"325 588 CURVE SMOOTH",
"325 597 OFFCURVE",
"324 606 OFFCURVE",
"323 615 CURVE",
"327 613 LINE",
"329 629 OFFCURVE",
"332 645 OFFCURVE",
"332 661 CURVE SMOOTH",
"332 666 OFFCURVE",
"331 670 OFFCURVE",
"331 675 CURVE",
"331 675 LINE"
);
},
{
closed = 1;
nodes = (
"11 624 OFFCURVE",
"9 606 OFFCURVE",
"9 589 CURVE SMOOTH",
"9 576 OFFCURVE",
"10 563 OFFCURVE",
"10 556 CURVE SMOOTH",
"10 544 OFFCURVE",
"8 534 OFFCURVE",
"8 525 CURVE SMOOTH",
"8 482 OFFCURVE",
"26 364 OFFCURVE",
"30 321 CURVE",
"33 321 OFFCURVE",
"37 321 OFFCURVE",
"40 320 CURVE",
"40 367 OFFCURVE",
"21 485 OFFCURVE",
"21 534 CURVE SMOOTH",
"21 568 OFFCURVE",
"22 602 OFFCURVE",
"23 636 CURVE",
"23 636 LINE"
);
},
{
closed = 1;
nodes = (
"59 615 OFFCURVE",
"59 609 OFFCURVE",
"59 603 CURVE SMOOTH",
"59 569 OFFCURVE",
"61 535 OFFCURVE",
"64 504 CURVE",
"69 507 OFFCURVE",
"69 509 OFFCURVE",
"69 518 CURVE SMOOTH",
"69 545 OFFCURVE",
"66 621 OFFCURVE",
"61 621 CURVE",
"61 621 LINE"
);
},
{
closed = 1;
nodes = (
"45 556 OFFCURVE",
"48 511 OFFCURVE",
"48 467 CURVE",
"49 459 OFFCURVE",
"63 374 OFFCURVE",
"63 370 CURVE SMOOTH",
"63 367 OFFCURVE",
"61 365 OFFCURVE",
"61 359 CURVE SMOOTH",
"61 340 OFFCURVE",
"71 312 OFFCURVE",
"75 293 CURVE SMOOTH",
"83 253 OFFCURVE",
"96 216 OFFCURVE",
"108 177 CURVE",
"101 191 OFFCURVE",
"95 207 OFFCURVE",
"90 221 CURVE SMOOTH",
"82 242 OFFCURVE",
"75 289 OFFCURVE",
"63 298 CURVE",
"65 299 OFFCURVE",
"67 299 OFFCURVE",
"68 300 CURVE",
"65 305 OFFCURVE",
"62 309 OFFCURVE",
"62 314 CURVE SMOOTH",
"62 315 OFFCURVE",
"63 317 OFFCURVE",
"63 318 CURVE SMOOTH",
"59 326 OFFCURVE",
"58 329 OFFCURVE",
"58 339 CURVE SMOOTH",
"58 368 OFFCURVE",
"42 472 OFFCURVE",
"42 501 CURVE SMOOTH",
"42 517 OFFCURVE",
"41 533 OFFCURVE",
"41 549 CURVE SMOOTH",
"41 555 OFFCURVE",
"40 569 OFFCURVE",
"40 581 CURVE SMOOTH",
"40 591 OFFCURVE",
"41 600 OFFCURVE",
"43 601 CURVE",
"43 601 LINE"
);
},
{
closed = 1;
nodes = (
"323 594 OFFCURVE",
"324 592 OFFCURVE",
"324 589 CURVE SMOOTH",
"324 587 OFFCURVE",
"323 585 OFFCURVE",
"321 585 CURVE SMOOTH",
"320 585 OFFCURVE",
"320 588 OFFCURVE",
"320 589 CURVE SMOOTH",
"320 591 OFFCURVE",
"320 593 OFFCURVE",
"321 594 CURVE",
"321 594 LINE"
);
},
{
closed = 1;
nodes = (
"66 479 OFFCURVE",
"66 478 OFFCURVE",
"66 475 CURVE SMOOTH",
"66 473 OFFCURVE",
"66 471 OFFCURVE",
"64 471 CURVE SMOOTH",
"63 471 OFFCURVE",
"62 473 OFFCURVE",
"62 475 CURVE SMOOTH",
"62 477 OFFCURVE",
"63 478 OFFCURVE",
"64 479 CURVE",
"64 479 LINE"
);
},
{
closed = 1;
nodes = (
"89 310 OFFCURVE",
"88 307 OFFCURVE",
"88 304 CURVE SMOOTH",
"88 300 OFFCURVE",
"90 296 OFFCURVE",
"93 291 CURVE",
"95 294 OFFCURVE",
"96 297 OFFCURVE",
"96 299 CURVE SMOOTH",
"96 304 OFFCURVE",
"94 308 OFFCURVE",
"92 313 CURVE",
"92 313 LINE"
);
},
{
closed = 1;
nodes = (
"103 255 OFFCURVE",
"102 253 OFFCURVE",
"102 251 CURVE SMOOTH",
"102 245 OFFCURVE",
"104 240 OFFCURVE",
"106 234 CURVE",
"103 237 LINE SMOOTH",
"97 244 OFFCURVE",
"93 251 OFFCURVE",
"93 264 CURVE",
"103 257 LINE"
);
}
);
width = 389;
}
);
unicode = 0055;
},
{
glyphname = V;
lastChange = "2019-03-20 22:30:11 +0000";
layers = (
{
hints = (
{
place = "{1, 9}";
type = Stem;
},
{
place = "{71, 46}";
type = Stem;
},
{
place = "{198, 20}";
type = Stem;
},
{
place = "{292, 19}";
type = Stem;
},
{
place = "{296, 29}";
type = Stem;
},
{
place = "{317, 33}";
type = Stem;
},
{
place = "{340, 11}";
type = Stem;
},
{
place = "{360, 11}";
type = Stem;
},
{
place = "{375, 10}";
type = Stem;
},
{
place = "{381, 14}";
type = Stem;
},
{
horizontal = 1;
place = "{-26, 21}";
target = up;
type = BottomGhost;
},
{
horizontal = 1;
place = "{695, 26}";
type = Stem;
},
{
horizontal = 1;
place = "{712, -20}";
target = down;
type = TopGhost;
},
{
horizontal = 1;
place = "{721, -20}";
target = down;
type = TopGhost;
},
{
horizontal = 1;
place = "{729, -20}";
target = down;
type = TopGhost;
}
);
layerId = UUID0;
paths = (
{
closed = 1;
nodes = (
"340 709 OFFCURVE",
"330 687 OFFCURVE",
"324 667 CURVE SMOOTH",
"302 597 OFFCURVE",
"281 516 OFFCURVE",
"269 439 CURVE SMOOTH",
"251 329 OFFCURVE",
"234 224 OFFCURVE",
"225 115 CURVE SMOOTH",
"224 107 OFFCURVE",
"225 99 OFFCURVE",
"220 91 CURVE",
"218 96 OFFCURVE",
"218 101 OFFCURVE",
"218 107 CURVE SMOOTH",
"218 144 OFFCURVE",
"223 184 OFFCURVE",
"228 221 CURVE SMOOTH",
"228 224 OFFCURVE",
"229 228 OFFCURVE",
"229 231 CURVE SMOOTH",
"234 269 OFFCURVE",
"242 306 OFFCURVE",
"246 341 CURVE",
"259 408 OFFCURVE",
"271 497 OFFCURVE",
"289 576 CURVE SMOOTH",
"298 617 OFFCURVE",
"323 670 OFFCURVE",
"326 722 CURVE SMOOTH",
"326 725 OFFCURVE",
"325 727 OFFCURVE",
"323 729 CURVE",
"301 714 OFFCURVE",
"297 659 OFFCURVE",
"284 625 CURVE SMOOTH",
"268 581 OFFCURVE",
"252 521 OFFCURVE",
"246 463 CURVE",
"226 366 OFFCURVE",
"214 263 OFFCURVE",
"198 163 CURVE",
"187 200 OFFCURVE",
"178 238 OFFCURVE",
"168 276 CURVE",
"164 286 OFFCURVE",
"164 298 OFFCURVE",
"158 306 CURVE",
"158 259 OFFCURVE",
"190 193 OFFCURVE",
"198 139 CURVE",
"173 199 OFFCURVE",
"161 270 OFFCURVE",
"145 334 CURVE SMOOTH",
"137 363 OFFCURVE",
"118 413 OFFCURVE",
"118 422 CURVE SMOOTH",
"118 429 LINE SMOOTH",
"118 449 OFFCURVE",
"103 477 OFFCURVE",
"97 498 CURVE SMOOTH",
"95 507 LINE SMOOTH",
"84 547 OFFCURVE",
"66 609 OFFCURVE",
"42 609 CURVE SMOOTH",
"37 609 LINE SMOOTH",
"33 609 OFFCURVE",
"28 611 OFFCURVE",
"24 613 CURVE",
"20 594 LINE",
"16 600 OFFCURVE",
"14 606 OFFCURVE",
"10 612 CURVE",
"6 608 OFFCURVE",
"1 605 OFFCURVE",
"1 597 CURVE SMOOTH",
"1 592 OFFCURVE",
"3 586 OFFCURVE",
"5 582 CURVE SMOOTH",
"65 431 OFFCURVE",
"91 191 OFFCURVE",
"166 4 CURVE SMOOTH",
"174 -16 OFFCURVE",
"182 -26 OFFCURVE",
"214 -26 CURVE",
"224 -22 OFFCURVE",
"230 -12 OFFCURVE",
"241 -9 CURVE",
"250 -5 OFFCURVE",
"261 -5 OFFCURVE",
"265 4 CURVE SMOOTH",
"298 71 OFFCURVE",
"308 158 OFFCURVE",
"316 237 CURVE SMOOTH",
"318 254 LINE SMOOTH",
"329 353 OFFCURVE",
"344 455 OFFCURVE",
"362 558 CURVE SMOOTH",
"367 588 OFFCURVE",
"378 609 OFFCURVE",
"385 649 CURVE",
"379 645 OFFCURVE",
"378 637 OFFCURVE",
"376 630 CURVE SMOOTH",
"325 450 OFFCURVE",
"324 256 OFFCURVE",
"283 73 CURVE",
"283 77 LINE SMOOTH",
"283 93 OFFCURVE",
"288 107 OFFCURVE",
"290 123 CURVE SMOOTH",
"309 280 OFFCURVE",
"323 470 OFFCURVE",
"370 626 CURVE SMOOTH",
"372 631 LINE SMOOTH",
"379 651 OFFCURVE",
"385 673 OFFCURVE",
"385 695 CURVE SMOOTH",
"385 703 OFFCURVE",
"384 706 OFFCURVE",
"381 712 CURVE",
"379 700 OFFCURVE",
"381 689 OFFCURVE",
"377 677 CURVE SMOOTH",
"344 579 OFFCURVE",
"328 473 OFFCURVE",
"312 365 CURVE SMOOTH",
"310 353 LINE SMOOTH",
"301 308 OFFCURVE",
"299 258 OFFCURVE",
"288 214 CURVE",
"288 220 LINE SMOOTH",
"288 271 OFFCURVE",
"311 341 OFFCURVE",
"311 394 CURVE SMOOTH",
"311 399 OFFCURVE",
"310 404 OFFCURVE",
"308 410 CURVE",
"313 404 LINE",
"315 410 OFFCURVE",
"316 416 OFFCURVE",
"316 421 CURVE SMOOTH",
"316 427 OFFCURVE",
"314 433 OFFCURVE",
"313 440 CURVE",
"317 434 LINE",
"319 445 OFFCURVE",
"322 455 OFFCURVE",
"322 465 CURVE SMOOTH",
"322 470 OFFCURVE",
"322 475 OFFCURVE",
"320 480 CURVE",
"326 477 LINE",
"325 483 OFFCURVE",
"324 489 OFFCURVE",
"322 495 CURVE",
"327 488 LINE",
"329 493 OFFCURVE",
"330 499 OFFCURVE",
"330 504 CURVE SMOOTH",
"330 510 OFFCURVE",
"328 516 OFFCURVE",
"327 523 CURVE",
"333 519 LINE",
"336 523 OFFCURVE",
"350 585 OFFCURVE",
"350 605 CURVE",
"352 625 OFFCURVE",
"371 656 OFFCURVE",
"371 678 CURVE SMOOTH",
"371 683 OFFCURVE",
"370 688 OFFCURVE",
"370 694 CURVE",
"371 692 OFFCURVE",
"373 690 OFFCURVE",
"375 688 CURVE",
"376 690 OFFCURVE",
"376 691 OFFCURVE",
"376 693 CURVE SMOOTH",
"376 704 OFFCURVE",
"360 715 OFFCURVE",
"360 721 CURVE",
"358 706 OFFCURVE",
"356 691 OFFCURVE",
"350 677 CURVE",
"348 679 OFFCURVE",
"346 681 OFFCURVE",
"346 684 CURVE SMOOTH",
"346 693 OFFCURVE",
"351 705 OFFCURVE",
"351 715 CURVE SMOOTH",
"351 725 OFFCURVE",
"348 726 OFFCURVE",
"340 729 CURVE",
"340 729 LINE"
);
},
{
closed = 1;
nodes = (
"365 695 OFFCURVE",
"366 694 OFFCURVE",
"366 692 CURVE SMOOTH",
"366 690 OFFCURVE",
"365 688 OFFCURVE",
"363 688 CURVE",
"362 689 OFFCURVE",
"359 691 OFFCURVE",
"359 695 CURVE",
"363 695 LINE"
);
},
{
closed = 1;
nodes = (
"390 678 OFFCURVE",
"386 664 OFFCURVE",
"384 652 CURVE",
"393 661 OFFCURVE",
"395 677 OFFCURVE",
"395 690 CURVE",
"395 690 LINE"
);
},
{
closed = 1;
nodes = (
"321 574 OFFCURVE",
"320 569 OFFCURVE",
"318 563 CURVE",
"318 569 OFFCURVE",
"319 574 OFFCURVE",
"322 580 CURVE",
"322 580 LINE"
);
},
{
closed = 1;
nodes = (
"315 531 OFFCURVE",
"304 496 OFFCURVE",
"299 462 CURVE SMOOTH",
"297 449 OFFCURVE",
"297 437 OFFCURVE",
"292 424 CURVE",
"292 457 OFFCURVE",
"302 521 OFFCURVE",
"317 561 CURVE",
"317 561 LINE"
);
},
{
closed = 1;
nodes = (
"290 396 OFFCURVE",
"286 358 OFFCURVE",
"277 337 CURVE",
"279 364 OFFCURVE",
"283 397 OFFCURVE",
"292 423 CURVE",
"292 423 LINE"
);
}
);
width = 412;
}
);
unicode = 0056;
},
{
glyphname = W;
lastChange = "2019-03-20 22:30:11 +0000";
layers = (
{
hints = (
{
place = "{4, 16}";
type = Stem;
},
{
place = "{30, 8}";
type = Stem;
},
{
place = "{43, 8}";
type = Stem;
},
{
place = "{64, 14}";
type = Stem;
},
{
place = "{91, 15}";
type = Stem;
},
{
place = "{364, 14}";
type = Stem;
},
{
place = "{384, 45}";
type = Stem;
},
{
place = "{404, 12}";
type = Stem;
},
{
place = "{453, 74}";
type = Stem;
},
{
place = "{512, 8}";
type = Stem;
},
{
horizontal = 1;
place = "{311, 11}";
type = Stem;
}
);
layerId = UUID0;
paths = (
{
closed = 1;
nodes = (
"460 630 OFFCURVE",
"457 560 OFFCURVE",
"431 475 CURVE",
"415 389 OFFCURVE",
"394 282 OFFCURVE",
"384 185 CURVE SMOOTH",
"382 171 OFFCURVE",
"384 158 OFFCURVE",
"380 145 CURVE",
"379 148 OFFCURVE",
"378 152 OFFCURVE",
"378 156 CURVE SMOOTH",
"378 163 OFFCURVE",
"380 172 OFFCURVE",
"381 180 CURVE SMOOTH",
"395 311 OFFCURVE",
"426 498 OFFCURVE",
"461 617 CURVE SMOOTH",
"466 636 OFFCURVE",
"481 663 OFFCURVE",
"481 681 CURVE SMOOTH",
"481 683 OFFCURVE",
"481 685 OFFCURVE",
"479 688 CURVE",
"451 660 OFFCURVE",
"404 460 OFFCURVE",
"382 325 CURVE SMOOTH",
"374 276 OFFCURVE",
"372 225 OFFCURVE",
"364 178 CURVE",
"355 219 OFFCURVE",
"336 262 OFFCURVE",
"329 304 CURVE",
"314 363 OFFCURVE",
"301 490 OFFCURVE",
"255 490 CURVE SMOOTH",
"252 490 OFFCURVE",
"248 488 OFFCURVE",
"246 487 CURVE",
"242 488 OFFCURVE",
"240 491 OFFCURVE",
"237 491 CURVE SMOOTH",
"236 491 OFFCURVE",
"234 490 OFFCURVE",
"233 489 CURVE SMOOTH",
"197 449 OFFCURVE",
"159 320 OFFCURVE",
"142 234 CURVE SMOOTH",
"140 222 OFFCURVE",
"121 177 OFFCURVE",
"121 168 CURVE",
"119 176 OFFCURVE",
"118 184 OFFCURVE",
"118 192 CURVE SMOOTH",
"118 229 OFFCURVE",
"106 268 OFFCURVE",
"106 306 CURVE SMOOTH",
"106 320 LINE SMOOTH",
"106 328 OFFCURVE",
"105 335 OFFCURVE",
"99 341 CURVE",
"100 341 OFFCURVE",
"102 342 OFFCURVE",
"103 342 CURVE",
"102 345 OFFCURVE",
"101 349 OFFCURVE",
"101 352 CURVE SMOOTH",
"101 357 OFFCURVE",
"102 361 OFFCURVE",
"102 366 CURVE SMOOTH",
"102 404 OFFCURVE",
"89 444 OFFCURVE",
"89 480 CURVE SMOOTH",
"89 486 LINE SMOOTH",
"89 513 OFFCURVE",
"62 648 OFFCURVE",
"59 661 CURVE",
"56 660 OFFCURVE",
"53 659 OFFCURVE",
"50 657 CURVE",
"52 666 LINE",
"49 669 OFFCURVE",
"46 671 OFFCURVE",
"43 673 CURVE",
"41 670 OFFCURVE",
"40 667 OFFCURVE",
"38 665 CURVE",
"36 669 OFFCURVE",
"33 673 OFFCURVE",
"30 677 CURVE",
"27 669 OFFCURVE",
"28 661 OFFCURVE",
"20 656 CURVE",
"19 661 OFFCURVE",
"20 676 OFFCURVE",
"16 676 CURVE SMOOTH",
"9 676 OFFCURVE",
"4 664 OFFCURVE",
"4 657 CURVE SMOOTH",
"4 649 OFFCURVE",
"16 555 OFFCURVE",
"22 521 CURVE",
"36 399 OFFCURVE",
"44 280 OFFCURVE",
"63 159 CURVE SMOOTH",
"65 145 OFFCURVE",
"78 86 OFFCURVE",
"93 53 CURVE",
"93 52 OFFCURVE",
"111 35 OFFCURVE",
"113 35 CURVE SMOOTH",
"117 35 OFFCURVE",
"123 43 OFFCURVE",
"127 45 CURVE",
"135 45 OFFCURVE",
"142 38 OFFCURVE",
"149 35 CURVE",
"156 49 OFFCURVE",
"160 64 OFFCURVE",
"165 78 CURVE SMOOTH",
"195 167 OFFCURVE",
"216 261 OFFCURVE",
"243 354 CURVE SMOOTH",
"244 359 OFFCURVE",
"246 363 OFFCURVE",
"249 366 CURVE",
"249 353 OFFCURVE",
"243 343 OFFCURVE",
"240 329 CURVE SMOOTH",
"226 272 OFFCURVE",
"208 216 OFFCURVE",
"195 158 CURVE",
"201 168 OFFCURVE",
"202 179 OFFCURVE",
"205 190 CURVE SMOOTH",
"221 244 OFFCURVE",
"232 301 OFFCURVE",
"251 354 CURVE",
"254 348 OFFCURVE",
"256 334 OFFCURVE",
"256 333 CURVE SMOOTH",
"272 260 OFFCURVE",
"289 189 OFFCURVE",
"312 119 CURVE SMOOTH",
"322 87 OFFCURVE",
"335 46 OFFCURVE",
"367 35 CURVE",
"380 43 OFFCURVE",
"390 43 OFFCURVE",
"404 45 CURVE",
"404 37 LINE",
"415 41 OFFCURVE",
"417 63 OFFCURVE",
"421 75 CURVE",
"432 129 OFFCURVE",
"437 185 OFFCURVE",
"444 238 CURVE SMOOTH",
"452 300 OFFCURVE",
"463 362 OFFCURVE",
"474 423 CURVE SMOOTH",
"489 504 OFFCURVE",
"528 629 OFFCURVE",
"528 677 CURVE",
"521 669 OFFCURVE",
"521 660 OFFCURVE",
"519 650 CURVE SMOOTH",
"485 505 OFFCURVE",
"443 319 OFFCURVE",
"429 184 CURVE",
"429 199 OFFCURVE",
"432 212 OFFCURVE",
"433 225 CURVE SMOOTH",
"445 342 OFFCURVE",
"471 462 OFFCURVE",
"501 588 CURVE SMOOTH",
"507 614 OFFCURVE",
"520 646 OFFCURVE",
"520 671 CURVE SMOOTH",
"520 678 OFFCURVE",
"516 680 OFFCURVE",
"512 684 CURVE",
"509 680 OFFCURVE",
"506 676 OFFCURVE",
"505 671 CURVE SMOOTH",
"488 606 OFFCURVE",
"469 518 OFFCURVE",
"451 440 CURVE SMOOTH",
"423 322 OFFCURVE",
"418 201 OFFCURVE",
"394 82 CURVE",
"394 105 OFFCURVE",
"400 127 OFFCURVE",
"402 149 CURVE SMOOTH",
"416 276 LINE SMOOTH",
"424 341 OFFCURVE",
"454 466 OFFCURVE",
"473 570 CURVE",
"482 607 OFFCURVE",
"502 646 OFFCURVE",
"502 687 CURVE",
"498 690 LINE"
);
},
{
closed = 1;
nodes = (
"521 624 OFFCURVE",
"494 509 OFFCURVE",
"482 446 CURVE SMOOTH",
"468 374 OFFCURVE",
"455 302 OFFCURVE",
"446 230 CURVE SMOOTH",
"444 216 LINE SMOOTH",
"437 158 OFFCURVE",
"430 102 OFFCURVE",
"416 43 CURVE",
"434 61 OFFCURVE",
"441 147 OFFCURVE",
"446 193 CURVE SMOOTH",
"462 330 OFFCURVE",
"488 466 OFFCURVE",
"523 609 CURVE SMOOTH",
"527 627 OFFCURVE",
"532 643 OFFCURVE",
"533 662 CURVE",
"533 662 LINE"
);
},
{
closed = 1;
nodes = (
"232 464 OFFCURVE",
"233 461 OFFCURVE",
"233 458 CURVE SMOOTH",
"233 454 OFFCURVE",
"232 450 OFFCURVE",
"230 446 CURVE SMOOTH",
"215 412 OFFCURVE",
"203 376 OFFCURVE",
"192 340 CURVE",
"190 336 LINE SMOOTH",
"178 306 OFFCURVE",
"165 270 OFFCURVE",
"165 236 CURVE SMOOTH",
"165 231 OFFCURVE",
"162 226 OFFCURVE",
"160 222 CURVE SMOOTH",
"146 193 OFFCURVE",
"148 158 OFFCURVE",
"135 132 CURVE",
"132 134 OFFCURVE",
"131 136 OFFCURVE",
"131 139 CURVE SMOOTH",
"131 142 OFFCURVE",
"132 146 OFFCURVE",
"133 150 CURVE SMOOTH",
"146 202 OFFCURVE",
"157 255 OFFCURVE",
"173 307 CURVE SMOOTH",
"190 361 OFFCURVE",
"208 416 OFFCURVE",
"231 468 CURVE",
"231 468 LINE"
);
},
{
closed = 1;
nodes = (
"238 425 OFFCURVE",
"237 417 OFFCURVE",
"234 409 CURVE SMOOTH",
"213 346 OFFCURVE",
"193 282 OFFCURVE",
"180 218 CURVE",
"170 182 OFFCURVE",
"160 110 OFFCURVE",
"139 75 CURVE",
"139 84 OFFCURVE",
"141 93 OFFCURVE",
"144 103 CURVE",
"144 104 OFFCURVE",
"145 105 OFFCURVE",
"145 106 CURVE SMOOTH",
"159 153 OFFCURVE",
"168 202 OFFCURVE",
"182 249 CURVE SMOOTH",
"191 278 OFFCURVE",
"205 348 OFFCURVE",
"238 433 CURVE",
"238 433 LINE"
);
},
{
closed = 1;
nodes = (
"245 382 OFFCURVE",
"244 376 OFFCURVE",
"242 369 CURVE SMOOTH",
"216 287 OFFCURVE",
"197 204 OFFCURVE",
"174 121 CURVE SMOOTH",
"174 119 OFFCURVE",
"173 118 OFFCURVE",
"173 116 CURVE SMOOTH",
"168 98 OFFCURVE",
"162 76 OFFCURVE",
"154 65 CURVE",
"155 76 OFFCURVE",
"159 86 OFFCURVE",
"162 96 CURVE SMOOTH",
"176 135 OFFCURVE",
"186 180 OFFCURVE",
"196 225 CURVE",
"214 266 OFFCURVE",
"223 343 OFFCURVE",
"246 389 CURVE",
"246 389 LINE"
);
},
{
closed = 1;
nodes = (
"86 321 LINE",
"77 323 LINE",
"80 340 LINE"
);
},
{
closed = 1;
nodes = (
"64 313 OFFCURVE",
"64 307 OFFCURVE",
"63 302 CURVE",
"60 309 OFFCURVE",
"55 318 OFFCURVE",
"55 325 CURVE SMOOTH",
"55 329 OFFCURVE",
"61 332 OFFCURVE",
"64 334 CURVE",
"64 318 LINE"
);
},
{
closed = 1;
nodes = (
"80 311 OFFCURVE",
"80 310 OFFCURVE",
"80 309 CURVE SMOOTH",
"80 307 OFFCURVE",
"80 306 OFFCURVE",
"78 306 CURVE SMOOTH",
"76 306 OFFCURVE",
"76 308 OFFCURVE",
"76 311 CURVE",
"76 311 LINE"
);
},
{
closed = 1;
nodes = (
"88 291 OFFCURVE",
"85 287 OFFCURVE",
"85 283 CURVE SMOOTH",
"85 281 OFFCURVE",
"86 279 OFFCURVE",
"86 276 CURVE",
"82 280 OFFCURVE",
"80 286 OFFCURVE",
"80 292 CURVE SMOOTH",
"80 296 OFFCURVE",
"80 300 OFFCURVE",
"82 303 CURVE",
"91 294 LINE"
);
},
{
closed = 1;
nodes = (
"107 142 OFFCURVE",
"108 140 OFFCURVE",
"108 139 CURVE SMOOTH",
"108 138 OFFCURVE",
"106 136 OFFCURVE",
"104 136 CURVE SMOOTH",
"102 136 OFFCURVE",
"101 137 OFFCURVE",
"101 138 CURVE SMOOTH",
"101 140 OFFCURVE",
"103 142 OFFCURVE",
"105 142 CURVE SMOOTH",
"105 142 LINE"
);
}
);
width = 545;
}
);
unicode = 0057;
},
{
glyphname = X;
lastChange = "2019-03-20 22:30:11 +0000";
layers = (
{
hints = (
{
place = "{20, 8}";
type = Stem;
},
{
place = "{24, 10}";
type = Stem;
},
{
place = "{53, 21}";
type = Stem;
},
{
place = "{73, 17}";
type = Stem;
},
{
place = "{133, 9}";
type = Stem;
},
{
place = "{280, 25}";
type = Stem;
},
{
place = "{307, 16}";
type = Stem;
},
{
place = "{329, 9}";
type = Stem;
},
{
horizontal = 1;
place = "{0, 21}";
target = up;
type = BottomGhost;
}
);
layerId = UUID0;
paths = (
{
closed = 1;
nodes = (
"29 685 OFFCURVE",
"24 684 OFFCURVE",
"24 674 CURVE SMOOTH",
"24 668 OFFCURVE",
"26 661 OFFCURVE",
"28 655 CURVE SMOOTH",
"57 565 OFFCURVE",
"90 474 OFFCURVE",
"129 384 CURVE",
"130 379 OFFCURVE",
"133 375 OFFCURVE",
"133 370 CURVE SMOOTH",
"133 369 OFFCURVE",
"132 367 OFFCURVE",
"132 366 CURVE SMOOTH",
"115 316 OFFCURVE",
"76 244 OFFCURVE",
"67 185 CURVE SMOOTH",
"60 145 OFFCURVE",
"20 62 OFFCURVE",
"20 19 CURVE SMOOTH",
"20 15 OFFCURVE",
"24 14 OFFCURVE",
"28 12 CURVE",
"36 37 OFFCURVE",
"43 63 OFFCURVE",
"51 89 CURVE SMOOTH",
"80 184 OFFCURVE",
"108 268 OFFCURVE",
"142 353 CURVE",
"143 348 OFFCURVE",
"145 344 OFFCURVE",
"145 340 CURVE SMOOTH",
"145 338 OFFCURVE",
"145 337 OFFCURVE",
"144 335 CURVE SMOOTH",
"104 236 OFFCURVE",
"65 119 OFFCURVE",
"33 4 CURVE",
"35 2 OFFCURVE",
"38 0 OFFCURVE",
"41 0 CURVE SMOOTH",
"46 0 OFFCURVE",
"50 9 OFFCURVE",
"53 14 CURVE",
"53 6 LINE SMOOTH",
"53 2 OFFCURVE",
"53 0 OFFCURVE",
"57 0 CURVE SMOOTH",
"65 0 OFFCURVE",
"72 16 OFFCURVE",
"74 23 CURVE",
"74 16 OFFCURVE",
"73 10 OFFCURVE",
"73 3 CURVE",
"81 17 OFFCURVE",
"84 31 OFFCURVE",
"88 46 CURVE SMOOTH",
"96 76 OFFCURVE",
"110 107 OFFCURVE",
"121 138 CURVE SMOOTH",
"130 163 OFFCURVE",
"151 206 OFFCURVE",
"151 227 CURVE SMOOTH",
"151 229 OFFCURVE",
"151 231 OFFCURVE",
"150 233 CURVE",
"134 210 OFFCURVE",
"130 176 OFFCURVE",
"118 150 CURVE",
"116 119 OFFCURVE",
"83 63 OFFCURVE",
"83 54 CURVE SMOOTH",
"83 63 OFFCURVE",
"87 70 OFFCURVE",
"90 77 CURVE",
"101 117 OFFCURVE",
"117 161 OFFCURVE",
"133 201 CURVE SMOOTH",
"145 230 OFFCURVE",
"152 265 OFFCURVE",
"168 290 CURVE",
"165 273 OFFCURVE",
"150 253 OFFCURVE",
"150 238 CURVE SMOOTH",
"150 236 OFFCURVE",
"151 234 OFFCURVE",
"152 231 CURVE",
"163 244 OFFCURVE",
"163 266 OFFCURVE",
"175 278 CURVE",
"172 258 OFFCURVE",
"160 239 OFFCURVE",
"156 219 CURVE",
"166 233 OFFCURVE",
"168 252 OFFCURVE",
"178 268 CURVE",
"196 234 OFFCURVE",
"214 199 OFFCURVE",
"230 164 CURVE",
"246 139 OFFCURVE",
"254 102 OFFCURVE",
"277 81 CURVE",
"280 87 OFFCURVE",
"280 93 OFFCURVE",
"280 100 CURVE",
"283 92 OFFCURVE",
"290 77 OFFCURVE",
"298 77 CURVE SMOOTH",
"304 77 OFFCURVE",
"305 83 OFFCURVE",
"305 89 CURVE SMOOTH",
"305 100 LINE",
"309 97 OFFCURVE",
"312 93 OFFCURVE",
"315 89 CURVE",
"329 106 LINE",
"336 96 LINE",
"337 100 OFFCURVE",
"338 104 OFFCURVE",
"338 108 CURVE",
"327 159 OFFCURVE",
"288 221 OFFCURVE",
"271 276 CURVE SMOOTH",
"259 312 OFFCURVE",
"231 348 OFFCURVE",
"225 386 CURVE",
"231 376 OFFCURVE",
"233 364 OFFCURVE",
"241 355 CURVE",
"240 368 OFFCURVE",
"228 381 OFFCURVE",
"228 393 CURVE SMOOTH",
"228 397 OFFCURVE",
"229 401 OFFCURVE",
"231 405 CURVE SMOOTH",
"243 434 OFFCURVE",
"256 462 OFFCURVE",
"265 491 CURVE",
"251 460 OFFCURVE",
"235 406 OFFCURVE",
"222 399 CURVE",
"239 450 OFFCURVE",
"261 501 OFFCURVE",
"282 551 CURVE SMOOTH",
"296 583 OFFCURVE",
"323 636 OFFCURVE",
"323 665 CURVE SMOOTH",
"323 673 OFFCURVE",
"313 679 OFFCURVE",
"307 682 CURVE",
"295 663 LINE",
"297 670 OFFCURVE",
"298 678 OFFCURVE",
"299 685 CURVE",
"294 688 LINE",
"279 660 LINE SMOOTH",
"250 604 OFFCURVE",
"229 511 OFFCURVE",
"194 461 CURVE",
"190 469 LINE",
"210 523 OFFCURVE",
"238 574 OFFCURVE",
"259 629 CURVE SMOOTH",
"266 646 OFFCURVE",
"280 663 OFFCURVE",
"280 683 CURVE SMOOTH",
"280 686 OFFCURVE",
"280 688 OFFCURVE",
"279 690 CURVE",
"255 679 OFFCURVE",
"212 531 OFFCURVE",
"179 478 CURVE",
"170 493 OFFCURVE",
"163 509 OFFCURVE",
"156 525 CURVE SMOOTH",
"136 574 OFFCURVE",
"109 622 OFFCURVE",
"81 667 CURVE SMOOTH",
"72 681 OFFCURVE",
"60 680 OFFCURVE",
"48 688 CURVE",
"42 677 LINE",
"34 690 LINE"
);
},
{
closed = 1;
nodes = (
"310 592 OFFCURVE",
"323 630 OFFCURVE",
"328 660 CURVE",
"295 566 LINE"
);
},
{
closed = 1;
nodes = (
"279 606 OFFCURVE",
"263 570 OFFCURVE",
"249 533 CURVE",
"232 499 OFFCURVE",
"221 456 OFFCURVE",
"201 426 CURVE",
"205 452 OFFCURVE",
"220 484 OFFCURVE",
"233 512 CURVE SMOOTH",
"237 521 LINE SMOOTH",
"252 562 OFFCURVE",
"274 602 OFFCURVE",
"289 646 CURVE",
"291 643 LINE"
);
},
{
closed = 1;
nodes = (
"300 602 OFFCURVE",
"285 569 OFFCURVE",
"272 538 CURVE SMOOTH",
"255 498 OFFCURVE",
"237 435 OFFCURVE",
"218 411 CURVE",
"218 417 OFFCURVE",
"220 424 OFFCURVE",
"223 429 CURVE",
"249 492 OFFCURVE",
"271 567 OFFCURVE",
"307 634 CURVE",
"307 634 LINE"
);
},
{
closed = 1;
nodes = (
"153 216 OFFCURVE",
"150 213 OFFCURVE",
"150 210 CURVE SMOOTH",
"150 209 OFFCURVE",
"150 208 OFFCURVE",
"152 208 CURVE SMOOTH",
"154 208 OFFCURVE",
"155 211 OFFCURVE",
"155 216 CURVE",
"155 216 LINE"
);
},
{
closed = 1;
nodes = (
"141 191 OFFCURVE",
"133 165 OFFCURVE",
"130 149 CURVE",
"137 157 OFFCURVE",
"148 186 OFFCURVE",
"151 205 CURVE",
"151 205 LINE"
);
},
{
closed = 1;
nodes = (
"114 126 OFFCURVE",
"101 68 OFFCURVE",
"98 57 CURVE",
"110 82 OFFCURVE",
"120 112 OFFCURVE",
"128 140 CURVE",
"128 140 LINE"
);
},
{
closed = 1;
nodes = (
"86 26 OFFCURVE",
"84 18 OFFCURVE",
"82 8 CURVE",
"86 17 OFFCURVE",
"89 25 OFFCURVE",
"91 34 CURVE",
"91 34 LINE"
);
}
);
width = 360;
}
);
unicode = 0058;
},
{
glyphname = Y;
lastChange = "2019-03-20 22:30:11 +0000";
layers = (
{
hints = (
{
place = "{17, 14}";
type = Stem;
},
{
place = "{136, 7}";
type = Stem;
},
{
place = "{152, 8}";
type = Stem;
},
{
place = "{170, 23}";
type = Stem;
},
{
place = "{188, 12}";
type = Stem;
},
{
place = "{229, 11}";
type = Stem;
},
{
place = "{248, 9}";
type = Stem;
},
{
place = "{260, 20}";
type = Stem;
},
{
place = "{276, 24}";
type = Stem;
},
{
place = "{304, 10}";
type = Stem;
},
{
place = "{325, 31}";
type = Stem;
},
{
horizontal = 1;
place = "{-14, 21}";
target = up;
type = BottomGhost;
},
{
horizontal = 1;
place = "{-11, 21}";
target = up;
type = BottomGhost;
},
{
horizontal = 1;
place = "{-8, 21}";
target = up;
type = BottomGhost;
},
{
horizontal = 1;
place = "{628, 37}";
type = Stem;
},
{
horizontal = 1;
place = "{659, 8}";
type = Stem;
}
);
layerId = UUID0;
paths = (
{
closed = 1;
nodes = (
"301 689 OFFCURVE",
"295 673 OFFCURVE",
"292 661 CURVE SMOOTH",
"271 590 OFFCURVE",
"255 518 OFFCURVE",
"235 447 CURVE SMOOTH",
"234 445 OFFCURVE",
"234 443 OFFCURVE",
"234 441 CURVE SMOOTH",
"234 438 OFFCURVE",
"234 435 OFFCURVE",
"235 432 CURVE",
"229 428 LINE",
"225 433 OFFCURVE",
"214 473 OFFCURVE",
"199 473 CURVE",
"200 475 OFFCURVE",
"201 477 OFFCURVE",
"203 479 CURVE",
"199 480 OFFCURVE",
"191 478 OFFCURVE",
"190 483 CURVE",
"191 487 OFFCURVE",
"193 491 OFFCURVE",
"193 495 CURVE",
"191 502 OFFCURVE",
"164 554 OFFCURVE",
"143 565 CURVE",
"144 561 OFFCURVE",
"116 622 OFFCURVE",
"89 636 CURVE",
"85 651 OFFCURVE",
"68 665 OFFCURVE",
"53 665 CURVE SMOOTH",
"44 665 OFFCURVE",
"39 661 OFFCURVE",
"32 654 CURVE",
"30 655 OFFCURVE",
"27 658 OFFCURVE",
"24 658 CURVE SMOOTH",
"23 658 OFFCURVE",
"22 657 OFFCURVE",
"21 655 CURVE",
"21 644 OFFCURVE",
"29 633 OFFCURVE",
"34 623 CURVE SMOOTH",
"67 557 OFFCURVE",
"121 487 OFFCURVE",
"154 417 CURVE SMOOTH",
"163 397 OFFCURVE",
"187 346 OFFCURVE",
"210 346 CURVE",
"187 254 OFFCURVE",
"164 159 OFFCURVE",
"147 69 CURVE SMOOTH",
"143 48 OFFCURVE",
"136 24 OFFCURVE",
"136 3 CURVE SMOOTH",
"136 -3 OFFCURVE",
"137 -9 OFFCURVE",
"143 -11 CURVE",
"151 8 OFFCURVE",
"151 23 OFFCURVE",
"153 40 CURVE",
"164 89 OFFCURVE",
"172 138 OFFCURVE",
"183 187 CURVE SMOOTH",
"195 246 OFFCURVE",
"221 309 OFFCURVE",
"228 363 CURVE",
"238 358 LINE",
"235 341 OFFCURVE",
"231 326 OFFCURVE",
"225 309 CURVE SMOOTH",
"209 262 OFFCURVE",
"200 211 OFFCURVE",
"188 158 CURVE SMOOTH",
"177 109 OFFCURVE",
"152 38 OFFCURVE",
"152 -14 CURVE",
"155 -14 OFFCURVE",
"157 -15 OFFCURVE",
"160 -15 CURVE",
"170 -2 OFFCURVE",
"170 11 OFFCURVE",
"173 27 CURVE SMOOTH",
"187 110 OFFCURVE",
"210 198 OFFCURVE",
"234 288 CURVE",
"235 295 OFFCURVE",
"240 302 OFFCURVE",
"240 308 CURVE SMOOTH",
"240 311 OFFCURVE",
"239 315 OFFCURVE",
"239 318 CURVE SMOOTH",
"239 323 OFFCURVE",
"245 343 OFFCURVE",
"255 343 CURVE",
"246 300 OFFCURVE",
"233 258 OFFCURVE",
"221 216 CURVE",
"208 158 OFFCURVE",
"190 101 OFFCURVE",
"180 43 CURVE SMOOTH",
"177 27 OFFCURVE",
"170 14 OFFCURVE",
"170 -1 CURVE SMOOTH",
"170 -4 OFFCURVE",
"170 -6 OFFCURVE",
"171 -9 CURVE",
"179 -6 OFFCURVE",
"183 -2 OFFCURVE",
"188 5 CURVE",
"188 0 OFFCURVE",
"188 -4 OFFCURVE",
"187 -8 CURVE",
"198 -4 OFFCURVE",
"199 -2 OFFCURVE",
"202 5 CURVE",
"223 76 OFFCURVE",
"239 146 OFFCURVE",
"260 220 CURVE SMOOTH",
"274 270 OFFCURVE",
"295 329 OFFCURVE",
"300 378 CURVE",
"289 353 OFFCURVE",
"287 323 OFFCURVE",
"278 296 CURVE SMOOTH",
"250 209 OFFCURVE",
"227 118 OFFCURVE",
"206 30 CURVE SMOOTH",
"205 24 OFFCURVE",
"203 19 OFFCURVE",
"200 14 CURVE",
"200 20 OFFCURVE",
"201 27 OFFCURVE",
"203 33 CURVE SMOOTH",
"237 149 OFFCURVE",
"283 317 OFFCURVE",
"311 450 CURVE SMOOTH",
"316 472 OFFCURVE",
"320 501 OFFCURVE",
"329 518 CURVE",
"327 489 OFFCURVE",
"315 461 OFFCURVE",
"313 432 CURVE",
"319 443 OFFCURVE",
"321 454 OFFCURVE",
"323 466 CURVE",
"336 521 OFFCURVE",
"347 576 OFFCURVE",
"355 633 CURVE SMOOTH",
"356 638 OFFCURVE",
"356 643 OFFCURVE",
"356 648 CURVE SMOOTH",
"356 679 OFFCURVE",
"334 672 OFFCURVE",
"325 686 CURVE",
"322 679 OFFCURVE",
"319 673 OFFCURVE",
"314 668 CURVE",
"314 675 OFFCURVE",
"315 683 OFFCURVE",
"316 690 CURVE",
"316 690 LINE"
);
},
{
closed = 1;
nodes = (
"18 664 OFFCURVE",
"17 661 OFFCURVE",
"17 659 CURVE",
"22 660 OFFCURVE",
"27 660 OFFCURVE",
"32 664 CURVE",
"28 665 OFFCURVE",
"25 667 OFFCURVE",
"22 667 CURVE SMOOTH",
"21 667 OFFCURVE",
"19 667 OFFCURVE",
"18 666 CURVE",
"18 666 LINE"
);
},
{
closed = 1;
nodes = (
"287 583 OFFCURVE",
"275 525 OFFCURVE",
"262 459 CURVE SMOOTH",
"260 451 LINE",
"260 450 OFFCURVE",
"255 438 OFFCURVE",
"255 437 CURVE SMOOTH",
"255 432 OFFCURVE",
"256 428 OFFCURVE",
"258 423 CURVE",
"252 415 OFFCURVE",
"251 405 OFFCURVE",
"248 395 CURVE",
"242 398 OFFCURVE",
"240 400 OFFCURVE",
"240 409 CURVE SMOOTH",
"240 413 OFFCURVE",
"241 418 OFFCURVE",
"242 422 CURVE SMOOTH",
"260 493 OFFCURVE",
"282 563 OFFCURVE",
"299 634 CURVE SMOOTH",
"300 639 OFFCURVE",
"302 644 OFFCURVE",
"304 648 CURVE",
"304 648 LINE"
);
},
{
closed = 1;
nodes = (
"61 628 OFFCURVE",
"63 624 OFFCURVE",
"66 620 CURVE",
"60 617 OFFCURVE",
"55 616 OFFCURVE",
"47 616 CURVE",
"49 620 OFFCURVE",
"49 627 OFFCURVE",
"55 628 CURVE SMOOTH",
"55 628 LINE"
);
},
{
closed = 1;
nodes = (
"308 452 OFFCURVE",
"294 413 OFFCURVE",
"286 375 CURVE SMOOTH",
"264 273 OFFCURVE",
"228 168 OFFCURVE",
"202 53 CURVE",
"199 43 OFFCURVE",
"198 33 OFFCURVE",
"193 24 CURVE",
"201 88 OFFCURVE",
"228 155 OFFCURVE",
"241 221 CURVE",
"236 224 LINE",
"250 233 OFFCURVE",
"244 269 OFFCURVE",
"260 297 CURVE SMOOTH",
"267 309 OFFCURVE",
"280 349 OFFCURVE",
"280 374 CURVE SMOOTH",
"280 378 OFFCURVE",
"277 385 OFFCURVE",
"275 389 CURVE",
"293 402 OFFCURVE",
"294 424 OFFCURVE",
"300 445 CURVE SMOOTH",
"304 460 OFFCURVE",
"307 476 OFFCURVE",
"312 491 CURVE",
"312 491 LINE"
);
},
{
closed = 1;
nodes = (
"276 408 OFFCURVE",
"266 383 OFFCURVE",
"260 365 CURVE",
"259 369 OFFCURVE",
"257 374 OFFCURVE",
"257 378 CURVE SMOOTH",
"260 396 OFFCURVE",
"262 425 OFFCURVE",
"276 428 CURVE",
"276 423 LINE"
);
},
{
closed = 1;
nodes = (
"254 398 OFFCURVE",
"255 396 OFFCURVE",
"255 394 CURVE SMOOTH",
"255 392 OFFCURVE",
"254 389 OFFCURVE",
"253 389 CURVE SMOOTH",
"252 389 OFFCURVE",
"251 395 OFFCURVE",
"251 396 CURVE SMOOTH",
"251 397 OFFCURVE",
"252 398 OFFCURVE",
"254 399 CURVE",
"254 399 LINE"
);
},
{
closed = 1;
nodes = (
"254 307 LINE",
"252 310 LINE",
"256 310 LINE"
);
}
);
width = 373;
}
);
unicode = 0059;
},
{
glyphname = Z;
lastChange = "2019-03-20 22:30:11 +0000";
layers = (
{
hints = (
{
place = "{263, 19}";
type = Stem;
},
{
place = "{400, 13}";
type = Stem;
},
{
place = "{404, 13}";
type = Stem;
},
{
horizontal = 1;
place = "{8, 80}";
type = Stem;
},
{
horizontal = 1;
place = "{46, 58}";
type = Stem;
},
{
horizontal = 1;
place = "{597, 49}";
type = Stem;
},
{
horizontal = 1;
place = "{614, 67}";
type = Stem;
},
{
horizontal = 1;
place = "{623, 19}";
type = Stem;
}
);
layerId = UUID0;
paths = (
{
closed = 1;
nodes = (
"341 681 OFFCURVE",
"323 674 OFFCURVE",
"301 670 CURVE",
"247 655 OFFCURVE",
"178 649 OFFCURVE",
"118 646 CURVE SMOOTH",
"106 646 OFFCURVE",
"96 642 OFFCURVE",
"86 642 CURVE SMOOTH",
"77 642 LINE SMOOTH",
"60 642 OFFCURVE",
"50 635 OFFCURVE",
"42 622 CURVE",
"47 618 LINE",
"50 619 OFFCURVE",
"54 623 OFFCURVE",
"56 623 CURVE SMOOTH",
"57 623 OFFCURVE",
"58 622 OFFCURVE",
"58 620 CURVE SMOOTH",
"58 614 OFFCURVE",
"51 612 OFFCURVE",
"48 609 CURVE",
"50 604 OFFCURVE",
"84 597 OFFCURVE",
"97 595 CURVE",
"100 598 OFFCURVE",
"102 601 OFFCURVE",
"104 604 CURVE",
"107 600 OFFCURVE",
"108 597 OFFCURVE",
"112 597 CURVE SMOOTH",
"134 597 LINE SMOOTH",
"146 597 OFFCURVE",
"174 602 OFFCURVE",
"186 602 CURVE SMOOTH",
"191 602 OFFCURVE",
"195 601 OFFCURVE",
"201 600 CURVE",
"212 601 OFFCURVE",
"223 603 OFFCURVE",
"234 603 CURVE SMOOTH",
"238 603 OFFCURVE",
"242 602 OFFCURVE",
"245 602 CURVE SMOOTH",
"256 602 OFFCURVE",
"257 609 OFFCURVE",
"263 617 CURVE",
"263 608 LINE",
"269 608 OFFCURVE",
"281 613 OFFCURVE",
"282 614 CURVE",
"283 612 OFFCURVE",
"287 608 OFFCURVE",
"289 608 CURVE SMOOTH",
"296 608 OFFCURVE",
"303 613 OFFCURVE",
"310 613 CURVE SMOOTH",
"313 613 OFFCURVE",
"316 612 OFFCURVE",
"319 612 CURVE SMOOTH",
"325 612 OFFCURVE",
"330 614 OFFCURVE",
"336 614 CURVE SMOOTH",
"342 614 LINE",
"324 570 OFFCURVE",
"298 529 OFFCURVE",
"276 488 CURVE SMOOTH",
"203 355 OFFCURVE",
"134 220 OFFCURVE",
"41 101 CURVE SMOOTH",
"30 87 OFFCURVE",
"8 64 OFFCURVE",
"5 45 CURVE",
"7 30 OFFCURVE",
"27 8 OFFCURVE",
"41 8 CURVE SMOOTH",
"59 8 LINE SMOOTH",
"68 8 OFFCURVE",
"76 14 OFFCURVE",
"85 14 CURVE",
"88 11 OFFCURVE",
"90 7 OFFCURVE",
"93 7 CURVE SMOOTH",
"111 7 OFFCURVE",
"130 17 OFFCURVE",
"149 18 CURVE",
"180 27 OFFCURVE",
"214 29 OFFCURVE",
"249 34 CURVE SMOOTH",
"274 38 OFFCURVE",
"310 48 OFFCURVE",
"331 48 CURVE SMOOTH",
"338 48 OFFCURVE",
"346 46 OFFCURVE",
"354 46 CURVE SMOOTH",
"372 47 OFFCURVE",
"453 43 OFFCURVE",
"453 73 CURVE SMOOTH",
"453 104 OFFCURVE",
"378 104 OFFCURVE",
"353 104 CURVE SMOOTH",
"291 104 OFFCURVE",
"232 88 OFFCURVE",
"167 88 CURVE SMOOTH",
"159 88 OFFCURVE",
"151 89 OFFCURVE",
"144 89 CURVE",
"148 104 LINE",
"143 98 OFFCURVE",
"138 92 OFFCURVE",
"132 87 CURVE",
"138 101 OFFCURVE",
"147 112 OFFCURVE",
"156 126 CURVE SMOOTH",
"184 167 OFFCURVE",
"209 213 OFFCURVE",
"237 260 CURVE SMOOTH",
"289 345 OFFCURVE",
"333 434 OFFCURVE",
"378 525 CURVE SMOOTH",
"384 538 LINE SMOOTH",
"390 551 OFFCURVE",
"395 568 OFFCURVE",
"404 580 CURVE",
"402 566 OFFCURVE",
"394 556 OFFCURVE",
"389 543 CURVE SMOOTH",
"350 446 OFFCURVE",
"296 353 OFFCURVE",
"243 262 CURVE SMOOTH",
"238 252 OFFCURVE",
"231 244 OFFCURVE",
"228 232 CURVE",
"236 240 OFFCURVE",
"241 252 OFFCURVE",
"247 262 CURVE SMOOTH",
"297 346 OFFCURVE",
"343 433 OFFCURVE",
"385 522 CURVE SMOOTH",
"397 547 OFFCURVE",
"412 575 OFFCURVE",
"417 601 CURVE",
"411 597 OFFCURVE",
"409 588 OFFCURVE",
"404 581 CURVE",
"407 593 OFFCURVE",
"413 603 OFFCURVE",
"413 615 CURVE SMOOTH",
"413 620 LINE",
"417 624 OFFCURVE",
"419 627 OFFCURVE",
"419 631 CURVE SMOOTH",
"419 655 OFFCURVE",
"374 681 OFFCURVE",
"362 681 CURVE SMOOTH",
"362 681 LINE"
);
},
{
closed = 1;
nodes = (
"384 607 OFFCURVE",
"379 596 OFFCURVE",
"375 585 CURVE",
"344 524 OFFCURVE",
"310 438 OFFCURVE",
"268 378 CURVE",
"272 388 OFFCURVE",
"277 397 OFFCURVE",
"282 407 CURVE SMOOTH",
"317 476 OFFCURVE",
"350 550 OFFCURVE",
"387 619 CURVE",
"387 619 LINE"
);
},
{
closed = 1;
nodes = (
"356 602 OFFCURVE",
"350 593 OFFCURVE",
"346 584 CURVE SMOOTH",
"327 545 OFFCURVE",
"314 513 OFFCURVE",
"297 479 CURVE",
"239 379 OFFCURVE",
"185 277 OFFCURVE",
"126 178 CURVE",
"101 145 OFFCURVE",
"76 83 OFFCURVE",
"46 73 CURVE",
"48 80 OFFCURVE",
"66 114 OFFCURVE",
"80 125 CURVE SMOOTH",
"105 145 OFFCURVE",
"128 200 OFFCURVE",
"152 234 CURVE",
"198 309 OFFCURVE",
"241 385 OFFCURVE",
"285 464 CURVE SMOOTH",
"290 473 OFFCURVE",
"290 483 OFFCURVE",
"295 491 CURVE SMOOTH",
"312 524 OFFCURVE",
"329 558 OFFCURVE",
"347 590 CURVE",
"350 598 OFFCURVE",
"353 605 OFFCURVE",
"359 612 CURVE",
"359 612 LINE"
);
},
{
closed = 1;
nodes = (
"400 593 OFFCURVE",
"386 563 OFFCURVE",
"380 548 CURVE",
"332 453 OFFCURVE",
"286 363 OFFCURVE",
"236 273 CURVE",
"207 234 OFFCURVE",
"187 174 OFFCURVE",
"155 145 CURVE",
"155 170 OFFCURVE",
"185 184 OFFCURVE",
"227 266 CURVE SMOOTH",
"269 348 OFFCURVE",
"319 429 OFFCURVE",
"361 513 CURVE SMOOTH",
"371 533 OFFCURVE",
"385 581 OFFCURVE",
"400 602 CURVE",
"400 602 LINE"
);
},
{
closed = 1;
nodes = (
"264 368 OFFCURVE",
"261 363 OFFCURVE",
"257 359 CURVE",
"259 364 OFFCURVE",
"262 369 OFFCURVE",
"265 373 CURVE",
"265 373 LINE"
);
},
{
closed = 1;
nodes = (
"169 209 OFFCURVE",
"168 199 OFFCURVE",
"158 195 CURVE",
"161 204 OFFCURVE",
"167 212 OFFCURVE",
"172 218 CURVE",
"172 218 LINE"
);
}
);
width = 469;
}
);
unicode = 005A;
},
{
glyphname = A.ss01;
lastChange = "2019-03-20 23:22:49 +0000";
layers = (
{
hints = (
{
place = "{7, 16}";
type = Stem;
},
{
place = "{107, 12}";
type = Stem;
},
{
place = "{141, 12}";
type = Stem;
},
{
place = "{243, 31}";
type = Stem;
},
{
place = "{321, 28}";
type = Stem;
},
{
place = "{329, 23}";
type = Stem;
},
{
place = "{361, 11}";
type = Stem;
},
{
horizontal = 1;
place = "{-4, 21}";
target = up;
type = BottomGhost;
},
{
horizontal = 1;
place = "{-3, 21}";
target = up;
type = BottomGhost;
},
{
horizontal = 1;
place = "{247, 49}";
type = Stem;
}
);
layerId = UUID0;
paths = (
{
closed = 1;
nodes = (
"159 683 OFFCURVE",
"156 677 OFFCURVE",
"153 671 CURVE",
"152 676 OFFCURVE",
"150 681 OFFCURVE",
"149 686 CURVE",
"126 686 OFFCURVE",
"117 649 OFFCURVE",
"111 622 CURVE SMOOTH",
"91 535 OFFCURVE",
"66 450 OFFCURVE",
"47 360 CURVE SMOOTH",
"31 283 LINE",
"21 215 OFFCURVE",
"7 150 OFFCURVE",
"7 80 CURVE SMOOTH",
"7 63 LINE SMOOTH",
"7 57 OFFCURVE",
"8 39 OFFCURVE",
"17 39 CURVE SMOOTH",
"20 39 OFFCURVE",
"22 41 OFFCURVE",
"24 42 CURVE",
"28 39 OFFCURVE",
"30 35 OFFCURVE",
"35 33 CURVE SMOOTH",
"37 33 OFFCURVE",
"63 42 OFFCURVE",
"63 53 CURVE",
"65 84 OFFCURVE",
"77 111 OFFCURVE",
"77 140 CURVE SMOOTH",
"77 141 OFFCURVE",
"77 142 OFFCURVE",
"77 143 CURVE SMOOTH",
"77 161 OFFCURVE",
"86 210 OFFCURVE",
"97 237 CURVE",
"89 177 OFFCURVE",
"67 114 OFFCURVE",
"67 57 CURVE SMOOTH",
"67 52 OFFCURVE",
"69 47 OFFCURVE",
"71 42 CURVE",
"79 64 OFFCURVE",
"81 91 OFFCURVE",
"85 115 CURVE SMOOTH",
"91 149 OFFCURVE",
"96 218 OFFCURVE",
"111 238 CURVE",
"111 231 OFFCURVE",
"110 225 OFFCURVE",
"108 218 CURVE",
"102 184 OFFCURVE",
"95 149 OFFCURVE",
"88 114 CURVE SMOOTH",
"84 95 OFFCURVE",
"79 75 OFFCURVE",
"79 55 CURVE",
"97 98 OFFCURVE",
"101 180 OFFCURVE",
"117 238 CURVE",
"148 242 OFFCURVE",
"184 247 OFFCURVE",
"217 247 CURVE",
"231 181 OFFCURVE",
"249 122 OFFCURVE",
"268 59 CURVE SMOOTH",
"274 39 OFFCURVE",
"281 9 OFFCURVE",
"300 -3 CURVE",
"299 22 OFFCURVE",
"293 42 OFFCURVE",
"287 66 CURVE SMOOTH",
"271 127 OFFCURVE",
"250 187 OFFCURVE",
"238 249 CURVE",
"240 250 OFFCURVE",
"241 250 OFFCURVE",
"243 251 CURVE",
"244 241 OFFCURVE",
"245 232 OFFCURVE",
"251 224 CURVE",
"250 221 OFFCURVE",
"250 219 OFFCURVE",
"250 216 CURVE SMOOTH",
"250 201 OFFCURVE",
"260 170 OFFCURVE",
"265 152 CURVE SMOOTH",
"268 144 OFFCURVE",
"288 58 OFFCURVE",
"312 -4 CURVE",
"334 -4 OFFCURVE",
"327 14 OFFCURVE",
"329 29 CURVE",
"333 21 OFFCURVE",
"335 13 OFFCURVE",
"337 5 CURVE",
"345 13 OFFCURVE",
"352 18 OFFCURVE",
"352 31 CURVE SMOOTH",
"352 64 OFFCURVE",
"340 109 OFFCURVE",
"332 146 CURVE SMOOTH",
"331 152 OFFCURVE",
"324 155 OFFCURVE",
"322 161 CURVE SMOOTH",
"320 169 OFFCURVE",
"323 176 OFFCURVE",
"318 184 CURVE SMOOTH",
"315 190 OFFCURVE",
"312 195 OFFCURVE",
"312 203 CURVE",
"315 201 OFFCURVE",
"318 199 OFFCURVE",
"321 197 CURVE",
"318 218 OFFCURVE",
"295 257 OFFCURVE",
"295 300 CURVE SMOOTH",
"295 302 OFFCURVE",
"295 303 OFFCURVE",
"295 305 CURVE",
"302 298 OFFCURVE",
"304 289 OFFCURVE",
"306 280 CURVE SMOOTH",
"320 205 OFFCURVE",
"337 131 OFFCURVE",
"352 58 CURVE SMOOTH",
"355 42 OFFCURVE",
"356 26 OFFCURVE",
"361 11 CURVE",
"363 16 OFFCURVE",
"363 21 OFFCURVE",
"363 25 CURVE SMOOTH",
"363 72 OFFCURVE",
"351 126 OFFCURVE",
"339 172 CURVE",
"331 230 OFFCURVE",
"310 276 OFFCURVE",
"301 356 CURVE",
"317 323 OFFCURVE",
"328 253 OFFCURVE",
"343 185 CURVE",
"345 186 OFFCURVE",
"347 187 OFFCURVE",
"349 187 CURVE",
"343 226 OFFCURVE",
"333 264 OFFCURVE",
"324 302 CURVE SMOOTH",
"306 378 OFFCURVE",
"288 456 OFFCURVE",
"265 530 CURVE",
"263 526 OFFCURVE",
"262 522 OFFCURVE",
"261 518 CURVE",
"253 546 OFFCURVE",
"246 574 OFFCURVE",
"237 602 CURVE SMOOTH",
"223 644 OFFCURVE",
"222 688 OFFCURVE",
"163 688 CURVE",
"163 688 LINE"
);
},
{
closed = 1;
nodes = (
"139 655 OFFCURVE",
"141 648 OFFCURVE",
"141 640 CURVE SMOOTH",
"141 637 OFFCURVE",
"141 634 OFFCURVE",
"140 630 CURVE SMOOTH",
"100 486 OFFCURVE",
"56 316 OFFCURVE",
"34 127 CURVE SMOOTH",
"31 105 OFFCURVE",
"32 73 OFFCURVE",
"24 59 CURVE",
"23 64 OFFCURVE",
"23 70 OFFCURVE",
"23 75 CURVE SMOOTH",
"23 119 OFFCURVE",
"37 177 OFFCURVE",
"40 224 CURVE",
"53 299 OFFCURVE",
"70 367 OFFCURVE",
"85 438 CURVE SMOOTH",
"88 451 OFFCURVE",
"85 462 OFFCURVE",
"89 475 CURVE SMOOTH",
"107 532 OFFCURVE",
"122 599 OFFCURVE",
"138 663 CURVE",
"138 663 LINE"
);
},
{
closed = 1;
nodes = (
"144 545 OFFCURVE",
"137 502 OFFCURVE",
"123 469 CURVE",
"125 501 OFFCURVE",
"137 548 OFFCURVE",
"151 579 CURVE",
"151 579 LINE"
);
},
{
closed = 1;
nodes = (
"161 510 OFFCURVE",
"156 493 OFFCURVE",
"152 474 CURVE SMOOTH",
"138 418 OFFCURVE",
"124 362 OFFCURVE",
"112 305 CURVE SMOOTH",
"111 299 OFFCURVE",
"109 293 OFFCURVE",
"107 288 CURVE",
"107 303 OFFCURVE",
"112 320 OFFCURVE",
"116 336 CURVE SMOOTH",
"131 401 OFFCURVE",
"144 468 OFFCURVE",
"162 530 CURVE",
"162 530 LINE"
);
},
{
closed = 1;
nodes = (
"168 469 OFFCURVE",
"153 423 OFFCURVE",
"144 386 CURVE SMOOTH",
"137 356 OFFCURVE",
"133 308 OFFCURVE",
"119 289 CURVE",
"122 342 OFFCURVE",
"147 417 OFFCURVE",
"162 479 CURVE",
"163 487 OFFCURVE",
"165 494 OFFCURVE",
"169 502 CURVE",
"169 502 LINE"
);
},
{
closed = 1;
nodes = (
"174 468 OFFCURVE",
"177 459 OFFCURVE",
"178 450 CURVE SMOOTH",
"186 399 OFFCURVE",
"197 347 OFFCURVE",
"207 296 CURVE",
"180 294 OFFCURVE",
"154 295 OFFCURVE",
"128 291 CURVE",
"134 349 OFFCURVE",
"156 417 OFFCURVE",
"171 476 CURVE",
"171 476 LINE"
);
},
{
closed = 1;
nodes = (
"122 461 OFFCURVE",
"121 455 OFFCURVE",
"118 450 CURVE",
"119 456 OFFCURVE",
"120 461 OFFCURVE",
"122 467 CURVE",
"122 467 LINE"
);
},
{
closed = 1;
nodes = (
"286 252 OFFCURVE",
"285 230 OFFCURVE",
"291 216 CURVE",
"289 214 OFFCURVE",
"288 213 OFFCURVE",
"286 211 CURVE",
"279 226 OFFCURVE",
"276 243 OFFCURVE",
"274 260 CURVE",
"274 260 LINE"
);
},
{
closed = 1;
nodes = (
"349 168 OFFCURVE",
"349 164 OFFCURVE",
"349 161 CURVE SMOOTH",
"349 129 OFFCURVE",
"360 93 OFFCURVE",
"365 57 CURVE SMOOTH",
"367 47 OFFCURVE",
"367 37 OFFCURVE",
"371 27 CURVE",
"372 31 OFFCURVE",
"372 35 OFFCURVE",
"372 39 CURVE SMOOTH",
"372 71 OFFCURVE",
"362 141 OFFCURVE",
"350 171 CURVE",
"350 171 LINE"
);
}
);
width = 381;
}
);
},
{
glyphname = B.ss01;
lastChange = "2019-03-20 23:22:49 +0000";
layers = (
{
hints = (
{
place = "{9, 20}";
type = Stem;
},
{
place = "{18, 14}";
type = Stem;
},
{
place = "{39, 54}";
type = Stem;
},
{
place = "{89, 9}";
type = Stem;
},
{
place = "{97, 8}";
type = Stem;
},
{
place = "{240, 13}";
type = Stem;
},
{
place = "{264, 10}";
type = Stem;
},
{
place = "{273, 10}";
type = Stem;
},
{
place = "{335, 12}";
type = Stem;
},
{
horizontal = 1;
place = "{378, 41}";
type = Stem;
},
{
horizontal = 1;
place = "{657, 37}";
type = Stem;
}
);
layerId = UUID0;
paths = (
{
closed = 1;
nodes = (
"203 691 OFFCURVE",
"187 694 OFFCURVE",
"171 694 CURVE SMOOTH",
"135 694 OFFCURVE",
"103 677 OFFCURVE",
"73 659 CURVE",
"67 666 OFFCURVE",
"60 673 OFFCURVE",
"53 679 CURVE",
"51 678 OFFCURVE",
"48 676 OFFCURVE",
"46 674 CURVE",
"45 678 OFFCURVE",
"43 681 OFFCURVE",
"42 685 CURVE",
"38 681 OFFCURVE",
"34 677 OFFCURVE",
"31 673 CURVE",
"30 677 OFFCURVE",
"29 682 OFFCURVE",
"29 687 CURVE",
"6 681 OFFCURVE",
"9 649 OFFCURVE",
"9 620 CURVE SMOOTH",
"9 501 OFFCURVE",
"18 380 OFFCURVE",
"18 260 CURVE SMOOTH",
"18 209 OFFCURVE",
"14 154 OFFCURVE",
"25 107 CURVE",
"30 81 OFFCURVE",
"35 36 OFFCURVE",
"44 24 CURVE",
"50 24 OFFCURVE",
"55 26 OFFCURVE",
"60 26 CURVE SMOOTH",
"69 25 OFFCURVE",
"76 15 OFFCURVE",
"85 15 CURVE SMOOTH",
"92 15 OFFCURVE",
"115 18 OFFCURVE",
"115 26 CURVE",
"169 49 OFFCURVE",
"222 82 OFFCURVE",
"264 124 CURVE SMOOTH",
"281 141 OFFCURVE",
"308 186 OFFCURVE",
"311 186 CURVE",
"309 189 OFFCURVE",
"308 192 OFFCURVE",
"307 194 CURVE",
"309 193 OFFCURVE",
"312 192 OFFCURVE",
"315 190 CURVE",
"339 220 OFFCURVE",
"354 269 OFFCURVE",
"354 307 CURVE SMOOTH",
"354 315 OFFCURVE",
"354 323 OFFCURVE",
"352 330 CURVE",
"343 295 OFFCURVE",
"348 256 OFFCURVE",
"328 222 CURVE",
"334 255 OFFCURVE",
"347 289 OFFCURVE",
"347 326 CURVE SMOOTH",
"347 406 OFFCURVE",
"262 416 OFFCURVE",
"208 419 CURVE",
"211 424 OFFCURVE",
"214 429 OFFCURVE",
"218 434 CURVE",
"218 431 OFFCURVE",
"218 428 OFFCURVE",
"218 424 CURVE",
"241 459 OFFCURVE",
"268 502 OFFCURVE",
"276 536 CURVE",
"261 515 OFFCURVE",
"249 469 OFFCURVE",
"221 438 CURVE",
"236 475 OFFCURVE",
"283 533 OFFCURVE",
"283 591 CURVE SMOOTH",
"283 596 OFFCURVE",
"282 600 OFFCURVE",
"280 605 CURVE",
"276 573 OFFCURVE",
"268 543 OFFCURVE",
"253 515 CURVE SMOOTH",
"234 481 OFFCURVE",
"215 432 OFFCURVE",
"194 417 CURVE",
"201 428 OFFCURVE",
"206 440 OFFCURVE",
"214 451 CURVE SMOOTH",
"229 471 OFFCURVE",
"258 520 OFFCURVE",
"258 543 CURVE SMOOTH",
"258 546 OFFCURVE",
"258 549 OFFCURVE",
"257 552 CURVE",
"264 562 OFFCURVE",
"272 572 OFFCURVE",
"272 585 CURVE SMOOTH",
"272 594 OFFCURVE",
"268 594 OFFCURVE",
"262 598 CURVE",
"246 551 OFFCURVE",
"230 509 OFFCURVE",
"203 467 CURVE",
"220 507 OFFCURVE",
"251 557 OFFCURVE",
"253 608 CURVE",
"254 608 OFFCURVE",
"256 607 OFFCURVE",
"257 606 CURVE",
"256 619 OFFCURVE",
"253 631 OFFCURVE",
"253 643 CURVE",
"257 640 OFFCURVE",
"262 637 OFFCURVE",
"265 632 CURVE",
"265 628 OFFCURVE",
"264 624 OFFCURVE",
"264 621 CURVE SMOOTH",
"264 617 OFFCURVE",
"265 614 OFFCURVE",
"267 611 CURVE",
"270 614 OFFCURVE",
"274 617 OFFCURVE",
"274 624 CURVE SMOOTH",
"274 663 OFFCURVE",
"247 679 OFFCURVE",
"218 687 CURVE SMOOTH",
"218 687 LINE"
);
},
{
closed = 1;
nodes = (
"194 657 OFFCURVE",
"195 657 OFFCURVE",
"197 657 CURVE SMOOTH",
"218 657 OFFCURVE",
"220 636 OFFCURVE",
"220 622 CURVE SMOOTH",
"220 598 OFFCURVE",
"214 589 OFFCURVE",
"210 568 CURVE",
"212 568 OFFCURVE",
"214 567 OFFCURVE",
"215 566 CURVE",
"199 554 OFFCURVE",
"200 542 OFFCURVE",
"192 528 CURVE",
"170 473 OFFCURVE",
"126 400 OFFCURVE",
"92 366 CURVE",
"86 433 OFFCURVE",
"74 502 OFFCURVE",
"74 566 CURVE SMOOTH",
"74 576 OFFCURVE",
"77 586 OFFCURVE",
"81 596 CURVE",
"92 614 OFFCURVE",
"150 651 OFFCURVE",
"192 657 CURVE SMOOTH",
"192 657 LINE"
);
},
{
closed = 1;
nodes = (
"238 607 OFFCURVE",
"240 602 OFFCURVE",
"240 597 CURVE SMOOTH",
"240 595 OFFCURVE",
"240 594 OFFCURVE",
"240 592 CURVE SMOOTH",
"222 539 OFFCURVE",
"186 435 OFFCURVE",
"126 386 CURVE",
"142 406 OFFCURVE",
"164 442 OFFCURVE",
"181 476 CURVE SMOOTH",
"196 508 OFFCURVE",
"210 538 OFFCURVE",
"222 571 CURVE SMOOTH",
"226 584 OFFCURVE",
"228 598 OFFCURVE",
"233 611 CURVE",
"233 611 LINE"
);
},
{
closed = 1;
nodes = (
"264 608 OFFCURVE",
"262 606 OFFCURVE",
"260 604 CURVE",
"264 600 OFFCURVE",
"268 597 OFFCURVE",
"273 594 CURVE",
"272 600 OFFCURVE",
"270 604 OFFCURVE",
"267 609 CURVE",
"267 609 LINE"
);
},
{
closed = 1;
nodes = (
"261 375 OFFCURVE",
"265 349 OFFCURVE",
"265 335 CURVE SMOOTH",
"265 226 OFFCURVE",
"193 140 OFFCURVE",
"113 103 CURVE",
"113 114 OFFCURVE",
"114 125 OFFCURVE",
"114 137 CURVE SMOOTH",
"114 183 OFFCURVE",
"105 235 OFFCURVE",
"105 283 CURVE SMOOTH",
"105 295 OFFCURVE",
"110 300 OFFCURVE",
"117 307 CURVE",
"117 302 OFFCURVE",
"117 297 OFFCURVE",
"116 292 CURVE",
"122 297 OFFCURVE",
"127 301 OFFCURVE",
"131 306 CURVE SMOOTH",
"139 315 OFFCURVE",
"180 378 OFFCURVE",
"238 378 CURVE SMOOTH",
"239 378 OFFCURVE",
"240 378 OFFCURVE",
"242 378 CURVE SMOOTH",
"242 378 LINE"
);
},
{
closed = 1;
nodes = (
"35 361 OFFCURVE",
"35 355 OFFCURVE",
"35 348 CURVE SMOOTH",
"35 319 OFFCURVE",
"39 280 OFFCURVE",
"39 246 CURVE SMOOTH",
"39 239 OFFCURVE",
"39 232 OFFCURVE",
"39 225 CURVE SMOOTH",
"39 212 OFFCURVE",
"42 198 OFFCURVE",
"42 185 CURVE SMOOTH",
"42 183 OFFCURVE",
"42 182 OFFCURVE",
"42 180 CURVE SMOOTH",
"42 144 OFFCURVE",
"51 97 OFFCURVE",
"51 63 CURVE SMOOTH",
"51 61 OFFCURVE",
"51 58 OFFCURVE",
"51 56 CURVE SMOOTH",
"48 65 OFFCURVE",
"47 74 OFFCURVE",
"46 84 CURVE",
"33 148 OFFCURVE",
"32 216 OFFCURVE",
"32 282 CURVE SMOOTH",
"32 300 OFFCURVE",
"33 318 OFFCURVE",
"33 335 CURVE SMOOTH",
"33 340 OFFCURVE",
"33 344 OFFCURVE",
"33 349 CURVE SMOOTH",
"33 355 OFFCURVE",
"33 361 OFFCURVE",
"35 368 CURVE",
"35 368 LINE"
);
},
{
closed = 1;
nodes = (
"285 280 OFFCURVE",
"275 230 OFFCURVE",
"255 213 CURVE",
"262 232 OFFCURVE",
"269 251 OFFCURVE",
"275 272 CURVE SMOOTH",
"278 285 OFFCURVE",
"280 298 OFFCURVE",
"285 311 CURVE",
"285 311 LINE"
);
},
{
closed = 1;
nodes = (
"335 307 OFFCURVE",
"335 303 OFFCURVE",
"335 300 CURVE SMOOTH",
"335 284 OFFCURVE",
"332 267 OFFCURVE",
"325 253 CURVE",
"328 272 OFFCURVE",
"333 291 OFFCURVE",
"335 310 CURVE SMOOTH",
"335 310 LINE"
);
},
{
closed = 1;
nodes = (
"89 283 OFFCURVE",
"89 274 OFFCURVE",
"89 266 CURVE SMOOTH",
"89 217 OFFCURVE",
"97 163 OFFCURVE",
"97 113 CURVE SMOOTH",
"97 105 OFFCURVE",
"97 98 OFFCURVE",
"96 91 CURVE",
"94 105 OFFCURVE",
"93 117 OFFCURVE",
"93 131 CURVE SMOOTH",
"93 185 OFFCURVE",
"86 237 OFFCURVE",
"86 291 CURVE",
"86 291 LINE"
);
},
{
closed = 1;
nodes = (
"102 280 OFFCURVE",
"103 270 OFFCURVE",
"103 260 CURVE SMOOTH",
"103 213 OFFCURVE",
"107 161 OFFCURVE",
"110 112 CURVE SMOOTH",
"110 106 OFFCURVE",
"108 101 OFFCURVE",
"105 95 CURVE",
"101 155 OFFCURVE",
"98 222 OFFCURVE",
"98 280 CURVE SMOOTH",
"98 284 OFFCURVE",
"98 287 OFFCURVE",
"98 291 CURVE",
"98 291 LINE"
);
}
);
width = 374;
}
);
},
{
glyphname = C.ss01;
lastChange = "2019-03-20 23:22:49 +0000";
layers = (
{
hints = (
{
place = "{8, 16}";
type = Stem;
},
{
place = "{27, 23}";
type = Stem;
},
{
place = "{52, 23}";
type = Stem;
},
{
place = "{81, 12}";
type = Stem;
},
{
place = "{182, 24}";
type = Stem;
},
{
place = "{235, 31}";
type = Stem;
},
{
place = "{251, 13}";
type = Stem;
},
{
place = "{265, 30}";
type = Stem;
},
{
place = "{326, 13}";
type = Stem;
},
{
horizontal = 1;
place = "{-1, 59}";
type = Stem;
},
{
horizontal = 1;
place = "{-1, 21}";
target = up;
type = BottomGhost;
},
{
horizontal = 1;
place = "{662, 32}";
type = Stem;
}
);
layerId = UUID0;
paths = (
{
closed = 1;
nodes = (
"91 691 OFFCURVE",
"65 615 OFFCURVE",
"53 572 CURVE SMOOTH",
"28 487 OFFCURVE",
"8 372 OFFCURVE",
"8 275 CURVE SMOOTH",
"8 199 OFFCURVE",
"25 -1 OFFCURVE",
"153 -1 CURVE SMOOTH",
"157 -1 OFFCURVE",
"162 -1 OFFCURVE",
"166 0 CURVE SMOOTH",
"266 23 OFFCURVE",
"289 86 OFFCURVE",
"313 157 CURVE SMOOTH",
"325 192 OFFCURVE",
"339 236 OFFCURVE",
"339 270 CURVE SMOOTH",
"339 277 OFFCURVE",
"338 283 OFFCURVE",
"337 290 CURVE",
"333 258 OFFCURVE",
"328 216 OFFCURVE",
"314 182 CURVE",
"319 214 OFFCURVE",
"330 240 OFFCURVE",
"330 274 CURVE SMOOTH",
"330 281 OFFCURVE",
"329 287 OFFCURVE",
"326 293 CURVE",
"322 281 OFFCURVE",
"322 270 OFFCURVE",
"320 259 CURVE",
"318 276 OFFCURVE",
"327 292 OFFCURVE",
"302 296 CURVE",
"300 290 OFFCURVE",
"298 285 OFFCURVE",
"296 279 CURVE",
"294 286 OFFCURVE",
"292 292 OFFCURVE",
"290 299 CURVE",
"265 282 OFFCURVE",
"269 208 OFFCURVE",
"246 167 CURVE",
"249 200 OFFCURVE",
"267 237 OFFCURVE",
"267 272 CURVE SMOOTH",
"267 279 OFFCURVE",
"266 286 OFFCURVE",
"266 293 CURVE",
"262 290 OFFCURVE",
"258 289 OFFCURVE",
"256 285 CURVE SMOOTH",
"235 249 OFFCURVE",
"234 113 OFFCURVE",
"164 58 CURVE",
"108 107 OFFCURVE",
"93 215 OFFCURVE",
"93 288 CURVE SMOOTH",
"93 325 OFFCURVE",
"98 362 OFFCURVE",
"100 400 CURVE",
"88 371 OFFCURVE",
"90 318 OFFCURVE",
"90 279 CURVE SMOOTH",
"90 272 OFFCURVE",
"90 266 OFFCURVE",
"90 259 CURVE SMOOTH",
"90 253 OFFCURVE",
"90 247 OFFCURVE",
"89 241 CURVE",
"86 249 OFFCURVE",
"85 258 OFFCURVE",
"85 266 CURVE SMOOTH",
"85 336 OFFCURVE",
"88 407 OFFCURVE",
"102 474 CURVE",
"109 523 OFFCURVE",
"119 585 OFFCURVE",
"145 624 CURVE",
"142 612 OFFCURVE",
"137 602 OFFCURVE",
"133 591 CURVE SMOOTH",
"114 533 OFFCURVE",
"98 463 OFFCURVE",
"98 411 CURVE SMOOTH",
"98 408 OFFCURVE",
"99 405 OFFCURVE",
"99 402 CURVE",
"105 423 OFFCURVE",
"102 444 OFFCURVE",
"107 465 CURVE SMOOTH",
"119 520 OFFCURVE",
"125 585 OFFCURVE",
"158 636 CURVE",
"193 596 OFFCURVE",
"176 516 OFFCURVE",
"201 484 CURVE",
"203 490 OFFCURVE",
"205 496 OFFCURVE",
"207 501 CURVE",
"208 493 OFFCURVE",
"209 484 OFFCURVE",
"210 476 CURVE",
"228 476 OFFCURVE",
"226 491 OFFCURVE",
"231 503 CURVE",
"231 496 OFFCURVE",
"232 488 OFFCURVE",
"233 481 CURVE",
"243 486 OFFCURVE",
"247 489 OFFCURVE",
"253 498 CURVE",
"252 490 OFFCURVE",
"251 483 OFFCURVE",
"251 475 CURVE",
"263 493 OFFCURVE",
"264 516 OFFCURVE",
"264 538 CURVE SMOOTH",
"264 621 OFFCURVE",
"218 694 OFFCURVE",
"129 694 CURVE",
"129 694 LINE"
);
},
{
closed = 1;
nodes = (
"89 613 OFFCURVE",
"64 561 OFFCURVE",
"57 506 CURVE SMOOTH",
"47 433 OFFCURVE",
"27 344 OFFCURVE",
"27 271 CURVE SMOOTH",
"27 254 OFFCURVE",
"30 237 OFFCURVE",
"30 221 CURVE SMOOTH",
"30 215 OFFCURVE",
"29 210 OFFCURVE",
"29 203 CURVE",
"27 221 OFFCURVE",
"24 238 OFFCURVE",
"24 257 CURVE",
"27 341 OFFCURVE",
"35 443 OFFCURVE",
"57 533 CURVE SMOOTH",
"65 565 OFFCURVE",
"81 635 OFFCURVE",
"112 662 CURVE",
"112 662 LINE"
);
},
{
closed = 1;
nodes = (
"109 560 OFFCURVE",
"94 486 OFFCURVE",
"85 402 CURVE SMOOTH",
"85 405 OFFCURVE",
"85 409 OFFCURVE",
"85 413 CURVE SMOOTH",
"85 418 OFFCURVE",
"85 424 OFFCURVE",
"83 430 CURVE",
"89 439 OFFCURVE",
"89 449 OFFCURVE",
"90 460 CURVE SMOOTH",
"98 521 OFFCURVE",
"112 594 OFFCURVE",
"142 641 CURVE",
"142 641 LINE"
);
},
{
closed = 1;
nodes = (
"96 570 OFFCURVE",
"90 556 OFFCURVE",
"86 540 CURVE SMOOTH",
"65 446 OFFCURVE",
"62 349 OFFCURVE",
"52 254 CURVE",
"51 259 OFFCURVE",
"50 263 OFFCURVE",
"50 268 CURVE SMOOTH",
"51 298 OFFCURVE",
"51 336 OFFCURVE",
"57 367 CURVE SMOOTH",
"64 406 OFFCURVE",
"62 505 OFFCURVE",
"98 585 CURVE",
"98 585 LINE"
);
},
{
closed = 1;
nodes = (
"269 530 OFFCURVE",
"265 507 OFFCURVE",
"263 484 CURVE",
"270 499 OFFCURVE",
"271 514 OFFCURVE",
"271 530 CURVE SMOOTH",
"271 538 OFFCURVE",
"271 546 OFFCURVE",
"269 553 CURVE",
"269 553 LINE"
);
},
{
closed = 1;
nodes = (
"83 398 OFFCURVE",
"84 394 OFFCURVE",
"84 391 CURVE SMOOTH",
"84 387 OFFCURVE",
"83 382 OFFCURVE",
"82 378 CURVE",
"82 386 OFFCURVE",
"82 393 OFFCURVE",
"83 401 CURVE SMOOTH",
"83 401 LINE"
);
},
{
closed = 1;
nodes = (
"81 339 OFFCURVE",
"76 301 OFFCURVE",
"76 264 CURVE",
"75 271 OFFCURVE",
"75 277 OFFCURVE",
"75 284 CURVE SMOOTH",
"75 315 OFFCURVE",
"76 347 OFFCURVE",
"81 377 CURVE",
"81 377 LINE"
);
}
);
width = 348;
}
);
},
{
glyphname = D.ss01;
lastChange = "2019-03-20 23:22:49 +0000";
layers = (
{
hints = (
{
place = "{7, 17}";
type = Stem;
},
{
place = "{22, 70}";
type = Stem;
},
{
place = "{91, 8}";
type = Stem;
},
{
place = "{103, 7}";
type = Stem;
},
{
place = "{245, 66}";
type = Stem;
},
{
horizontal = 1;
place = "{6, 674}";
type = Stem;
},
{
horizontal = 1;
place = "{648, 32}";
type = Stem;
}
);
layerId = UUID0;
paths = (
{
closed = 1;
nodes = (
"46 679 OFFCURVE",
"43 680 OFFCURVE",
"40 680 CURVE SMOOTH",
"35 680 OFFCURVE",
"8 665 OFFCURVE",
"8 654 CURVE SMOOTH",
"8 652 OFFCURVE",
"8 650 OFFCURVE",
"9 648 CURVE",
"23 648 OFFCURVE",
"19 632 OFFCURVE",
"19 622 CURVE SMOOTH",
"19 608 OFFCURVE",
"18 594 OFFCURVE",
"18 580 CURVE SMOOTH",
"18 539 OFFCURVE",
"22 494 OFFCURVE",
"22 451 CURVE SMOOTH",
"22 440 OFFCURVE",
"22 430 OFFCURVE",
"22 420 CURVE SMOOTH",
"23 399 OFFCURVE",
"23 378 OFFCURVE",
"23 357 CURVE SMOOTH",
"23 266 OFFCURVE",
"11 175 OFFCURVE",
"7 85 CURVE",
"7 62 OFFCURVE",
"8 27 OFFCURVE",
"24 15 CURVE",
"26 20 OFFCURVE",
"28 25 OFFCURVE",
"30 30 CURVE",
"33 19 OFFCURVE",
"33 15 OFFCURVE",
"46 6 CURVE",
"68 23 OFFCURVE",
"68 8 OFFCURVE",
"88 28 CURVE",
"89 24 OFFCURVE",
"90 19 OFFCURVE",
"91 15 CURVE",
"99 19 OFFCURVE",
"106 23 OFFCURVE",
"113 29 CURVE SMOOTH",
"138 49 OFFCURVE",
"176 56 OFFCURVE",
"218 102 CURVE SMOOTH",
"234 119 OFFCURVE",
"288 173 OFFCURVE",
"293 214 CURVE",
"286 203 OFFCURVE",
"281 191 OFFCURVE",
"272 181 CURVE",
"276 194 OFFCURVE",
"282 205 OFFCURVE",
"287 218 CURVE SMOOTH",
"303 261 OFFCURVE",
"311 307 OFFCURVE",
"311 353 CURVE SMOOTH",
"311 381 OFFCURVE",
"318 460 OFFCURVE",
"297 517 CURVE",
"269 606 OFFCURVE",
"172 662 OFFCURVE",
"88 676 CURVE SMOOTH",
"75 678 OFFCURVE",
"62 677 OFFCURVE",
"50 679 CURVE SMOOTH",
"50 679 LINE"
);
},
{
closed = 1;
nodes = (
"210 614 OFFCURVE",
"245 460 OFFCURVE",
"245 368 CURVE SMOOTH",
"245 289 OFFCURVE",
"202 157 OFFCURVE",
"101 106 CURVE",
"100 111 OFFCURVE",
"99 116 OFFCURVE",
"99 121 CURVE SMOOTH",
"99 127 OFFCURVE",
"100 134 OFFCURVE",
"100 140 CURVE SMOOTH",
"100 158 OFFCURVE",
"99 176 OFFCURVE",
"99 193 CURVE SMOOTH",
"99 201 OFFCURVE",
"99 209 OFFCURVE",
"100 217 CURVE SMOOTH",
"100 221 OFFCURVE",
"100 225 OFFCURVE",
"100 229 CURVE SMOOTH",
"100 249 OFFCURVE",
"101 270 OFFCURVE",
"101 290 CURVE SMOOTH",
"101 305 OFFCURVE",
"100 317 OFFCURVE",
"100 331 CURVE",
"101 336 OFFCURVE",
"101 341 OFFCURVE",
"101 346 CURVE SMOOTH",
"101 352 OFFCURVE",
"100 358 OFFCURVE",
"100 364 CURVE SMOOTH",
"100 373 OFFCURVE",
"102 383 OFFCURVE",
"102 392 CURVE SMOOTH",
"102 399 OFFCURVE",
"102 405 OFFCURVE",
"102 412 CURVE SMOOTH",
"102 421 OFFCURVE",
"102 431 OFFCURVE",
"102 441 CURVE SMOOTH",
"102 452 OFFCURVE",
"106 470 OFFCURVE",
"93 470 CURVE",
"98 475 OFFCURVE",
"100 479 OFFCURVE",
"100 486 CURVE SMOOTH",
"100 526 OFFCURVE",
"92 574 OFFCURVE",
"92 617 CURVE SMOOTH",
"92 621 OFFCURVE",
"93 625 OFFCURVE",
"93 629 CURVE",
"93 629 LINE"
);
},
{
closed = 1;
nodes = (
"245 259 OFFCURVE",
"232 206 OFFCURVE",
"209 183 CURVE",
"212 202 OFFCURVE",
"220 218 OFFCURVE",
"229 234 CURVE SMOOTH",
"237 249 OFFCURVE",
"240 265 OFFCURVE",
"249 280 CURVE",
"249 280 LINE"
);
},
{
closed = 1;
nodes = (
"102 243 OFFCURVE",
"103 238 OFFCURVE",
"103 233 CURVE SMOOTH",
"103 225 OFFCURVE",
"104 217 OFFCURVE",
"104 209 CURVE SMOOTH",
"104 207 OFFCURVE",
"104 205 OFFCURVE",
"104 203 CURVE",
"107 203 LINE",
"107 212 OFFCURVE",
"107 222 OFFCURVE",
"107 231 CURVE SMOOTH",
"107 236 OFFCURVE",
"107 240 OFFCURVE",
"107 245 CURVE",
"107 245 LINE"
);
},
{
closed = 1;
nodes = (
"104 194 OFFCURVE",
"103 187 OFFCURVE",
"103 179 CURVE SMOOTH",
"103 171 OFFCURVE",
"104 163 OFFCURVE",
"104 154 CURVE SMOOTH",
"104 152 OFFCURVE",
"104 150 OFFCURVE",
"104 148 CURVE SMOOTH",
"105 138 OFFCURVE",
"102 128 OFFCURVE",
"109 119 CURVE",
"110 125 OFFCURVE",
"110 131 OFFCURVE",
"110 138 CURVE SMOOTH",
"110 159 OFFCURVE",
"107 180 OFFCURVE",
"107 201 CURVE",
"107 201 LINE"
);
},
{
closed = 1;
nodes = (
"90 112 OFFCURVE",
"91 107 OFFCURVE",
"91 99 CURVE",
"89 105 OFFCURVE",
"86 111 OFFCURVE",
"85 118 CURVE",
"85 118 LINE"
);
}
);
width = 321;
}
);
},
{
glyphname = E.ss01;
lastChange = "2019-03-20 23:22:49 +0000";
layers = (
{
hints = (
{
place = "{20, 82}";
type = Stem;
},
{
place = "{106, 13}";
type = Stem;
},
{
place = "{122, 7}";
type = Stem;
},
{
horizontal = 1;
place = "{9, 71}";
type = Stem;
},
{
horizontal = 1;
place = "{346, 66}";
type = Stem;
}
);
layerId = UUID0;
paths = (
{
closed = 1;
nodes = (
"219 675 OFFCURVE",
"215 676 OFFCURVE",
"211 676 CURVE SMOOTH",
"203 676 OFFCURVE",
"196 673 OFFCURVE",
"188 672 CURVE",
"106 655 OFFCURVE",
"35 664 OFFCURVE",
"28 597 CURVE",
"24 516 OFFCURVE",
"23 438 OFFCURVE",
"20 359 CURVE SMOOTH",
"16 263 OFFCURVE",
"15 166 OFFCURVE",
"11 71 CURVE",
"17 7 OFFCURVE",
"70 8 OFFCURVE",
"144 8 CURVE SMOOTH",
"157 8 OFFCURVE",
"169 9 OFFCURVE",
"182 9 CURVE SMOOTH",
"187 9 OFFCURVE",
"343 7 OFFCURVE",
"343 62 CURVE",
"340 81 OFFCURVE",
"280 80 OFFCURVE",
"252 80 CURVE SMOOTH",
"220 80 OFFCURVE",
"188 77 OFFCURVE",
"157 77 CURVE SMOOTH",
"147 77 OFFCURVE",
"138 77 OFFCURVE",
"129 78 CURVE",
"129 93 OFFCURVE",
"129 108 OFFCURVE",
"129 123 CURVE SMOOTH",
"129 165 OFFCURVE",
"129 206 OFFCURVE",
"129 247 CURVE SMOOTH",
"129 276 OFFCURVE",
"127 306 OFFCURVE",
"127 335 CURVE SMOOTH",
"127 340 OFFCURVE",
"127 344 OFFCURVE",
"128 349 CURVE",
"146 349 OFFCURVE",
"163 346 OFFCURVE",
"182 346 CURVE SMOOTH",
"216 346 OFFCURVE",
"251 354 OFFCURVE",
"283 363 CURVE",
"284 371 OFFCURVE",
"287 376 OFFCURVE",
"292 382 CURVE",
"271 419 OFFCURVE",
"180 412 OFFCURVE",
"125 412 CURVE",
"122 443 OFFCURVE",
"117 514 OFFCURVE",
"117 580 CURVE SMOOTH",
"117 584 OFFCURVE",
"117 588 OFFCURVE",
"118 592 CURVE",
"146 594 OFFCURVE",
"175 599 OFFCURVE",
"203 604 CURVE SMOOTH",
"230 609 OFFCURVE",
"271 611 OFFCURVE",
"284 640 CURVE",
"272 664 OFFCURVE",
"247 670 OFFCURVE",
"223 674 CURVE SMOOTH",
"223 674 LINE"
);
},
{
closed = 1;
nodes = (
"124 314 OFFCURVE",
"124 271 OFFCURVE",
"124 237 CURVE SMOOTH",
"124 230 OFFCURVE",
"124 223 OFFCURVE",
"124 216 CURVE SMOOTH",
"124 213 OFFCURVE",
"124 209 OFFCURVE",
"124 205 CURVE SMOOTH",
"124 193 OFFCURVE",
"122 181 OFFCURVE",
"122 169 CURVE SMOOTH",
"122 153 OFFCURVE",
"125 78 OFFCURVE",
"117 78 CURVE",
"117 132 OFFCURVE",
"119 184 OFFCURVE",
"119 242 CURVE SMOOTH",
"119 278 OFFCURVE",
"119 314 OFFCURVE",
"119 350 CURVE",
"119 350 LINE"
);
},
{
closed = 1;
nodes = (
"106 207 OFFCURVE",
"106 193 OFFCURVE",
"106 179 CURVE SMOOTH",
"106 145 OFFCURVE",
"106 110 OFFCURVE",
"106 77 CURVE",
"103 81 OFFCURVE",
"102 85 OFFCURVE",
"102 89 CURVE SMOOTH",
"102 132 OFFCURVE",
"102 178 OFFCURVE",
"106 221 CURVE",
"106 221 LINE"
);
}
);
width = 353;
}
);
},
